<?xml version="1.0" encoding="utf-8"?>
<!-- Generator: Adobe Illustrator 19.2.1, SVG Export Plug-In . SVG Version: 6.00 Build 0)  -->
<svg version="1.1" id="Layer_2" xmlns="http://www.w3.org/2000/svg" xmlns:xlink="http://www.w3.org/1999/xlink" x="0px" y="0px"
	 viewBox="0 0 1159.4 972" style="enable-background:new 0 0 1159.4 972;" xml:space="preserve">
<style type="text/css">
	.st0{fill:none;stroke:#000000;}
	.st1{fill:none;stroke:#000000;stroke-miterlimit:2;stroke-dasharray:3,3;}
	.st2{fill:none;stroke:#000000;stroke-miterlimit:2;stroke-dasharray:1,1;}
	.st3{fill:none;stroke:#000000;stroke-miterlimit:2;}
	.st4{fill:none;}
	.st5{fill:none;stroke:#000000;stroke-width:2;stroke-miterlimit:2;}
	.st6{fill:none;stroke:#000000;stroke-width:2;stroke-linecap:round;stroke-linejoin:round;stroke-miterlimit:2;}
	.st7{fill:none;stroke:#000000;stroke-linecap:round;stroke-linejoin:round;stroke-miterlimit:2;}
	.st8{fill:none;stroke:#000000;stroke-linecap:round;stroke-linejoin:bevel;}
	.st9{fill:none;stroke:#000000;stroke-linecap:round;}
	.st10{fill:none;stroke:#000000;stroke-linecap:round;stroke-linejoin:round;}
	.st11{fill:none;stroke:#000000;stroke-width:4;stroke-miterlimit:2;}
	.st12{fill:none;stroke:#000000;stroke-width:3;stroke-miterlimit:2;}
	.st13{fill:none;stroke:#000000;stroke-width:5;stroke-miterlimit:2;}
	.st14{fill:none;stroke:#000000;stroke-width:5;}
	.st15{fill:none;stroke:#000000;stroke-linejoin:bevel;}
	.st16{fill:none;stroke:#000000;stroke-linecap:round;stroke-miterlimit:2;}
	.st17{fill:none;stroke:#000000;stroke-width:3;stroke-linecap:round;stroke-miterlimit:2;}
	.st18{fill:none;stroke:#000000;stroke-width:2;stroke-linecap:round;stroke-miterlimit:2;}
	.st19{fill:#0AE700;stroke:#000000;}
	.st20{fill:none;stroke:#000000;stroke-width:0.5;stroke-miterlimit:2;}
</style>
<polyline class="st0" points="215.2,610.7 44.3,609.2 26.1,578.8 105,60.1 101.3,51.8 124.8,35.1 141.5,51 289.8,54.8 "/>
<polyline class="st0" points="212.9,629.7 13.9,629.7 13.9,799 56.4,799 56.4,790.6 75.4,790.6 75.4,800.5 148.3,800.5 148.3,793.7 
	170.4,793.7 170.4,802 223.5,802 223.5,795.2 244,795.2 244,804.3 304,804.3 304,798.2 315.4,798.2 332.1,798.2 332.1,775.5 
	304.3,774.9 304.3,712.2 "/>
<rect x="93.7" y="688.9" class="st0" width="117.7" height="57"/>
<path class="st0" d="M139.5,674.5H80v88.1h142.8v-88.1H160v-10.6C160,663.8,139.5,665.1,139.5,674.5z"/>
<rect x="139.7" y="709.6" class="st0" width="21.3" height="15.2"/>
<polyline class="st0" points="280.5,653.5 280.5,711.7 333.1,711.7 "/>
<line class="st0" x1="311.3" y1="775.5" x2="311.3" y2="798.7"/>
<polyline class="st0" points="311.8,785.1 323.5,785.1 323.5,774.9 "/>
<path class="st0" d="M33.2,533.2L84,544.6l4.1-12.1l43,5.1l8.1-106.8l16.7,1l17.7-103.8l-38-7.1L164,153.8l-62.8-13.2l11.6-69.9
	h10.6l-12.1-16.7l9.1-7.1c0,0,7.1-5.6,4.1,5.6l6.1,10.1L141.5,51"/>
<rect x="65.5" y="327.6" transform="matrix(0.1656 -0.9862 0.9862 0.1656 -275.2556 419.6283)" class="st0" width="89.8" height="89.8"/>
<circle class="st0" cx="123.5" cy="175.6" r="26.6"/>
<circle class="st0" cx="114.4" cy="233.8" r="26.6"/>
<circle class="st0" cx="104.3" cy="291.5" r="26.6"/>
<ellipse class="st0" cx="110.4" cy="372.5" rx="42.5" ry="43"/>
<polyline class="st0" points="72.6,412.1 70.4,427.7 119.5,435.8 121,420.1 "/>
<ellipse class="st0" cx="88.6" cy="470.7" rx="32.9" ry="31.4"/>
<path class="st0" d="M186.8,609.9l-1-91.6c0,0-1-42.5,2.5-75.9l3-33.9v-45.6h41.5v3h-35.9v42c0,0-1,28.5-2,33.4
	c-8.4,41.6-5.6,13.2-3,169.6"/>
<polyline class="st0" points="189.6,491.9 240.5,495.5 240.5,504.1 253.6,505.1 254.6,497.5 276.4,498.5 275.9,506.1 283.5,506.1 
	284.5,499 308.8,500.6 "/>
<polyline class="st0" points="201.2,207.7 201.5,272.3 213.6,272.3 "/>
<polyline class="st0" points="214.2,222.1 214.1,359.8 258.7,354.7 "/>
<path class="st0" d="M214.1,249.5h100.1v-69c0,0-7.6,1.5-7.2-6.1c0.4-7.6,6.5-4.9,6.5-4.9v-16.7h2.7v14c0,0,7.1,2.5,8.2,5.6
	c1.1,3-0.3,6.6-3.3,9.2V253"/>
<line class="st0" x1="214.1" y1="308.7" x2="318.8" y2="308.7"/>
<line class="st0" x1="247" y1="308.7" x2="246.9" y2="356.2"/>
<polyline class="st0" points="310.3,308.2 310.3,324.4 262.2,324.4 262.2,308.7 "/>
<line class="st0" x1="275.4" y1="324.4" x2="275.4" y2="350.9"/>
<polygon class="st0" points="222.8,625.6 212.6,625.6 212.6,652.4 331.6,652.4 331.6,645.9 223.8,644.3 "/>
<path class="st0" d="M941.6,317.8c0-19.6,15.9-35.4,35.4-35.4c19.6,0,35.4,15.9,35.4,35.4c0,19.6-15.9,35.4-35.4,35.4
	C957.5,353.3,941.6,337.4,941.6,317.8z"/>
<path class="st0" d="M1019.4,428.7c0-21.6,17.5-39.2,39.2-39.2c21.6,0,39.2,17.5,39.2,39.2c0,21.6-17.5,39.2-39.2,39.2
	C1036.9,467.8,1019.4,450.3,1019.4,428.7z"/>
<path class="st0" d="M969.8,184.2c0-22.7,18.4-41.1,41.1-41.1c22.7,0,41.1,18.4,41.1,41.1c0,22.7-18.4,41.1-41.1,41.1
	C988.3,225.3,969.8,206.9,969.8,184.2z"/>
<polygon class="st0" points="1052.5,490.9 1002.1,454.3 1008.6,392.4 1065.5,367.1 1115.9,403.7 1109.4,465.6 "/>
<polygon class="st0" points="1053.5,481 1011.2,450.3 1016.7,398.2 1064.5,377 1106.8,407.8 1101.3,459.8 "/>
<polyline class="st0" points="904.7,630.7 927.9,630.7 927.9,400.3 864.2,372.5 878.8,257.1 924.9,265.2 914.3,348.7 928.4,368.4 
	1006.4,380.6 1026.2,367.4 1038.3,284.9 1024.6,267.2 944.1,253 "/>
<polyline class="st0" points="927.9,630.7 981.6,630.7 981.6,591.7 927.4,591.7 "/>
<polyline class="st0" points="981.6,617.5 1031.7,617.5 1031.7,536.5 1003.4,536.5 1003.4,568.9 1032.2,568.4 "/>
<line class="st0" x1="981.6" y1="604.3" x2="1031.7" y2="604.3"/>
<line class="st0" x1="1032.2" y1="543.6" x2="1125.9" y2="543.6"/>
<path class="st0" d="M1081.8,602.3c0-7,5.7-12.7,12.7-12.7c7,0,12.7,5.7,12.7,12.7c0,7-5.7,12.7-12.7,12.7
	C1087.5,615,1081.8,609.3,1081.8,602.3z"/>
<rect x="1072.2" y="580.6" class="st0" width="45.6" height="43"/>
<rect x="1063.6" y="574" class="st0" width="59.2" height="56.2"/>
<path class="st1" d="M430.8,386.7c0-54.2,44-98.2,98.2-98.2c54.2,0,98.2,44,98.2,98.2c0,54.2-44,98.2-98.2,98.2
	C474.8,484.9,430.8,440.9,430.8,386.7z"/>
<g>
	<path class="st2" d="M448.7,221.6c0-9.7,7.9-17.6,17.6-17.6c9.7,0,17.6,7.9,17.6,17.6c0,9.7-7.9,17.6-17.6,17.6
		C456.5,239.2,448.7,231.3,448.7,221.6z"/>
	<path class="st2" d="M441.6,221.6c0-13.6,11-24.6,24.6-24.6c13.6,0,24.6,11,24.6,24.6c0,13.6-11,24.6-24.6,24.6
		C452.7,246.2,441.6,235.2,441.6,221.6z"/>
</g>
<polygon class="st0" points="1052.5,490.9 1002.1,454.3 1008.6,392.4 1065.5,367.1 1115.9,403.7 1109.4,465.6 "/>
<path class="st2" d="M452.1,193.3c0,0-31.4-9.1-48.6,22.3c0,0-15.2,19.2,7.1,52.6"/>
<path class="st2" d="M613.1,199.9c0,0,62.3,1.5,41,73.4"/>
<path class="st2" d="M613.1,209c0,0,48.1,9.1,30.9,59.2"/>
<path class="st2" d="M417.7,260.6c0,0-25.8-46.1,26.8-53.7"/>
<path class="st2" d="M633.3,509.7c0,0,23.3,43-23.8,60.8"/>
<path class="st2" d="M641.4,508.2c0,0,17.2,24.3,1.5,51.1c-15.7,26.8-39,20.2-39,20.2"/>
<path class="st2" d="M409,492.5c0,0-16.7,21.8-6.1,54.2c10.6,32.4,48.1,25.3,48.1,25.3"/>
<path class="st2" d="M416.1,501.6c0,0-19.2,52.6,29.9,58.2"/>
<circle class="st3" cx="230.3" cy="331.5" r="15.2"/>
<rect x="357.9" y="596.2" class="st4" width="24.3" height="11.4"/>
<rect x="397.4" y="361.6" class="st4" width="11.4" height="11.4"/>
<rect x="415.6" y="361.6" class="st4" width="11.4" height="11.4"/>
<rect x="415.6" y="385.9" class="st4" width="11.4" height="11.4"/>
<rect x="397.4" y="385.9" class="st4" width="11.4" height="11.4"/>
<rect x="436.5" y="376" class="st4" width="11.4" height="11.4"/>
<rect x="419" y="335" class="st4" width="11.4" height="11.4"/>
<rect x="418.7" y="173.7" class="st4" width="11.4" height="11.4"/>
<rect x="401.6" y="172.5" class="st4" width="11.4" height="11.4"/>
<rect x="383.4" y="172.1" class="st4" width="11.4" height="11.4"/>
<rect x="354.5" y="170.6" class="st4" width="11.4" height="11.4"/>
<rect x="395.8" y="571.3" class="st4" width="11.4" height="11.4"/>
<rect x="643.8" y="581.4" class="st4" width="11.4" height="11.4"/>
<rect x="705.6" y="586.5" class="st4" width="11.4" height="11.4"/>
<rect x="417.9" y="415.5" class="st4" width="11.4" height="11.4"/>
<rect x="645.7" y="373.8" class="st4" width="11.4" height="11.4"/>
<rect x="645.7" y="398.1" class="st4" width="11.4" height="11.4"/>
<polygon class="st4" points="641.2,409.4 629.8,409.4 630.5,398.6 641.2,398.1 "/>
<rect x="627.1" y="343.4" class="st4" width="11.4" height="11.4"/>
<rect x="649.1" y="189.6" class="st4" width="11.4" height="11.4"/>
<rect x="703.8" y="189.6" class="st4" width="11.4" height="11.4"/>
<rect x="628.2" y="373.8" class="st4" width="11.4" height="11.4"/>
<rect x="835.6" y="271.2" class="st4" width="11.4" height="11.4"/>
<circle class="st3" cx="861.1" cy="551.7" r="34.4"/>
<ellipse class="st3" cx="784.2" cy="353.2" rx="18.2" ry="17.2"/>
<path class="st2" d="M904.7,741c0-25.2,20.4-45.6,45.6-45.6c25.2,0,45.6,20.4,45.6,45.6c0,25.2-20.4,45.6-45.6,45.6
	C925,786.6,904.7,766.2,904.7,741z"/>
<circle class="st3" cx="1036.8" cy="730.9" r="18.2"/>
<ellipse class="st3" cx="1001.3" cy="483.9" rx="10.1" ry="9.1"/>
<polygon class="st3" points="989.2,232.8 962.4,202.4 961.9,160.9 989.7,135.1 1033.2,135.6 1059.1,167.5 1058.6,207.5 
	1030.2,234.8 "/>
<path class="st3" d="M949.7,251l-0.5-9.6l83.5,2.5l34.9-30.4l1.5-48.1l-33.4-38h-49.1l-32.9,28.9v48.1l25.3,28.9l-40-2V214h-8.6
	v20.3c0,0,1,3.5,5.6,4.1c4.6,0.5,8.1,1,8.1,1V253L949.7,251z"/>
<circle class="st3" cx="573.6" cy="353.2" r="9.6"/>
<rect x="553.3" y="334" class="st3" width="38.5" height="36.4"/>
<line class="st5" x1="860.1" y1="821" x2="1121.8" y2="822.9"/>
<line class="st5" x1="1122.3" y1="704.6" x2="1121.8" y2="822.9"/>
<path class="st6" d="M1125.4,642.8V170l-12.9-10.2c5.6-3,9.5-8.8,9.5-15.7c0-9.8-8-17.8-17.8-17.8c-5.4,0-10.1,2.4-13.4,6.2l-50,0"
	/>
<rect x="1017" y="709.6" class="st7" width="40" height="40"/>
<rect x="1016.5" y="756.2" class="st7" width="41" height="14.2"/>
<rect x="1010" y="703.6" class="st7" width="53.7" height="71.4"/>
<polyline class="st7" points="915.3,335.5 897.6,334 897.9,317.4 "/>
<polyline class="st7" points="916.8,320.3 889,315.3 890.5,291.5 920.3,296.5 "/>
<polyline class="st7" points="922.4,280.3 905.2,278.3 902.6,293.2 "/>
<line class="st0" x1="924.9" y1="265.2" x2="944.1" y2="253"/>
<polygon class="st0" points="937.6,266.7 925.9,355.3 1013.5,368.4 1025.1,280.3 "/>
<polyline class="st0" points="1007.9,395.4 980.1,394.8 979.1,407.4 968.9,407.4 967.9,432.7 974.5,433.2 974,451.5 1002.4,451.5 
	"/>
<path class="st0" d="M985.1,128.5"/>
<path class="st0" d="M994.3,457.3h-9.1c0,0-4.5,8.6-5.1,11.4H972c0,0-5.8,17-6.3,23.5v15.9h47.1l13.2-13.2v-22.5"/>
<path class="st0" d="M1014,464.1h-19.5c0,0-9.1,8.9-12.4,17c0,0-2.7,10.2,8.5,15.8l-0.1,7.2h19.5v-6.8h9.9v-22.8h-4.3L1014,464.1z"
	/>
<line class="st0" x1="1010" y1="497.3" x2="990.6" y2="496.9"/>
<line class="st0" x1="1015" y1="470.2" x2="988.9" y2="470.2"/>
<line class="st8" x1="1015.5" y1="474.5" x2="1015.3" y2="496.8"/>
<line class="st0" x1="932.8" y1="356.5" x2="931.2" y2="368.2"/>
<line class="st0" x1="946.7" y1="358.3" x2="945.4" y2="370.7"/>
<line class="st0" x1="951.7" y1="359.3" x2="950.2" y2="372"/>
<line class="st0" x1="965.9" y1="361.3" x2="964.6" y2="374.1"/>
<line class="st0" x1="972.2" y1="362.4" x2="971" y2="374.8"/>
<line class="st0" x1="984.9" y1="364.4" x2="983.4" y2="377"/>
<line class="st0" x1="989.2" y1="364.9" x2="987.7" y2="377.3"/>
<line class="st0" x1="1005.1" y1="367.2" x2="1002.4" y2="379.8"/>
<line class="st0" x1="1014.8" y1="361.6" x2="1026.4" y2="363.6"/>
<line class="st0" x1="1016.3" y1="347.2" x2="1028.9" y2="348.7"/>
<line class="st0" x1="1017" y1="341.1" x2="1029.9" y2="342.1"/>
<line class="st0" x1="1018.6" y1="327.9" x2="1031.2" y2="329.5"/>
<line class="st0" x1="1020.1" y1="321.6" x2="1032.2" y2="322.9"/>
<line class="st0" x1="1021.3" y1="305.7" x2="1034.8" y2="307.2"/>
<line class="st0" x1="1022.1" y1="301.1" x2="1035.8" y2="302.6"/>
<line class="st0" x1="1024.1" y1="290.2" x2="1037.8" y2="290"/>
<line class="st0" x1="1018.1" y1="279.2" x2="1017.8" y2="266.2"/>
<line class="st0" x1="1004.1" y1="276.6" x2="1003.9" y2="263.9"/>
<line class="st0" x1="997.8" y1="275.8" x2="997.6" y2="262.1"/>
<line class="st0" x1="985.4" y1="273.8" x2="985.9" y2="259.8"/>
<line class="st0" x1="980.2" y1="273.2" x2="980.1" y2="258.8"/>
<line class="st0" x1="965.2" y1="270.7" x2="964.6" y2="256.3"/>
<line class="st0" x1="960.4" y1="270.4" x2="959.8" y2="255.8"/>
<line class="st0" x1="946.2" y1="267.4" x2="945.9" y2="253.5"/>
<line class="st0" x1="936.1" y1="274.6" x2="924.2" y2="272.7"/>
<line class="st0" x1="934" y1="290.2" x2="922.1" y2="288.2"/>
<line class="st0" x1="933.5" y1="293.3" x2="921.9" y2="291.4"/>
<line class="st0" x1="931.5" y1="308.2" x2="919.6" y2="306.7"/>
<line class="st0" x1="930.5" y1="312.2" x2="919.3" y2="310.5"/>
<line class="st0" x1="929" y1="326.4" x2="917.3" y2="324.1"/>
<line class="st0" x1="928.4" y1="331" x2="916.8" y2="328.9"/>
<line class="st0" x1="927.1" y1="345.9" x2="915" y2="344.9"/>
<line class="st0" x1="921.1" y1="357.8" x2="925.9" y2="355.3"/>
<line class="st0" x1="985.9" y1="127.7" x2="937.1" y2="127.7"/>
<ellipse class="st0" cx="933.8" cy="126.7" rx="5.1" ry="5.3"/>
<line class="st0" x1="967.5" y1="485.8" x2="982.1" y2="486.1"/>
<line class="st0" x1="965.7" y1="492.2" x2="983.1" y2="490.4"/>
<line class="st9" x1="982.1" y1="481.1" x2="980.1" y2="468.7"/>
<polyline class="st9" points="742.5,418.6 826.4,418.6 826.4,334.3 810.5,334.3 810.5,338.8 805.6,338.8 805.6,333.9 763.8,333.9 
	763.8,336.5 758.1,336.5 758.1,332.7 743.7,332.7 "/>
<polyline class="st9" points="742.9,373.8 756.6,373.8 756.6,370 764.2,370 764.2,373.8 803.7,373.8 803.7,369.6 810.1,369.6 
	810.1,374.5 826.1,374.5 "/>
<polyline class="st9" points="819.2,333.9 819.2,275.8 772.9,275.8 772.9,279.6 767.2,279.6 767.2,275.4 744.4,275.4 "/>
<path class="st9" d="M907.3,508.2v-81.3c0,0-3.4-12.9-49.4-23.5c0,0,2.7,28,0,36.8c-0.8,2.7-6.5,9.5-6.5,9.5"/>
<polyline class="st9" points="742.7,224.7 778.1,224.7 778.1,253.5 784.2,253.5 784.2,224.7 824.2,224.7 824.2,252.5 829.7,252.5 
	829.7,225.2 844.9,225.2 844.9,175.1 744.7,175.1 "/>
<line class="st9" x1="829.7" y1="225.2" x2="844.4" y2="211.5"/>
<polyline class="st9" points="844.9,225.2 844.9,238.8 876.8,238.8 876.8,216.1 "/>
<g>
	<polyline class="st0" points="700.6,114.1 700.6,113.3 704.7,101.6 697.6,101.6 697.6,92 756.3,92 	"/>
	<line class="st0" x1="700.6" y1="123.6" x2="700.6" y2="168"/>
	<path class="st10" d="M700.6,114.1c-4.4,0.3-7.8,2.3-7.8,4.8c0,2.5,3.4,4.5,7.8,4.8"/>
	<path class="st10" d="M700.6,114.1c0.3,0,0.7,0,1,0c4.9,0,8.9,2.2,8.9,4.8c0,2.7-4,4.8-8.9,4.8c-0.3,0-0.7,0-1,0"/>
</g>
<g>
	<path class="st10" d="M761.4,122.9"/>
	<polyline class="st0" points="845.4,215.6 901.1,215.6 901.1,122.9 761.4,122.9 	"/>
	<path class="st10" d="M756.8,128.9"/>
	<line class="st0" x1="756.8" y1="128.9" x2="756.3" y2="174.6"/>
	<polyline class="st0" points="756.8,115.8 756.8,83.4 702.7,83.4 702.7,91.9 	"/>
	<path class="st10" d="M756.8,115.8"/>
	<path class="st10" d="M756.8,115.8c0.2,0,0.3-0.1,0.5-0.1c2.2,0,4,2.9,4,6.6c0,0.2,0,0.4,0,0.5"/>
	<path class="st10" d="M756.8,115.8c-2,0.4-3.6,3.2-3.6,6.5c0,3.3,1.5,6.1,3.5,6.5"/>
	<path class="st10" d="M761.4,122.9c-0.2,3.4-1.9,6-4,6c-0.2,0-0.4,0-0.6-0.1"/>
</g>
<polyline class="st9" points="901.1,133.5 911.2,133.5 911.2,124.9 921.4,124.9 921.4,133 933.3,133 933.3,133 933,170 "/>
<ellipse class="st9" cx="780.6" cy="263.9" rx="3" ry="5.3"/>
<path class="st9" d="M961.6,176.8"/>
<polyline class="st9" points="961.6,176.8 936.3,176.8 936.3,170 929,170 929,191 932.5,191 932.5,204.2 926.4,204.2 926.4,214 
	936,214 936,204.7 953.8,204.4 "/>
<path class="st9" d="M962.1,186.7"/>
<rect x="937.1" y="188.7" class="st9" width="11.1" height="8.1"/>
<polyline class="st9" points="936.3,170 936.3,163.9 953.3,163.9 "/>
<polyline class="st9" points="953.3,158.3 937.6,158.3 937.6,130.4 "/>
<line class="st9" x1="929" y1="184.7" x2="961.9" y2="184.7"/>
<rect x="815.1" y="663.6" class="st9" width="47.6" height="7.6"/>
<polyline class="st9" points="862.6,663.6 881.9,663.6 881.9,718.8 792.8,718.8 792.8,775.5 711.4,776.2 "/>
<line class="st9" x1="876.3" y1="664.1" x2="876.3" y2="718.8"/>
<polyline class="st9" points="862.6,671.2 862.6,705.1 777.6,705.1 777.6,775.5 "/>
<polyline class="st9" points="772,775.5 772,694.5 857.6,694.5 857.6,689.6 "/>
<path class="st9" d="M862.6,689.4H761.9c0,0-4.6-1.5-5.1,6.1"/>
<line class="st9" x1="852.5" y1="671.7" x2="852.5" y2="689.4"/>
<line class="st9" x1="856.8" y1="712.8" x2="856.8" y2="717.9"/>
<line class="st9" x1="838.6" y1="712.8" x2="838.6" y2="717.9"/>
<line class="st9" x1="820.4" y1="712.8" x2="820.4" y2="717.9"/>
<line class="st9" x1="802.1" y1="712.8" x2="802.1" y2="717.9"/>
<line class="st9" x1="787.3" y1="726.9" x2="792.1" y2="726.9"/>
<path class="st9" d="M609.8,552.7c0-3.5,2.8-6.3,6.3-6.3c3.5,0,6.3,2.8,6.3,6.3c0,3.5-2.8,6.3-6.3,6.3
	C612.6,559,609.8,556.2,609.8,552.7z"/>
<polygon class="st3" points="922.9,730.9 938.5,715.6 960.3,715.7 975.7,731.3 975.5,753.2 959.9,768.5 938.1,768.4 922.7,752.8 "/>
<line class="st3" x1="234.9" y1="417" x2="235.1" y2="357.4"/>
<polyline class="st0" points="258.4,419.7 258.4,392 306.7,391.6 307.3,424.1 196.4,413 "/>
<path class="st0" d="M281.2,391.6v-26.2h-22.4c0,0-6.1,0-6.5,6.5s0.8,8.3,3,9.1c2.9,1,12.1,0,12.1,0v11.4"/>
<path class="st0" d="M281.2,381h36.4c0,0,4.9,0.4,4.9-4.9s2.3-8-8-8c-10.3,0-33,0-33,0"/>
<polyline class="st0" points="258.8,365.4 258.8,351 310.5,351 310.5,367.7 "/>
<polygon class="st0" points="318.8,308.4 318.8,354.8 335.9,354.8 335.9,364.6 346.9,364.6 346.9,355.1 354.5,355.1 354.5,308.8 "/>
<line class="st0" x1="310.5" y1="352.1" x2="319.2" y2="352.1"/>
<line class="st0" x1="314.3" y1="190.4" x2="320.7" y2="190.4"/>
<line class="st0" x1="314.3" y1="196.4" x2="320.7" y2="196.4"/>
<line class="st0" x1="314.3" y1="202.5" x2="320.7" y2="202.5"/>
<line class="st0" x1="314.3" y1="208.6" x2="320.7" y2="208.6"/>
<line class="st0" x1="314.3" y1="214.7" x2="320.7" y2="214.7"/>
<line class="st0" x1="314.3" y1="220.7" x2="320.7" y2="220.7"/>
<line class="st0" x1="314.3" y1="226.8" x2="320.7" y2="226.8"/>
<line class="st0" x1="314.3" y1="232.9" x2="320.7" y2="232.9"/>
<line class="st0" x1="314.3" y1="239" x2="320.7" y2="239"/>
<path class="st0" d="M392.8,302.8v9.9h25.1v8.7h14.8v-31.1h4.9v-23.9c0,0-12.5-1.1-19-12.5c0,0-8.4,6.5-17.1,5.3v8.7h-9.5v11.8h8
	v22.8L392.8,302.8z"/>
<path class="st0" d="M357.2,275.8v-11h-7.6v-11h-11.8V264h-8.7v-15.2l-19.7,0.4v60h45.2v-9.9h-8v-23.5H357.2z M326,293.1
	c-8.8,0-15.9-2.6-15.9-5.9s7.1-5.9,15.9-5.9c8.8,0,15.9,2.6,15.9,5.9S334.8,293.1,326,293.1z"/>
<polygon class="st0" points="212.9,618.6 223.5,618.3 223.5,608.4 251.2,608.4 251.2,597.8 245.9,597.8 245.9,576.5 309.7,576.5 
	309.7,592.8 304.8,592.8 304.8,605 299.8,605 299.8,599.7 258.4,599.7 258.4,608.8 327.2,608.8 331.7,787.6 343.1,787.6 
	342.3,693.1 334.4,693.1 334.4,678.3 341.6,678.3 341.6,666.1 350.7,666.1 341.6,657 341.6,607.3 351.5,607.3 340.8,591.3 
	328.3,591.3 328.3,594.7 319.6,594.7 319.6,577.6 345,577.6 345,568.9 332.9,568.9 332.9,573.8 323.4,573.8 323.4,569.3 318,569.3 
	318,563.2 310.1,563.2 310.1,568.1 238.3,568.1 238.3,598.9 212.5,598.9 "/>
<rect x="332.1" y="619.8" class="st0" width="6.1" height="18.6"/>
<rect x="318.8" y="602.3" class="st0" width="9.1" height="5.3"/>
<rect x="254.3" y="585.2" class="st0" width="43.7" height="6.5"/>
<polygon class="st0" points="329.1,799 329.1,808.1 351.1,808.1 351.1,800.5 340.1,800.5 340.1,797.9 "/>
<polygon class="st0" points="359.8,801.3 359.8,808.9 383,808.9 383,748.1 389.4,748.1 389.4,738.2 382.2,738.2 382.2,711.7 
	368.5,711.7 368.5,801.7 "/>
<path class="st0" d="M364.4,663.8v13.7h65.7v-9.9c0,0-4.2-3.4-9.1-4.2v-4.2h-10.3v7.6h-28.9v-8.4h-11.8v4.6L364.4,663.8z"/>
<path class="st0" d="M447.5,665h4.9v-3.8h10.6v6.8h33.8v-7.2h9.1v3.4c0,0,10.3,2.7,11.4,5.3v9.1h-70.2L447.5,665z"/>
<path class="st0" d="M533.7,666.5c0,0,4.2-0.8,6.1-4.6h9.5v7.2h26.2v-8h17.1c0,0,6.1,5.3,8.4,9.1v9.9h-67.2V666.5z"/>
<path class="st0" d="M617.2,667.2c0,0,3,0.8,6.8-3.8h9.5v6.8h27.7v-7.6h8.4c0,0,3,4.6,11,8.7v8.7l-63.4,0.4V667.2z"/>
<line class="st0" x1="338.2" y1="707.1" x2="665.2" y2="707.1"/>
<line class="st0" x1="338.7" y1="714.2" x2="664.7" y2="714.2"/>
<rect x="370.1" y="698.5" class="st0" width="13.7" height="16.2"/>
<rect x="411.6" y="699" class="st0" width="11.6" height="15.2"/>
<rect x="452.6" y="699.5" class="st0" width="10.6" height="14.2"/>
<rect x="498.1" y="700.5" class="st0" width="9.1" height="13.2"/>
<rect x="540.2" y="700.5" class="st0" width="8.6" height="13.2"/>
<rect x="577.1" y="701" class="st0" width="15.2" height="12.1"/>
<rect x="624.2" y="700.5" class="st0" width="10.1" height="13.2"/>
<rect x="452.6" y="713.7" class="st0" width="15.2" height="22.8"/>
<rect x="498.1" y="713.7" class="st0" width="9.1" height="23.8"/>
<rect x="540.2" y="713.7" class="st0" width="8.6" height="23.8"/>
<rect x="577.1" y="713.2" class="st0" width="14.2" height="24.3"/>
<polygon class="st0" points="661.2,701.5 671.3,701.5 671.3,708.6 681.4,708.6 681.4,717.2 661.6,717.2 "/>
<polygon class="st0" points="395.9,595.2 395.9,609.9 426.3,609.9 426.3,599.8 406,599.8 406,594.7 "/>
<polygon class="st0" points="441.4,604.9 449.5,604.9 449.5,597.8 481.4,597.8 481.4,612.9 441.4,612.9 "/>
<polygon class="st0" points="567,601.3 567,616 606.5,616 606.5,608.4 598.4,608.4 598.4,601.3 "/>
<polygon class="st0" points="623.7,608.4 641.9,608.4 641.9,603.8 652,603.8 652,619 623.2,619 "/>
<rect x="665.2" y="611.4" class="st0" width="19.7" height="8.6"/>
<path class="st0" d="M416.1,506.6c0,0,2-10.1,16.7-14.2v-17.7h-3.5v-31.4h-39v12.2h6.6v21.3h-8.1v11.1h8.6v8.6L416.1,506.6z"/>
<path class="st0" d="M619.6,482.8V498c0,0,7.6,1.5,14.7,15.2l11.6-2c0,0,2.5-8.6,8.6-8.1c6.1,0.5,6.1,0.5,6.1,0.5v-11.1h-4.1v-25.3
	h7.6V455h-36.4v27.3L619.6,482.8z"/>
<rect x="629.4" y="427.7" class="st4" width="11.1" height="10.6"/>
<line class="st3" x1="628.8" y1="459.1" x2="630.5" y2="398.6"/>
<polyline class="st11" points="662.2,456.5 662.2,437.3 638.4,429.7 "/>
<polygon class="st3" points="412.1,523.9 399.4,523.9 400.6,517.4 412.1,517.3 "/>
<polygon class="st3" points="412.7,561.7 407.2,554.4 417.1,545.2 422.2,551.1 "/>
<polygon class="st3" points="648.5,538 639.1,537.7 639.1,530.2 648.5,529.9 "/>
<polygon class="st3" points="635.4,569.2 626.4,561.4 631.2,556.1 640.2,562.7 "/>
<path class="st3" d="M432.3,547.6c0-3.4,2.7-6.1,6.1-6.1c3.4,0,6.1,2.7,6.1,6.1c0,3.4-2.7,6.1-6.1,6.1
	C435.1,553.7,432.3,551,432.3,547.6z"/>
<polyline class="st11" points="429.3,443.4 429.3,433.7 390.3,419.6 390.3,437.8 "/>
<polygon class="st3" points="574.6,280.9 565.5,308.2 601.9,317.3 610.5,293 "/>
<polyline class="st11" points="601.9,317.3 617.1,322.9 621.7,314.8 "/>
<polyline class="st3" points="492.6,147.7 492.6,80.9 527.5,80.9 527.5,64.7 "/>
<polyline class="st3" points="577.6,159.4 576.1,80.9 541.2,80.9 541.2,64.7 "/>
<path class="st3" d="M573.6,153.8"/>
<polyline class="st3" points="580.6,165.1 579.6,125.9 598.4,125.9 598.4,84.4 636.9,84.4 636.9,128 658.1,128 658.1,117.3 
	664.2,117.3 665.1,71.5 605.7,71.1 "/>
<line class="st3" x1="664.2" y1="94.6" x2="697.6" y2="94.6"/>
<polyline class="st3" points="487.5,186.7 558.9,213 547.8,247.4 580.7,259.1 593.3,221.9 "/>
<polyline class="st3" points="317.4,546.1 350.3,546.1 350.3,476.3 "/>
<polyline class="st3" points="350.2,452.9 352.9,395.3 318.9,395.4 "/>
<polyline class="st3" points="324.5,355.3 324.5,391.7 318.9,391.7 318.9,438.8 "/>
<line class="st3" x1="310.3" y1="322.4" x2="318.4" y2="322.4"/>
<polyline class="st3" points="310.8,380.6 310.8,391.2 306.7,391.6 "/>
<polyline class="st3" points="700.1,494.5 700.1,565.4 730.1,564.9 "/>
<line class="st3" x1="700.6" y1="137.6" x2="756.3" y2="137.6"/>
<path class="st3" d="M627.7,328.9h39.5v-14.2h-6.6V294h6.6v-12.2h-7.6v-8.6l-18.2-8.1c0,0,0,6.1-17.2,16.2v16.7h-9.1v10.1H606
	l-0.5,2.2l16.2,4.4l1.5-5.6h4.1L627.7,328.9z"/>
<polygon class="st3" points="307.3,435.3 307.8,457 335.6,457 335.6,460.6 344.2,460.6 344.2,454.5 350.3,454.5 350.3,440.3 "/>
<polygon class="st3" points="308.3,467.2 308.3,498 315.9,498 315.9,486.9 333.6,486.9 333.6,497 342.7,497 342.7,487.9 
	350.8,487.9 350.8,474.2 342.2,474.2 342.2,467.2 "/>
<path class="st3" d="M454.1,587.6h29.4v-17.2L471.1,558h-28.6v15.4C442.5,573.5,456.6,573,454.1,587.6z"/>
<polygon class="st3" points="512.8,614 495.1,614 495.6,601.8 512.8,601.8 "/>
<polyline class="st12" points="512.8,601.8 512.8,594.2 494.6,585.1 495.1,614 "/>
<polygon class="st3" points="389.8,810.4 389.8,770.4 396.9,770.4 396.9,762.8 408.5,762.8 408.5,770.4 505.2,770.4 505.2,762.3 
	519.9,762.3 519.9,810.9 "/>
<rect x="390.3" y="799.8" class="st3" width="129.6" height="11.1"/>
<rect x="396.9" y="787.6" class="st13" width="11.6" height="10.6"/>
<rect x="415.1" y="787.6" class="st13" width="11.6" height="10.6"/>
<rect x="433.3" y="787.6" class="st13" width="11.6" height="10.6"/>
<rect x="451.6" y="787.6" class="st13" width="11.6" height="10.6"/>
<rect x="473.3" y="786.1" class="st3" width="13.2" height="14.2"/>
<rect x="497.6" y="786.1" class="st3" width="13.2" height="14.2"/>
<rect x="341.2" y="705.6" class="st4" width="30.9" height="8.1"/>
<path class="st14" d="M481.4,569.9l5.6-17.2l-37-11.6c0,0-4.6,20.3-3,21.3"/>
<rect x="307.3" y="399.8" class="st0" width="11.1" height="7.6"/>
<rect x="307.8" y="414" class="st0" width="10.5" height="5.5"/>
<polygon class="st0" points="319.1,429.9 307.4,429.7 307.3,424.1 318.9,424.1 "/>
<line class="st0" x1="316.7" y1="499" x2="318" y2="563.2"/>
<line class="st0" x1="308.3" y1="499" x2="310.1" y2="562.6"/>
<line class="st0" x1="308.3" y1="505.6" x2="316.7" y2="505.1"/>
<line class="st0" x1="308.3" y1="523.9" x2="316.7" y2="523.3"/>
<line class="st0" x1="309.3" y1="551.2" x2="317.7" y2="550.7"/>
<polyline class="st0" points="290,74.1 290,51 301,51 301,46.1 309.7,46.1 309.7,51.8 327.9,51.8 327.9,64.3 319.9,64.3 319.9,74.3 
	"/>
<polygon class="st0" points="446.8,29.8 446.8,22.9 328.7,22.9 328.7,64.3 405.2,64.3 405.2,59 336.3,59 336.3,29 "/>
<rect x="309.3" y="92" class="st0" width="4.6" height="23.5"/>
<rect x="326.8" y="92.4" class="st0" width="4.9" height="23.5"/>
<rect x="326" y="120.1" class="st0" width="5.7" height="11.8"/>
<rect x="309.3" y="120.1" class="st0" width="5.3" height="11"/>
<polyline class="st0" points="263.4,142.5 263.4,128.9 288.8,128.9 288.8,109.5 273.2,109.5 273.2,103 288.8,103 288.8,74.2 
	405.2,74.2 "/>
<path class="st0" d="M288.8,128.9h9.9V84.4H386V97c0,0,0.8,4.3,4.6,4.6c3,0.2,3-4.2,3-4.2V86l-5.1-11.6"/>
<line class="st0" x1="382.4" y1="74.6" x2="382.2" y2="84.8"/>
<line class="st0" x1="370.1" y1="73.9" x2="370.1" y2="84.8"/>
<line class="st0" x1="345.8" y1="73.9" x2="345.8" y2="84.8"/>
<line class="st0" x1="327.5" y1="73.9" x2="327.5" y2="84.8"/>
<polygon class="st0" points="343.1,93.2 343.1,133 348.8,133 348.8,121.6 354.5,121.6 354.5,116.7 349.2,116.7 349.2,92.8 "/>
<path class="st0" d="M346.1,254.5h5.3v-99.1H394v8.7h17.8v-3h44.8v8h30v-5.3h8.4c0,0,8-28.9,38-28.9c30,0,33.4,30.8,33.4,30.8h5.7
	v11h31.9v-3.8h43.3v6.5h16.3v-4.9h16.7v-8h-8v-29.6h-8.7v28.5h-15.9v-4.6h-8.4l-7,7h-7.4v-4h-11.4v-5.3h-9.5v4.6h-23.2
	c0,0-8.4-16.3-18.2-23.9V127h-57v8.4l-19.4,14.8v6.8h-22.4v-6.8h-15.6v4.9h-17.1v-4.9h-6.8v-4.6h-10.3v3.8h-19V108h-8.4v8.4h-4.2
	v4.6h3.4v23.9h-35.7v-7.2h-6.5v4.9h-11v-5.7h-6.5v5.3h-64.9c0,0,9.9,4.6,13.7,10.6h68.7v19H337v15.6h7.6L346.1,254.5z"/>
<rect x="365.5" y="146.7" class="st0" width="11" height="6.5"/>
<polyline class="st0" points="405.4,151.6 405.4,59 437.6,58.6 438,27.1 "/>
<polyline class="st0" points="405.4,69.6 447.5,69.6 447.5,37.4 "/>
<line class="st15" x1="447.5" y1="64.7" x2="594.1" y2="64.7"/>
<g>
	<path class="st4" d="M539.9,37.5l-94.1,0c0,0,3.2-5.8,5.1-6.1c19.9-3.2,90.6,0,90.6,0l65.3,39.1l-1.7,1.2L539.9,37.5L539.9,37.5z"
		/>
</g>
<polygon class="st3" points="664.2,117.3 664.2,130.8 671.2,130.8 671.2,121.6 676.5,121.6 676.5,115.9 664.3,115.9 "/>
<polygon class="st3" points="613.1,210.5 613.4,197.2 603.9,197.2 603.9,188.5 574,187.7 574,213.5 563.7,242 574.3,243.5 
	584.6,220.4 584.2,213.1 593.3,221.9 599.4,210.1 "/>
<path class="st3" d="M458.2,174.2h31.3V198l-4.7,4.7c0,0-5.7,4.2-5.7,7.4c0,0-11-11.2-29-7.8l-0.6-9.1h8.9L458.2,174.2z"/>
<line class="st16" x1="430.7" y1="193.7" x2="435.2" y2="208.4"/>
<line class="st16" x1="419.4" y1="199.1" x2="426.7" y2="211.6"/>
<line class="st16" x1="398.9" y1="229.2" x2="411.4" y2="230.1"/>
<rect x="336.1" y="384.6" class="st16" width="8.6" height="10.1"/>
<polygon class="st17" points="538.3,591.3 538.3,613.7 555.3,613.7 555.3,597 "/>
<rect x="538.3" y="605.4" class="st18" width="15.6" height="7.2"/>
<path class="st16" d="M607.7,559.8L569,544.2v47.1h28.9l-0.4-8.4h10.3V559.8z M603.2,566.6h-28.1v-12.9l28.1,8.7V566.6z"/>
<line class="st16" x1="631.3" y1="216.6" x2="637.4" y2="207.6"/>
<line class="st16" x1="646.9" y1="240.1" x2="657.6" y2="239.3"/>
<polyline class="st16" points="661.3,715.1 661.3,796.3 674.6,796.3 674.6,715.1 "/>
<path class="st16" d="M670.4,797.1c-0.8,1.1,0,4.2,0,4.2H703v-4.9h11v-4.6h-4.9L711,769h-10.3v21.6l-26.2-0.8h-12.9"/>
<polygon class="st16" points="702.3,654 702.3,666.5 697.9,670.9 693.6,670.9 693.6,680.2 699.2,680.2 699.2,708.2 693.2,708.2 
	693.2,717.4 700.4,717.4 700.4,769 711,769 711,654.3 "/>
<path class="st16" d="M711,766.3h53.9v-15.2H741c0,0,3.4,6-3.4,6.2c-6.6,0.2-3.8-7-3.8-7h-23.5"/>
<polyline class="st16" points="710.3,742.8 764.9,742.8 764.9,695.3 746.3,695.3 "/>
<polyline class="st16" points="709.1,725.7 745.6,725.7 745.6,693.1 741,688.1 709.1,688.1 "/>
<path class="st16" d="M709.9,671.8h83.5c0,0,11.4,1.9,11.4-6.5c0,0-0.8-3-4.9-4.2v-8.4h-6.5v10.6h-83.2"/>
<path class="st16" d="M908.8,579.9v-22.4h-5.3c-2.7,7.6-8.9,14.6-8.9,14.6l4,4v12.2c-5.3,4.6-9.9,4.6-9.9,4.6
	c-5.7-0.4-10.6-6.1-10.6-6.1c-1.9,0-10.3,7.2-10.3,7.2v6.8h31.5V616h-33.4v7.2h-12.5V616h-34.2v-15.2h34.2v-6.1
	c-0.4-5.3-12.5-9.1-12.5-9.1c-1.5,1.5-6.5,3-6.5,3c-8.7,0.4-12.5-6.1-12.5-6.1c-3.8-2.3-8,0.8-8,0.8v37.2H738v-11h-7.6v2.7h-4.6v7.6
	h4.9v6.8h-2.7v8.4h37.6v-6.1h6.8v5.3h20.9v18.6h8v-21.6h106.7v-45.6h-4.9v-5.7H908.8z"/>
<path class="st16" d="M814.7,556v20.5c0,0,5.7,1.5,12.5-4.9c0,0-5.3-14-7.2-15.2L814.7,556z"/>
<polygon class="st16" points="814.7,526.4 814.7,544.2 819.2,544.2 828.3,532.5 828.3,530.6 822.6,526 "/>
<path class="st16" d="M903.1,551.1h6.1v-21.6h-7.6l-5.9,5.9C895.7,535.3,902.8,544.6,903.1,551.1z"/>
<path class="st16" d="M903.1,551.1"/>
<path class="st16" d="M908.5,524.5v-18.2H894v9.5c0,0,5.3,1.9,7.6,7.2L908.5,524.5z"/>
<path class="st16" d="M882.6,519.5c0,0-2.3-3.8-9.1-5.3c0,0-3.4-12.5-10.3-11.8c0,0-7.6-1.9-11.8,11c0,0-4.2,4.6-9.1,2.3
	c0,0-2.7-3.4-9.9-2.3c-7.2,1.1-1.5,0-1.5,0s-5.7,0.4-7.6,5.7H815v-17.8H850l3.6-3.6h18.8v4.7h14.4V515
	C886.8,515,882.3,517.3,882.6,519.5z"/>
<rect x="831.4" y="505.9" class="st4" width="6.1" height="4.9"/>
<line class="st16" x1="885.7" y1="508.2" x2="894.8" y2="508.2"/>
<line class="st16" x1="885.7" y1="514.2" x2="894.8" y2="514.2"/>
<line class="st16" x1="810.5" y1="545" x2="810.5" y2="554.5"/>
<path class="st4" d="M849.2,458.8v41.8h25.1v-41.8H849.2z M861.8,499.2c-3,0-5.5-7.6-5.5-16.9c0-9.3,2.5-16.9,5.5-16.9
	c3,0,5.5,7.6,5.5,16.9C867.3,491.7,864.8,499.2,861.8,499.2z"/>
<polygon class="st0" points="854.2,458.8 802.5,458.8 802.5,466 820,466 820,500.9 814.7,500.9 814.7,474 777.8,474 777.8,461.1 
	782.8,461.1 782.8,465.6 796.1,465.6 796.1,449.7 851.5,449.7 "/>
<polygon class="st9" points="700.8,458.8 700.8,468.7 709.5,468.7 709.5,477.4 728.9,477.4 735.7,470.6 735.7,459.2 "/>
<polygon class="st9" points="693.9,164.9 693.9,177.5 710.3,177.5 710.3,181.6 722.8,181.6 722.8,177.1 730.8,177.1 730.8,190.7 
	724.7,190.7 724.7,203.3 730.8,203.3 730.8,270.9 726.6,270.9 726.6,278.8 720.5,278.8 720.5,272 712.2,272 712.2,282.6 
	703.8,282.6 703.8,297.4 710.3,297.4 710.3,305 732.7,305 732.7,311.9 713.7,311.9 713.7,319.5 699.2,319.5 699.2,331.2 
	731.5,331.2 731.5,375.6 727,375.6 727,386.7 732.7,386.7 732.7,391.6 744.4,391.6 744.4,310.7 737.6,310.7 737.6,305.8 
	745.6,305.8 745.6,221.1 741.8,221.1 741.8,216.2 746.3,216.2 746.3,191.9 741,191.9 741,187.3 746.7,187.3 746.7,166.1 
	733.8,166.1 733.8,171.4 729.6,171.4 729.6,166.1 "/>
<line class="st9" x1="800.2" y1="247.7" x2="800.2" y2="252.6"/>
<line class="st9" x1="806.3" y1="247.7" x2="806.3" y2="252.6"/>
<polygon class="st9" points="699.2,331.2 699.2,384.8 714.1,384.8 714.1,411 700.8,411 700.8,454.2 704.2,454.2 704.2,415.5 
	718.6,415.5 718.6,377.2 706.5,377.2 706.5,331.2 "/>
<line class="st9" x1="708.9" y1="377.2" x2="708.7" y2="384"/>
<rect x="710.6" y="404.4" class="st9" width="7.2" height="11"/>
<path class="st9" d="M708.4,492.6v-4.2h25.4v-14h-4.9l5.1-5.1v-53h-6.3v-13.7l3.6-3.6v-7.4h4.4v6.8h10.3v21.6c0,0-0.8,2.1-2.1,2.1
	c-1.3,0,0,38.5,0,38.5l-2.8,2.8V477l-3.8,3.8v42.7l-7.3,0.2l0.4-3.4l-2.5-2.5c0,0,2.5-13.9,0-13.9c-2.5,0-10.4,0-10.4,0v9.5h-8.4
	v-9.1h-9.5v-11.8H708.4z"/>
<rect x="734.2" y="424.6" class="st4" width="8.4" height="9.1"/>
<rect x="734.2" y="439.8" class="st4" width="8" height="9.1"/>
<rect x="730" y="547.6" class="st0" width="7.2" height="9.9"/>
<rect x="730.8" y="573.1" class="st0" width="6.1" height="9.1"/>
<rect x="730.9" y="593.5" class="st0" width="6.5" height="11.4"/>
<line class="st9" x1="738" y1="609.5" x2="737.1" y2="522.1"/>
<line class="st9" x1="730" y1="523.7" x2="730.6" y2="610.2"/>
<polyline class="st0" points="736.8,518 782,518 782,525.2 804.4,525.2 804.4,513.9 779.7,513.9 779.7,504.4 746.3,504.4 
	736.4,514.6 "/>
<polyline class="st0" points="746.3,504.4 734,492 806.3,492 806.3,499.8 752.8,499.8 752.8,491.8 "/>
<circle class="st0" cx="780.5" cy="520.3" r="4"/>
<line class="st0" x1="782" y1="525.2" x2="782" y2="543.5"/>
<line class="st0" x1="777.1" y1="542.3" x2="785.8" y2="542.3"/>
<line class="st0" x1="776.7" y1="556" x2="785.8" y2="556"/>
<line class="st0" x1="781.3" y1="555.2" x2="781.3" y2="574.2"/>
<polyline class="st0" points="738.4,595.9 798,595.9 798,625.1 "/>
<rect x="744.8" y="608" class="st0" width="40.6" height="4.6"/>
<line class="st0" x1="780.9" y1="572.7" x2="780.9" y2="595.1"/>
<line class="st0" x1="791.9" y1="595.5" x2="791.9" y2="626.2"/>
<line class="st0" x1="792.3" y1="605" x2="797.6" y2="605"/>
<line class="st0" x1="791.9" y1="613.7" x2="797.6" y2="613.7"/>
<line class="st0" x1="777.8" y1="474" x2="738.7" y2="474"/>
<polyline class="st0" points="769.1,474 769.1,461.5 762.7,461.5 762.7,474.4 "/>
<polyline class="st0" points="753.9,474 753.9,460.7 741,460.7 "/>
<line class="st0" x1="822.6" y1="516.5" x2="822.6" y2="529.4"/>
<line class="st0" x1="821.1" y1="572.7" x2="821.1" y2="586.4"/>
<rect x="723.2" y="588.6" class="st0" width="6.8" height="6.8"/>
<polygon class="st19" points="1062.2,882.9 1061.2,842.2 1038.7,863.1 "/>
<polygon class="st19" points="1099.8,691.5 1098.8,650.8 1120.7,670.7 "/>
<line class="st3" x1="437.6" y1="58.6" x2="447.6" y2="58.7"/>
<path class="st13" d="M203.9,203.4c-2-3.9-3.5-8.1-4.3-12.6H195c0.8,5.6,2.7,10.9,5.3,15.7C201.6,205.5,202.7,204.4,203.9,203.4z"/>
<path class="st13" d="M212.2,214.3c-1.1,1.1-2.3,2.1-3.5,2.9c6.1,5.9,13.8,10.1,22.3,12c0.1-1.5,0.3-3.1,0.4-4.6
	C224.1,223,217.5,219.3,212.2,214.3z"/>
<path class="st13" d="M242.5,230.3c7.1-0.2,13.8-2,19.8-5.1c-1-1.2-2.1-2.4-3.2-3.5c-5.1,2.4-10.7,3.9-16.6,4.1
	C242.3,227.3,242.3,228.8,242.5,230.3z"/>
<path class="st13" d="M279.1,201.3c-2.6,5.6-6.3,10.5-10.9,14.4c1.2,1,2.4,2,3.6,2.9c4.7-4.2,8.5-9.3,11.3-15
	C281.7,202.9,280.4,202.1,279.1,201.3z"/>
<path class="st13" d="M255.2,139.7c-0.2,1.5-0.4,3.1-0.6,4.6c7.1,2.4,13.4,6.7,18.2,12.3c1.2-1,2.4-1.9,3.5-2.9
	C270.7,147.2,263.4,142.3,255.2,139.7z"/>
<path class="st13" d="M279.3,166.9c2.3,5.2,3.6,11,3.6,17c0,3-0.3,5.9-0.9,8.7c1.4,0.6,2.8,1.3,4.2,1.9c0.8-3.4,1.2-7,1.2-10.6
	c0-6.7-1.4-13.1-4-18.8C282.1,165.7,280.7,166.3,279.3,166.9z"/>
<path class="st13" d="M210.1,149.3c-1.7,1.6-3.4,3.2-4.9,5c1.4,0.7,2.8,1.5,4.2,2.2c1.3-1.5,2.7-2.9,4.2-4.2
	C212.4,151.2,211.2,150.2,210.1,149.3z"/>
<path class="st13" d="M199.2,163.5c-2.1,4.2-3.5,8.8-4.2,13.6h4.6c0.7-4.2,2-8.1,3.8-11.8C202.1,164.6,200.7,164,199.2,163.5z"/>
<path class="st13" d="M241.3,142c0.1-1.5,0.1-3,0.1-4.6c-0.1,0-0.3,0-0.4,0c-5.9,0-11.5,1.1-16.7,3.1c0.7,1.3,1.5,2.7,2.2,4
	c4.5-1.7,9.4-2.6,14.5-2.6C241.1,142,241.2,142,241.3,142z"/>
<path class="st5" d="M1121.8,883.3v41c0,16.8-13.6,30.4-30.4,30.4H49.6"/>
<line class="st5" x1="1121.8" y1="822.9" x2="1121.8" y2="845.3"/>
<line class="st3" x1="660.7" y1="779" x2="674.8" y2="779"/>
<line class="st3" x1="660.7" y1="766.8" x2="674.8" y2="766.8"/>
<line class="st3" x1="660.7" y1="754.7" x2="674.8" y2="754.7"/>
<line class="st3" x1="660.7" y1="742.5" x2="674.8" y2="742.5"/>
<line class="st3" x1="660.7" y1="730.4" x2="674.8" y2="730.4"/>
<g>
	<path class="st4" d="M174.8,710.1L174.8,710.1l-3.5,1.9l-0.5-2l4.3-2.3h2.3v19.8h-2.6V710.1z"/>
	<path class="st4" d="M188.2,717c-2.2-1-3.1-2.7-3.1-4.4c0-3.1,2.6-5.3,6.1-5.3c3.8,0,5.7,2.4,5.7,4.9c0,1.7-0.8,3.5-3.3,4.6v0.1
		c2.5,1,4,2.7,4,5.1c0,3.4-2.9,5.7-6.7,5.7c-4.1,0-6.6-2.5-6.6-5.4C184.3,719.8,185.8,718.1,188.2,717L188.2,717z M194.9,722.2
		c0-2.4-1.7-3.6-4.3-4.3c-2.3,0.7-3.6,2.2-3.6,4.1c-0.1,2,1.4,3.8,4,3.8C193.4,725.7,194.9,724.2,194.9,722.2z M187.6,712.3
		c0,2,1.5,3,3.8,3.6c1.7-0.6,3-1.8,3-3.6c0-1.6-0.9-3.2-3.3-3.2C188.8,709.2,187.6,710.6,187.6,712.3z"/>
</g>
<g>
	<path class="st4" d="M297.3,676.2L297.3,676.2l-3.5,1.9l-0.5-2l4.3-2.3h2.3v19.8h-2.6V676.2z"/>
	<path class="st4" d="M318.8,675.9h-7.5l-0.8,5.1c0.5-0.1,0.9-0.1,1.6-0.1c1.5,0,3,0.3,4.3,1.1c1.6,0.9,2.8,2.6,2.8,5.1
		c0,3.9-3.1,6.7-7.4,6.7c-2.2,0-4-0.6-4.9-1.2l0.7-2c0.8,0.5,2.4,1.1,4.2,1.1c2.5,0,4.7-1.6,4.7-4.3c0-2.6-1.7-4.4-5.7-4.4
		c-1.1,0-2,0.1-2.7,0.2l1.3-9.5h9.5V675.9z"/>
</g>
<g>
	<path class="st4" d="M202.3,590.2v-1.6l2.1-2c5-4.8,7.3-7.4,7.4-10.3c0-2-1-3.9-3.9-3.9c-1.8,0-3.3,0.9-4.2,1.7l-0.9-1.9
		c1.4-1.2,3.3-2,5.6-2c4.3,0,6.1,2.9,6.1,5.7c0,3.6-2.6,6.6-6.8,10.6l-1.6,1.5v0.1h8.9v2.2H202.3z"/>
	<path class="st4" d="M221.6,579.8c-2.2-1-3.1-2.7-3.1-4.4c0-3.1,2.6-5.3,6.1-5.3c3.8,0,5.7,2.4,5.7,4.9c0,1.7-0.8,3.5-3.3,4.6v0.1
		c2.5,1,4,2.7,4,5.1c0,3.4-2.9,5.7-6.7,5.7c-4.1,0-6.6-2.5-6.6-5.3C217.7,582.7,219.2,580.9,221.6,579.8L221.6,579.8z M228.3,585
		c0-2.4-1.7-3.6-4.3-4.3c-2.3,0.7-3.6,2.2-3.6,4.1c-0.1,2,1.4,3.8,4,3.8C226.8,588.6,228.3,587,228.3,585z M221,575.1
		c0,2,1.5,3,3.8,3.6c1.7-0.6,3-1.8,3-3.6c0-1.6-0.9-3.2-3.3-3.2C222.2,572,221,573.4,221,575.1z"/>
</g>
<g>
	<path class="st4" d="M242.6,449.4L242.6,449.4l-3.5,1.9l-0.5-2l4.3-2.3h2.3v19.8h-2.6V449.4z"/>
	<path class="st4" d="M258.2,449.4L258.2,449.4l-3.5,1.9l-0.5-2l4.3-2.3h2.3v19.8h-2.6V449.4z"/>
</g>
<g>
	<path class="st4" d="M455.5,392.7v-1.6l2.1-2c5-4.8,7.3-7.4,7.4-10.3c0-2-1-3.9-3.9-3.9c-1.8,0-3.3,0.9-4.2,1.7l-0.9-1.9
		c1.4-1.2,3.3-2,5.6-2c4.3,0,6,2.9,6,5.7c0,3.6-2.6,6.6-6.8,10.6l-1.6,1.5v0.1h8.9v2.2H455.5z"/>
	<path class="st4" d="M482.9,375.2h-7.5l-0.8,5.1c0.5-0.1,0.9-0.1,1.6-0.1c1.5,0,3,0.3,4.3,1.1c1.6,0.9,2.8,2.6,2.8,5.1
		c0,3.9-3.1,6.8-7.4,6.8c-2.2,0-4-0.6-4.9-1.2l0.7-2c0.8,0.5,2.4,1.1,4.2,1.1c2.5,0,4.7-1.6,4.7-4.3c0-2.6-1.7-4.4-5.7-4.4
		c-1.1,0-2,0.1-2.7,0.2l1.3-9.5h9.5V375.2z"/>
</g>
<g>
	<path class="st4" d="M524.1,332.9L524.1,332.9l-3.5,1.9l-0.5-2l4.3-2.3h2.3v19.8h-2.6V332.9z"/>
	<path class="st4" d="M545.1,332.3c-0.5,0-1.2,0-2,0.1c-4.2,0.7-6.4,3.8-6.9,7h0.1c0.9-1.2,2.6-2.3,4.8-2.3c3.5,0,6,2.5,6,6.4
		c0,3.6-2.5,7-6.6,7c-4.2,0-7-3.3-7-8.4c0-3.9,1.4-7,3.3-8.9c1.6-1.6,3.8-2.6,6.3-2.9c0.8-0.1,1.5-0.2,1.9-0.2V332.3z M540.5,348.5
		c2.3,0,3.8-1.9,3.8-4.7c0-2.8-1.6-4.5-4.1-4.5c-1.6,0-3.1,1-3.8,2.4c-0.2,0.3-0.3,0.7-0.3,1.2C536.2,346.1,537.7,348.5,540.5,348.5
		L540.5,348.5z"/>
</g>
<line class="st20" x1="304.3" y1="61.7" x2="280" y2="23.2"/>
<g>
	<path class="st4" d="M520.3,169v-1.6l2.1-2c5-4.8,7.3-7.4,7.4-10.3c0-2-1-3.9-3.9-3.9c-1.8,0-3.3,0.9-4.2,1.7l-0.9-1.9
		c1.4-1.2,3.3-2,5.6-2c4.3,0,6.1,2.9,6.1,5.7c0,3.6-2.6,6.6-6.8,10.6l-1.6,1.5v0.1h8.9v2.2H520.3z"/>
	<path class="st4" d="M541.7,151.7L541.7,151.7l-3.5,1.9l-0.5-2l4.3-2.3h2.3V169h-2.6V151.7z"/>
</g>
<g>
	<path class="st4" d="M602.3,253v-1.6l2.1-2c5-4.8,7.3-7.4,7.4-10.3c0-2-1-3.9-3.9-3.9c-1.8,0-3.3,0.9-4.2,1.7l-0.9-1.9
		c1.4-1.2,3.3-2,5.6-2c4.3,0,6.1,2.9,6.1,5.7c0,3.6-2.6,6.6-6.8,10.6l-1.6,1.5v0.1h8.9v2.2H602.3z"/>
	<path class="st4" d="M618.5,249.9c0.8,0.5,2.5,1.2,4.4,1.2c3.4,0,4.5-2.2,4.5-3.8c0-2.8-2.5-4-5.1-4h-1.5v-2h1.5
		c1.9,0,4.4-1,4.4-3.3c0-1.6-1-3-3.5-3c-1.6,0-3.1,0.7-4,1.3l-0.7-1.9c1-0.8,3-1.5,5.2-1.5c3.9,0,5.7,2.3,5.7,4.7
		c0,2-1.2,3.8-3.6,4.7v0.1c2.4,0.5,4.4,2.3,4.4,5.1c0,3.2-2.5,5.9-7.2,5.9c-2.2,0-4.2-0.7-5.1-1.3L618.5,249.9z"/>
</g>
<g>
	<path class="st4" d="M447.1,747L447.1,747l-3.5,1.9l-0.5-2l4.3-2.3h2.3v19.8h-2.6V747z"/>
	<path class="st4" d="M469.7,744.6v1.8l-8.6,18h-2.8l8.6-17.5v-0.1h-9.7v-2.2H469.7z"/>
</g>
<g>
	<path class="st4" d="M451.4,232.8v-1.6l2.1-2c5-4.8,7.3-7.4,7.4-10.3c0-2-1-3.9-3.9-3.9c-1.8,0-3.3,0.9-4.2,1.7l-0.9-1.9
		c1.4-1.2,3.3-2,5.6-2c4.3,0,6.1,2.9,6.1,5.7c0,3.6-2.6,6.6-6.8,10.6l-1.6,1.5v0.1h8.9v2.2H451.4z"/>
	<path class="st4" d="M467,232.8v-1.6l2.1-2c5-4.8,7.3-7.4,7.4-10.3c0-2-1-3.9-3.9-3.9c-1.8,0-3.3,0.9-4.2,1.7l-0.9-1.9
		c1.4-1.2,3.3-2,5.6-2c4.3,0,6.1,2.9,6.1,5.7c0,3.6-2.6,6.6-6.8,10.6l-1.6,1.5v0.1h8.9v2.2H467z"/>
</g>
<g>
	<path class="st4" d="M444.3,528.4v-1.6l2.1-2c5-4.8,7.3-7.4,7.4-10.3c0-2-1-3.9-3.9-3.9c-1.8,0-3.3,0.9-4.2,1.7l-0.9-1.9
		c1.4-1.2,3.3-2,5.6-2c4.3,0,6.1,2.9,6.1,5.7c0,3.6-2.6,6.6-6.8,10.6l-1.6,1.5v0.1h8.9v2.2H444.3z"/>
	<path class="st4" d="M471.2,510.5c-0.5,0-1.2,0-2,0.1c-4.2,0.7-6.4,3.8-6.9,7h0.1c0.9-1.2,2.6-2.3,4.8-2.3c3.5,0,6,2.5,6,6.4
		c0,3.6-2.5,7-6.6,7c-4.2,0-7-3.3-7-8.4c0-3.9,1.4-7,3.3-8.9c1.6-1.6,3.8-2.6,6.3-2.9c0.8-0.1,1.5-0.2,1.9-0.2V510.5z M466.6,526.7
		c2.3,0,3.8-1.9,3.8-4.7c0-2.8-1.6-4.5-4.1-4.5c-1.6,0-3.1,1-3.8,2.4c-0.2,0.3-0.3,0.7-0.3,1.2C462.3,524.3,463.8,526.7,466.6,526.7
		L466.6,526.7z"/>
</g>
<g>
	<path class="st4" d="M579,526.4v-1.6l2.1-2c5-4.8,7.3-7.4,7.4-10.3c0-2-1-3.9-3.9-3.9c-1.8,0-3.3,0.9-4.2,1.7l-0.8-1.9
		c1.4-1.2,3.3-2,5.6-2c4.3,0,6.1,2.9,6.1,5.8c0,3.6-2.6,6.6-6.8,10.6l-1.6,1.5v0.1h8.9v2.2H579z"/>
	<path class="st4" d="M605.9,508.5c-0.6,0-1.2,0-2,0.1c-4.2,0.7-6.4,3.8-6.9,7h0.1c0.9-1.3,2.6-2.3,4.8-2.3c3.5,0,6,2.5,6,6.4
		c0,3.6-2.5,7-6.6,7c-4.2,0-7-3.3-7-8.4c0-3.9,1.4-7,3.3-8.9c1.6-1.6,3.8-2.6,6.3-2.9c0.8-0.1,1.5-0.2,1.9-0.2V508.5z M601.3,524.7
		c2.3,0,3.8-1.9,3.8-4.7c0-2.8-1.6-4.5-4.1-4.5c-1.6,0-3.1,1-3.8,2.4c-0.2,0.3-0.3,0.7-0.3,1.2C596.9,522.3,598.4,524.7,601.3,524.7
		L601.3,524.7z"/>
</g>
<g>
	<path class="st4" d="M721.5,144.6L721.5,144.6l-3.5,1.9l-0.5-2l4.3-2.3h2.3v19.8h-2.6V144.6z"/>
	<path class="st4" d="M743.1,144.4h-7.5l-0.8,5.1c0.5-0.1,0.9-0.1,1.6-0.1c1.5,0,3,0.3,4.3,1.1c1.5,0.9,2.8,2.6,2.8,5.1
		c0,3.9-3.1,6.8-7.4,6.8c-2.2,0-4-0.6-4.9-1.2l0.7-2c0.8,0.5,2.4,1.1,4.2,1.1c2.5,0,4.7-1.6,4.7-4.3c0-2.6-1.7-4.4-5.7-4.4
		c-1.1,0-2,0.1-2.7,0.2l1.3-9.5h9.5V144.4z"/>
</g>
<g>
	<path class="st4" d="M1036.4,721.7L1036.4,721.7l-3.5,1.9l-0.5-2l4.3-2.3h2.3V739h-2.6V721.7z"/>
</g>
<g>
	<path class="st4" d="M942.5,751.2v-1.6l2.1-2c5-4.8,7.3-7.4,7.4-10.3c0-2-1-3.9-3.9-3.9c-1.8,0-3.3,0.9-4.2,1.7l-0.8-1.9
		c1.4-1.2,3.3-2,5.6-2c4.3,0,6,2.9,6,5.7c0,3.6-2.6,6.6-6.8,10.6l-1.6,1.5v0.1h8.9v2.2H942.5z"/>
</g>
<g>
	<path class="st4" d="M1138.8,599.8c0.8,0.5,2.5,1.3,4.4,1.3c3.4,0,4.5-2.2,4.5-3.8c0-2.8-2.5-4-5.1-4h-1.5v-2h1.5
		c1.9,0,4.4-1,4.4-3.3c0-1.6-1-3-3.5-3c-1.6,0-3.1,0.7-4,1.3l-0.7-1.9c1-0.8,3-1.5,5.2-1.5c3.9,0,5.7,2.3,5.7,4.7
		c0,2-1.2,3.8-3.6,4.7v0.1c2.4,0.5,4.4,2.3,4.4,5.1c0,3.2-2.5,5.9-7.2,5.9c-2.2,0-4.2-0.7-5.1-1.3L1138.8,599.8z"/>
</g>
<line class="st20" x1="1098" y1="601.3" x2="1136.5" y2="596.2"/>
<g>
	<path class="st4" d="M954.8,620.5v-5.4h-9.2v-1.8l8.8-12.6h2.9v12.3h2.8v2.1h-2.8v5.4H954.8z M954.8,613.1v-6.6c0-1,0-2.1,0.1-3.1
		h-0.1c-0.6,1.2-1.1,2-1.6,2.9l-4.8,6.7v0.1H954.8z"/>
</g>
<g>
	<path class="st4" d="M819.7,733.9L819.7,733.9l-3.5,1.9l-0.5-2l4.3-2.3h2.3v19.8h-2.6V733.9z"/>
	<path class="st4" d="M837.7,751.2v-5.4h-9.2V744l8.8-12.6h2.9v12.3h2.8v2.1h-2.8v5.4H837.7z M837.7,743.7v-6.6c0-1,0-2.1,0.1-3.1
		h-0.1c-0.6,1.2-1.1,2-1.6,2.9l-4.8,6.7v0.1H837.7z"/>
</g>
<g>
	<path class="st4" d="M719.5,699.5L719.5,699.5l-3.5,1.9l-0.5-2l4.3-2.3h2.3v19.8h-2.6V699.5z"/>
	<path class="st4" d="M741,699.2h-7.5l-0.8,5.1c0.5-0.1,0.9-0.1,1.6-0.1c1.5,0,3,0.3,4.3,1.1c1.5,0.9,2.8,2.6,2.8,5.1
		c0,3.9-3.1,6.7-7.4,6.7c-2.2,0-4-0.6-4.9-1.2l0.7-2c0.8,0.5,2.4,1.1,4.2,1.1c2.5,0,4.7-1.6,4.7-4.3c0-2.6-1.7-4.4-5.7-4.4
		c-1.1,0-2,0.1-2.7,0.2l1.3-9.5h9.5V699.2z"/>
</g>
<g>
	<path class="st4" d="M852.1,542.5L852.1,542.5l-3.5,1.9l-0.5-2l4.3-2.3h2.3v19.8h-2.6V542.5z"/>
	<path class="st4" d="M862.5,556.7c0.8,0.5,2.5,1.3,4.4,1.3c3.4,0,4.5-2.2,4.5-3.8c0-2.8-2.5-4-5.1-4h-1.5v-2h1.5
		c1.9,0,4.4-1,4.4-3.3c0-1.6-1-3-3.5-3c-1.6,0-3.1,0.7-4,1.3l-0.7-1.9c1-0.8,3-1.5,5.2-1.5c3.9,0,5.7,2.3,5.7,4.7
		c0,2-1.2,3.8-3.6,4.7v0.1c2.4,0.5,4.4,2.3,4.4,5.1c0,3.2-2.5,5.9-7.2,5.9c-2.2,0-4.2-0.7-5.1-1.3L862.5,556.7z"/>
</g>
<g>
	<path class="st4" d="M1062.1,419.4c-0.5,0-1.2,0-2,0.1c-4.2,0.7-6.4,3.8-6.9,7h0.1c0.9-1.2,2.6-2.3,4.8-2.3c3.5,0,6,2.5,6,6.4
		c0,3.6-2.5,7-6.6,7c-4.2,0-7-3.3-7-8.4c0-3.9,1.4-7,3.3-8.9c1.6-1.6,3.8-2.6,6.3-2.9c0.8-0.1,1.5-0.2,1.9-0.2V419.4z M1057.5,435.6
		c2.3,0,3.8-1.9,3.8-4.7c0-2.8-1.6-4.5-4.1-4.5c-1.6,0-3.1,1-3.8,2.4c-0.2,0.3-0.3,0.7-0.3,1.2
		C1053.2,433.2,1054.7,435.6,1057.5,435.6L1057.5,435.6z"/>
</g>
<g>
	<path class="st4" d="M984.7,308.2v1.8l-8.6,18h-2.8l8.6-17.5v-0.1h-9.7v-2.2H984.7z"/>
</g>
<g>
	<path class="st4" d="M1004.8,183.9c-2.2-1-3.1-2.7-3.1-4.4c0-3.1,2.6-5.3,6.1-5.3c3.8,0,5.7,2.4,5.7,4.9c0,1.7-0.8,3.5-3.3,4.6v0.1
		c2.5,1,4,2.7,4,5.1c0,3.4-3,5.7-6.7,5.7c-4.1,0-6.6-2.5-6.6-5.4C1001,186.8,1002.4,185,1004.8,183.9L1004.8,183.9z M1011.6,189.2
		c0-2.4-1.7-3.6-4.3-4.3c-2.3,0.7-3.6,2.2-3.6,4.1c-0.1,2,1.4,3.8,4,3.8C1010,192.7,1011.6,191.2,1011.6,189.2z M1004.2,179.3
		c0,2,1.5,3,3.8,3.6c1.7-0.6,3-1.8,3-3.6c0-1.6-0.9-3.2-3.3-3.2C1005.5,176.1,1004.2,177.6,1004.2,179.3z"/>
</g>
<g>
	<path class="st4" d="M1089.4,160c0.6,0.1,1.2,0,2.2-0.1c1.5-0.2,3-0.9,4.1-1.9c1.3-1.2,2.2-2.9,2.6-5.3h-0.1
		c-1.1,1.3-2.7,2.1-4.7,2.1c-3.6,0-5.8-2.7-5.8-6c0-3.7,2.7-7,6.8-7c4,0,6.5,3.3,6.5,8.3c0,4.3-1.5,7.4-3.4,9.3
		c-1.5,1.5-3.6,2.4-5.7,2.6c-1,0.2-1.8,0.2-2.5,0.2V160z M1094.2,143.8c-2.2,0-3.9,2-3.9,4.8c0,2.5,1.5,4.2,3.8,4.2
		c1.8,0,3.2-0.9,3.9-2.1c0.1-0.2,0.2-0.5,0.2-1C1098.3,146.4,1097,143.8,1094.2,143.8L1094.2,143.8z"/>
</g>
<g>
	<path class="st4" d="M774.1,347L774.1,347l-3.5,1.9l-0.5-2l4.3-2.3h2.3v19.8h-2.6V347z"/>
	<path class="st4" d="M783.8,364.2v-1.6l2.1-2c5-4.8,7.3-7.4,7.4-10.3c0-2-1-3.9-3.9-3.9c-1.8,0-3.3,0.9-4.2,1.7l-0.8-1.9
		c1.4-1.2,3.3-2,5.6-2c4.3,0,6.1,2.9,6.1,5.7c0,3.6-2.6,6.6-6.8,10.6l-1.6,1.5v0.1h8.9v2.2H783.8z"/>
</g>
<g>
	<path class="st4" d="M852.7,222L852.7,222l-2.8,1.5l-0.4-1.6l3.4-1.8h1.8v15.8h-2.1V222z"/>
	<path class="st4" d="M871,227.7c0,5.4-2,8.3-5.5,8.3c-3.1,0-5.2-2.9-5.2-8.1c0-5.3,2.3-8.2,5.5-8.2
		C869.1,219.7,871,222.7,871,227.7z M862.4,228c0,4.1,1.3,6.4,3.2,6.4c2.2,0,3.2-2.5,3.2-6.6c0-3.9-1-6.4-3.2-6.4
		C863.8,221.4,862.4,223.7,862.4,228z"/>
</g>
<g>
	<path class="st4" d="M1043.6,505.9h-7.5l-0.8,5.1c0.5-0.1,0.9-0.1,1.6-0.1c1.5,0,3,0.3,4.3,1.1c1.5,0.9,2.8,2.6,2.8,5.1
		c0,3.9-3.1,6.8-7.4,6.8c-2.2,0-4-0.6-4.9-1.2l0.7-2c0.8,0.5,2.4,1.1,4.2,1.1c2.5,0,4.7-1.6,4.7-4.3c0-2.6-1.7-4.4-5.7-4.4
		c-1.1,0-2,0.1-2.7,0.2l1.3-9.5h9.5V505.9z"/>
</g>
<line class="st20" x1="1029.2" y1="505.1" x2="1001.3" y2="483.9"/>
<g>
	<path class="st4" d="M254.2,273.7L254.2,273.7l-3.5,1.9l-0.5-2l4.3-2.3h2.3V291h-2.6V273.7z"/>
	<path class="st4" d="M269.8,273.7L269.8,273.7l-3.5,1.9l-0.5-2l4.3-2.3h2.3V291h-2.6V273.7z"/>
</g>
<g>
	<path class="st4" d="M445.6,105.1L445.6,105.1l-3.5,1.9l-0.5-2l4.3-2.3h2.3v19.8h-2.6V105.1z"/>
	<path class="st4" d="M461.2,105.1L461.2,105.1l-3.5,1.9l-0.5-2l4.3-2.3h2.3v19.8h-2.6V105.1z"/>
</g>
<g>
	<path class="st4" d="M787.3,193.2L787.3,193.2l-3.5,1.9l-0.5-2l4.3-2.3h2.3v19.8h-2.6V193.2z"/>
	<path class="st4" d="M802.9,193.2L802.9,193.2l-3.5,1.9l-0.5-2l4.3-2.3h2.3v19.8h-2.6V193.2z"/>
</g>
<g>
	<path class="st4" d="M773.6,389.1L773.6,389.1l-3.5,1.9l-0.5-2l4.3-2.3h2.3v19.8h-2.6V389.1z"/>
	<path class="st4" d="M789.2,389.1L789.2,389.1l-3.5,1.9l-0.5-2l4.3-2.3h2.3v19.8h-2.6V389.1z"/>
</g>
<g>
	<path class="st4" d="M773.6,299.5L773.6,299.5l-3.5,1.9l-0.5-2l4.3-2.3h2.3v19.8h-2.6V299.5z"/>
	<path class="st4" d="M789.2,299.5L789.2,299.5l-3.5,1.9l-0.5-2l4.3-2.3h2.3v19.8h-2.6V299.5z"/>
</g>
<g>
	<path class="st4" d="M354.4,581.1v-1.6l2.1-2c5-4.8,7.3-7.4,7.4-10.3c0-2-1-3.9-3.9-3.9c-1.8,0-3.3,0.9-4.2,1.7l-0.9-1.9
		c1.4-1.2,3.3-2,5.6-2c4.3,0,6.1,2.9,6.1,5.7c0,3.6-2.6,6.6-6.8,10.6l-1.6,1.5v0.1h8.9v2.2H354.4z"/>
	<path class="st4" d="M382.8,561.3v1.8l-8.6,18h-2.8l8.6-17.5v-0.1h-9.7v-2.2H382.8z"/>
</g>
<g>
	<path class="st4" d="M573.1,310v-1.6l2.1-2c5-4.8,7.3-7.4,7.4-10.3c0-2-1-3.9-3.9-3.9c-1.8,0-3.3,0.9-4.2,1.7l-0.9-1.9
		c1.4-1.2,3.3-2,5.6-2c4.3,0,6.1,2.9,6.1,5.7c0,3.6-2.6,6.6-6.8,10.6l-1.6,1.5v0.1h8.9v2.2H573.1z"/>
	<path class="st4" d="M596.9,310v-5.4h-9.2v-1.8l8.8-12.6h2.9v12.3h2.8v2.1h-2.8v5.4H596.9z M596.9,302.5v-6.6c0-1,0-2.1,0.1-3.1
		h-0.1c-0.6,1.2-1.1,2-1.6,2.9l-4.8,6.7v0.1H596.9z"/>
</g>
<g>
	<path class="st4" d="M1030.6,640.5c0.8,0.5,2.5,1.2,4.4,1.2c3.4,0,4.5-2.2,4.5-3.8c0-2.8-2.5-4-5.1-4h-1.5v-2h1.5
		c1.9,0,4.4-1,4.4-3.3c0-1.6-1-3-3.5-3c-1.6,0-3.1,0.7-4,1.3l-0.7-1.9c1-0.8,3-1.5,5.2-1.5c3.9,0,5.7,2.3,5.7,4.7
		c0,2-1.2,3.8-3.6,4.7v0.1c2.4,0.5,4.4,2.3,4.4,5.1c0,3.2-2.5,5.9-7.2,5.9c-2.2,0-4.2-0.7-5.1-1.3L1030.6,640.5z"/>
	<path class="st4" d="M1058.7,633.4c0,6.7-2.5,10.4-6.9,10.4c-3.9,0-6.5-3.6-6.5-10.2c0-6.6,2.9-10.3,6.9-10.3
		C1056.3,623.4,1058.7,627.2,1058.7,633.4z M1048,633.7c0,5.1,1.6,8.1,4,8.1c2.7,0,4-3.2,4-8.2c0-4.9-1.2-8.1-4-8.1
		C1049.7,625.5,1048,628.4,1048,633.7z"/>
</g>
<line class="st16" x1="335.6" y1="354.9" x2="347.6" y2="354.9"/>
<line class="st0" x1="307.3" y1="424.1" x2="307.3" y2="435.3"/>
<line class="st3" x1="337" y1="171.8" x2="324.4" y2="171.8"/>
</svg>
