<?xml version="1.0" encoding="utf-8"?>
<!-- Generator: Adobe Illustrator 15.1.0, SVG Export Plug-In . SVG Version: 6.00 Build 0)  -->
<!DOCTYPE svg PUBLIC "-//W3C//DTD SVG 1.1//EN" "http://www.w3.org/Graphics/SVG/1.1/DTD/svg11.dtd">
<svg version="1.1" id="Layer_1" xmlns="http://www.w3.org/2000/svg" xmlns:xlink="http://www.w3.org/1999/xlink" x="0px" y="0px"
	 width="2056px" height="282px" viewBox="0 0 2056 282" enable-background="new 0 0 2056 282" xml:space="preserve">
<linearGradient id="SVGID_1_" gradientUnits="userSpaceOnUse" x1="1028.1587" y1="27.4551" x2="1028.1587" y2="270.8487">
	<stop  offset="0" style="stop-color:#FFCF2D"/>
	<stop  offset="1" style="stop-color:#FFE02A"/>
</linearGradient>
<path fill="url(#SVGID_1_)" d="M0,160.106c0,0,3.682-0.563,6.781,1.607c3.099,2.17,8.98,16.062,13.32,18.231s8.679,7.75,11.779,8.68
	c3.099,0.93,8.99-0.93,15.188,5.89s11.159,11.159,19.218,6.199c8.059-4.96,6.509-5.579,10.849-6.819
	c4.339-1.24,9.298-0.31,12.088-11.159c2.79-10.85,8.37-19.228,11.469-26.047c3.1-6.819,6.508-17.357,11.468,6.82
	c4.959,24.178,9.918,37.516,11.159,43.715s2.17,9.61,6.82,10.85s8.369,4.029,11.468,6.819c3.099,2.79,6.512,3.723,16.12,5.582
	c9.609,1.859,8.06,7.749,16.428,7.749s13.638,2.48,19.218,4.03s9.918,1.551,13.329-11.779c3.41-13.33,6.282-36.133,9.381-44.502
	c0,0,1.715-7.487,3.586-9.047c1.872-1.56,4.601-3.899,8.969-0.546c4.368,3.354,9.436,8.423,12.399,9.203
	c2.964,0.78,7.096,0.702,9.98,2.651c2.884,1.949,10.528,12.321,12.633,14.115c2.105,1.794,6.551,4.29,8.344-0.39
	c0,0,8.889-41.953,11.221-76.62c2.333-34.667,6.334-40.335,7.667-43.001c1.333-2.666,4-4.334,6,7s6.667,56.333,9,92
	c2.333,35.667,5.999,55.334,8.333,59.334s5.334,5.999,13.333-18.334s7.333-23.666,14-25.666c6.666-2,5.667-4.666,9.999-10
	c4.333-5.334,8.332-10.668,11.666-11.334s10-12,12.334-22.333c2.333-10.333,6.331-21.666,9.998-21.333s6.667,6.334,9.334,20.667
	c2.666,14.333,6.331,35.999,8.665,42.666s5.668,19.334,13.333,3.667s6.999-25.334,10.666-31.334c3.667-6,7-7.999,12.666-0.666
	c5.667,7.333,6.333,9.666,12,14.333c5.667,4.667,5.667-0.667,9,4.333c3.333,5,10.667,30.667,14.667,34.667s8.333,2.666,12-6.667
	c3.666-9.333,7.333-22.999,12-26.666c4.666-3.667,7.667-1.667,10-9.667s5.999-30.333,8.333-35.333c2.334-5,5.667-9.999,11.333-1.333
	s9.333,17.333,12.333,19.333c3,2,8,0.667,9.667,6s5.332,24.666,9.999,33.666s8,19.668,15.999-0.666c8-20.334,8-31.333,15-35
	s9.667-22,11.333-32c1.666-10,4.333-29.001,7.333-37.334c3-8.333,6.333-15,10,0.667s7.666,54.001,10.333,70.667
	c2.667,16.666,10,41.334,18,0c7.999-41.334,17.999-48.001,27.665,0.666c9.667,48.667,16.333,12,18.667-7
	c0,0,14.961-126.69,25.332,0.334c0,0,3.657,55.182,13.333,55.666c6.666,0.334,10.332-39.332,12.666-55.666c0,0,2-10,4-17
	c2-7,7-15.334,13,2.333s8,24.333,10.667,30.333s7.999,13.001,13.666-13.666c5.667-26.667,6-35.333,8.667-45
	c2.667-9.667,8.667-18.334,12.999,0.333c4.333,18.667,8,37.999,10,43.333s5.333,3.334,9.999,12.667s7.333,27,9,36
	c1.667,9,3.001,16.666,5.334,22s18.999-42.334,21.332-51s1.999-16,8.666-15s10.333,2,17.999,3c7.667,1,8.667,5.999,10.667,15.333
	s6.334,29.334,8.667,40.667c2.333,11.333,2.666,12.999,4.666,16.333c2,3.334,7,4.668,15.667,0.334s11.998-2.666,18.332-4
	c6.334-1.334,8.334-5.666,14.667-5c6.333,0.666,10-3,16.667-9.667s10.667-0.667,13-10c2.333-9.333,4.333-33.333,9.332-46.333
	c5-13,8-19.999,15.999-10.333c8,9.666,12.999,12,17.333,11.333c4.333-0.667,10-13,14.667-17c4.666-4,14.332-4.999,17.999-24.333
	s8.332-31.333,10.999-33.667s3.666-5,6.667,6.333c3,11.333,7.999,52.334,9.999,79.667s3,30.333,6.333,36.333
	c3.332,6,7.666,1.667,10.666-8.333s8.332-33.667,11.666-37.667s5.667-7.666,10.333,7.667s7.666,40.333,9.332,49.333
	c1.668,9,3.334,11.666,10.667,14.333s15.667,10.334,19.666,12.334c4,2,13.999,2.667,22.665-3c8.667-5.667,11.333-8.334,21.666-1.334
	c10.332,7,14.999,11.001,18.999,1.334s7.333-49.334,14.332-60.334c7-11,5.333-13.666,16.999-3.333
	c11.667,10.333,16.999,5.333,23.999,11s20.333,20.333,23.999-18.667c3.667-39,11.411-123.902,24.332-48
	c0,0,7.578,49.849,9.607,59.999c2.031,10.15,5.686,7.714,12.587,15.022s9.338,21.113,21.112,14.617
	c11.773-6.496,16.646-6.902,25.984-19.083c9.338-12.181,8.119-19.895,10.556-33.294s11.369-34.513,21.925-10.963
	s13.805,0.405,22.33,29.233c8.526,28.828,7.715,41.821,19.083,39.385s12.992-5.277,22.735-6.496
	c9.744-1.219,12.587-9.34,20.706-9.745c8.121-0.405,12.182,9.34,18.271,17.461c6.091,8.121,12.991,13.806,19.082-9.338
	s5.686-30.048,9.747-38.574c4.061-8.526,8.526-12.181,14.616,9.339c6.089,21.52,7.714,39.789,11.773,44.662
	c4.061,4.873,7.714,9.339,13.804-17.053c6.091-26.392,6.497-38.168,10.151-43.852s6.496-11.367,15.834,3.249
	s11.774,7.714,17.052,13.398c5.279,5.685,9.339,19.083,12.181,27.609s10.962,19.895,15.834,0s5.686-53.189,8.121-69.024
	s1.623-30.452,12.18-33.7c10.558-3.248,12.994-11.775,21.113-12.181s19.083,4.06,24.767,5.278c5.683,1.219,8.119,4.872,10.15,16.241
	c2.029,11.369,7.715,41.009,10.151,45.881s-0.812,4.466,14.616,12.181c15.429,7.715,16.647,13.398,30.45-7.715
	c13.805-21.113,13.804-13.398,16.646,0.406c2.842,13.805,8.527,43.039,11.368,49.941c2.842,6.902,9.338,4.466,17.458,17.459
	c8.122,12.993,11.773,6.09,22.736-2.03c10.962-8.12,14.618-9.338,29.234-15.022c14.615-5.685,19.081-15.429,21.518-51.159
	s9.744-71.055,17.053-37.354c7.308,33.7,6.497,47.911,12.587,54.813c6.089,6.902,19.081,11.775,29.231,12.993
	c10.149,1.218,14.616-10.963,28.421-18.271c13.803-7.309,20.522-3.567,24.359-12.992c4.32-10.61,5.048-10.336,5.685-10.534
	c0,4.94,0,121.873,0,121.873H338.394H0V160.106z"/>
<linearGradient id="SVGID_2_" gradientUnits="userSpaceOnUse" x1="1037.9224" y1="45.3926" x2="1037.9224" y2="231.4043">
	<stop  offset="0" style="stop-color:#E1499F"/>
	<stop  offset="1" style="stop-color:#DF3A97"/>
</linearGradient>
<path opacity="0.48" fill="url(#SVGID_2_)" d="M26.967,281.998c0,0,16.488-8.861,24.734-41.983
	c8.25-33.122,27.271-63.443,43.765-23.325c16.491,40.118,15.854,57.377,35.516,60.178c19.663,2.8,31.078,0.468,44.397,0.468
	s24.103-1.401,28.54-14.463c4.444-13.061,14.59-103.743,27.909-108.875c13.318-5.131,18.394-3.266,39.321,6.53
	c20.933,9.797,19.027,3.269,30.442,8.865c11.421,5.598,20.295,67.357,33.614,71.09c13.321,3.732,20.296,4.199,27.272,13.528
	c6.976,9.329,16.488,20.06,26.003,23.791c9.514,3.732,31.079,1.865,48.838,0c17.758-1.864,27.271,0.002,31.076-10.728
	c3.806-10.73,17.123-54.581,24.734-62.045c7.613-7.464,15.225-21.924,30.445,13.529c15.223,35.452,13.952,38.721,18.394,47.116
	c4.438,8.396,30.343,25.192,44.929,3.731c14.586-21.46,12.077-101.139,23.461-113.014c6.766-7.058,10.087-10.854,17.858-13.526
	c12.186-4.191,22.638-15.397,31.518-1.401c8.877,13.996,23.453,117.676,29.163,125.605c5.708,7.93,54.742,12.129,76.943,10.263
	c22.197-1.867,48.2-1.401,58.349-1.867c10.147-0.466,18.396-2.331,26.007-11.662c7.607-9.33,24.092-33.584,51.364-4.195
	c27.274,29.388,31.077,14.462,45.029,15.861c13.954,1.399,43.768,9.327,48.205-1.401c4.438-10.729,17.123-30.319,22.2-51.313
	c5.071-20.992,26.001-41.983,41.223,3.732c15.226,45.715,38.689,81.168,50.74,4.197c12.052-76.97,16.484-134.813,24.095-151.607
	c7.613-16.795,11.421-45.719,31.716,31.253c20.296,76.972,8.879,39.187,12.682,51.782c3.808,12.595,6.982,34.986,24.738,38.719
	c17.759,3.731,22.194,32.188,24.733,45.249c2.537,13.062,26.005,64.377,39.323,0c13.321-64.377,41.221-104.029,67.859-26.125
	c26.637,77.903,34.884,64.375,52.008,42.916c17.125-21.458,25.367-29.855,48.201-6.53s36.155,38.252,50.742,0
	c14.586-38.251,29.164-82.104,53.269-22.392s56.909,57.381,76.573,20.526c19.664-36.854,22.834-106.885,38.057-111.084
	c15.222-4.2,10.318-31.723,26.174-19.594c15.855,12.13,22.826,119.482,30.433,133.942c7.614,14.46,17.126,22.392,63.424,18.66
	c46.301-3.732,53.278,8.397,74.842-6.065c21.566-14.462,19.663-29.39,30.444-38.253s27.905-5.599,54.544,8.863
	c26.64,14.462,38.689-10.729,43.765-21.458c5.073-10.729,16.422-65.813,46.93,30.323c4.44,13.994,25.37,32.188,25.37,32.188
	L26.967,281.998z"/>
</svg>
