%
M48
M72
T01C0.0100
T02C0.0150
T03C0.0157
T04C0.0197
T05C0.0394
T06C0.0400
T07C0.0520
T08C0.0551
T09C0.1260
T10C0.1299
%
T01
X7631Y2246
X8487Y2343
X10428Y1519
X10822Y1846
X14057Y2845
X14234Y3406
X15643Y3943
X16545Y3933
X16587Y4743
X15687Y5043
X16487Y5743
X18045Y5392
X18515Y3923
X20443Y3334
X18087Y2143
X17487Y2345
X14777Y1987
X14141Y4951
X14174Y5424
X14100Y6148
X10836Y5262
X10421Y5423
X8470Y5443
X8095Y4953
X8086Y3917
X8522Y7476
X10187Y7443
X4287Y10143
X3587Y16443
X6213Y21489
X14071Y22804
X17256Y20973
X18846Y18543
X20387Y17843
X22644Y16209
X19720Y13781
X19954Y13028
X19053Y12702
X19787Y12243
X19787Y11743
X20913Y10954
X20087Y10243
X17504Y11771
X15642Y12946
X17193Y17831
X25787Y11743
X26435Y12267
X30070Y9783
X27390Y8785
X25187Y9243
X29798Y6223
X37493Y5304
X35728Y11444
X34887Y15043
X30611Y17236
X19587Y8043
X18497Y7832
T02
X11572Y11643
X11594Y12758
X11584Y13684
X11591Y14583
X11587Y15543
X16505Y13239
X21887Y16843
X24607Y16805
X28104Y18715
X23263Y22247
X16436Y19143
X14640Y19539
X11840Y21362
X5762Y22777
X6104Y16380
X25487Y14043
X25387Y13243
X25391Y12767
T03
X23442Y12756
X23442Y12362
X23048Y12362
X22654Y12362
X22261Y12362
X21867Y12362
X21867Y12756
X22261Y12756
X22654Y12756
X23048Y12756
X23048Y13150
X23048Y13543
X22654Y13543
X22261Y13543
X22261Y13150
X22654Y13150
X21867Y13150
X21867Y13543
X21867Y13937
X22261Y13937
X22654Y13937
X23048Y13937
X23442Y13937
X23442Y13543
X23442Y13150
X23442Y14331
X23048Y14331
X22654Y14331
X22261Y14331
X21867Y14331
T04
X28398Y21236
X27474Y21241
X27465Y22209
X28407Y22198
X29358Y22192
X30261Y22201
X31181Y22187
X31190Y23165
X30278Y23165
X29358Y23173
X28389Y23169
X27474Y23160
X27477Y24133
X28438Y24129
X29358Y24129
X30278Y24129
X31207Y24129
X31198Y25141
X30269Y25155
X29349Y25190
X28389Y25191
X27443Y25172
X29349Y21228
X30261Y21228
X31159Y21223
T05
X27059Y19775
X24563Y19774
X21822Y19717
X12751Y16336
X5749Y20589
X10415Y21401
T06
X3691Y15635
X2691Y15635
X2691Y14635
X3691Y14635
X3691Y13635
X2691Y13635
X2691Y12635
X3691Y12635
X3691Y11635
X2691Y11635
X2691Y10635
X3691Y10635
X3691Y9635
X2691Y9635
X2691Y8635
X3691Y8635
X5847Y6880
X5847Y5880
X5847Y4880
X5847Y3880
X5847Y2880
X5847Y1880
X22273Y10122
X23273Y10122
X19378Y14434
X19378Y15434
X19378Y16434
X26202Y16089
X27202Y16089
X28202Y16089
X29741Y8554
X29741Y7554
T07
X38767Y6963
X38767Y8943
X38749Y10986
X38749Y12966
X38723Y14985
X38723Y16965
X38701Y18990
X38701Y20970
X2596Y21025
X2596Y23005
T08
X31913Y7982
X33589Y8008
X33607Y6208
X31938Y6220
T09
X30177Y4581
X35378Y4574
T10
X2387Y1843
X2387Y26143
X39387Y26143
X39442Y1809
M30
