G75*
G70*
%OFA0B0*%
%FSLAX24Y24*%
%IPPOS*%
%LPD*%
%AMOC8*
5,1,8,0,0,1.08239X$1,22.5*
%
%ADD10C,0.0740*%
%ADD11R,0.1680X0.1080*%
%ADD12R,0.4680X0.4680*%
%ADD13R,0.0560X0.0960*%
%ADD14R,0.1497X0.0946*%
%ADD15OC8,0.0680*%
%ADD16O,0.1640X0.0860*%
%ADD17R,0.0789X0.0946*%
%ADD18R,0.1182X0.1576*%
%ADD19R,0.0631X0.1576*%
%ADD20R,0.0631X0.1104*%
%ADD21R,0.0552X0.0552*%
%ADD22R,0.0710X0.0592*%
%ADD23R,0.0592X0.0710*%
%ADD24R,0.0710X0.0790*%
%ADD25R,0.1340X0.0789*%
%ADD26R,0.0592X0.0671*%
%ADD27R,0.0671X0.0592*%
%ADD28R,0.0880X0.0340*%
%ADD29O,0.0680X0.1280*%
%ADD30O,0.1280X0.0680*%
%ADD31R,0.0789X0.0749*%
%ADD32R,0.0946X0.0789*%
%ADD33R,0.0789X0.0230*%
%ADD34R,0.0480X0.0480*%
%ADD35O,0.0674X0.1267*%
%ADD36R,0.0907X0.0907*%
%ADD37C,0.0907*%
%ADD38C,0.1340*%
%ADD39C,0.1379*%
%ADD40C,0.0340*%
%ADD41C,0.0390*%
D10*
X028398Y021236D03*
X027474Y021241D03*
X027465Y022209D03*
X028407Y022198D03*
X029358Y022192D03*
X030261Y022201D03*
X031181Y022187D03*
X031190Y023165D03*
X030278Y023165D03*
X029358Y023173D03*
X028389Y023169D03*
X027474Y023160D03*
X027477Y024133D03*
X028438Y024129D03*
X029358Y024129D03*
X030278Y024129D03*
X031207Y024129D03*
X031198Y025141D03*
X030269Y025155D03*
X029349Y025190D03*
X028389Y025191D03*
X027443Y025172D03*
X029349Y021228D03*
X030261Y021228D03*
X031159Y021223D03*
D11*
X025357Y022219D03*
X025332Y024179D03*
D12*
X029206Y023217D03*
D13*
X017457Y014297D03*
X016547Y014297D03*
X015637Y014297D03*
D14*
X016547Y016737D03*
D15*
X003691Y015635D03*
X002691Y015635D03*
X002691Y014635D03*
X003691Y014635D03*
X003691Y013635D03*
X002691Y013635D03*
X002691Y012635D03*
X003691Y012635D03*
X003691Y011635D03*
X002691Y011635D03*
X002691Y010635D03*
X003691Y010635D03*
X003691Y009635D03*
X002691Y009635D03*
X002691Y008635D03*
X003691Y008635D03*
D16*
X002596Y021025D03*
X002596Y023005D03*
X038701Y020970D03*
X038701Y018990D03*
X038723Y016965D03*
X038723Y014985D03*
X038749Y012966D03*
X038749Y010986D03*
X038767Y008943D03*
X038767Y006963D03*
D17*
X037767Y004311D03*
X039775Y004311D03*
X035095Y010606D03*
X033087Y010606D03*
X033550Y018847D03*
X035558Y018847D03*
X008623Y022779D03*
X006615Y022779D03*
D18*
X006277Y025032D03*
X009190Y025032D03*
D19*
X011859Y025083D03*
X011859Y022721D03*
D20*
X014667Y018655D03*
X014667Y017041D03*
D21*
X015962Y020968D03*
X016789Y020968D03*
X007577Y021490D03*
X006751Y021490D03*
X003623Y016956D03*
X002796Y016956D03*
X008537Y006877D03*
X009364Y006877D03*
X009375Y005914D03*
X008549Y005914D03*
X008595Y004963D03*
X009422Y004963D03*
X009413Y003908D03*
X008586Y003908D03*
X008577Y002929D03*
X009404Y002929D03*
X036491Y007496D03*
X036491Y008323D03*
X036548Y011576D03*
X036548Y012403D03*
X036641Y015645D03*
X036641Y016472D03*
X036602Y019699D03*
X036602Y020526D03*
D22*
X036309Y021221D03*
X036309Y021970D03*
X036589Y017907D03*
X036589Y017159D03*
X036450Y013790D03*
X036450Y013042D03*
X036509Y009716D03*
X036509Y008968D03*
X029166Y010585D03*
X029166Y011333D03*
D23*
X019761Y017801D03*
X019013Y017801D03*
X016710Y020127D03*
X015962Y020127D03*
X021353Y023063D03*
X022101Y023063D03*
X022127Y024272D03*
X021379Y024272D03*
X009267Y021488D03*
X008519Y021488D03*
X003637Y018593D03*
X002889Y018593D03*
X011413Y007743D03*
X012161Y007743D03*
X012186Y006726D03*
X011438Y006726D03*
X011399Y005769D03*
X012147Y005769D03*
X012211Y004831D03*
X011463Y004831D03*
X011455Y003852D03*
X012203Y003852D03*
X012196Y002943D03*
X011448Y002943D03*
D24*
X028660Y018732D03*
X029779Y018732D03*
D25*
X031625Y019469D03*
X031625Y017264D03*
D26*
X035913Y014920D03*
X036583Y014920D03*
X036702Y010792D03*
X036032Y010792D03*
X029069Y006239D03*
X028400Y006239D03*
X038140Y005301D03*
X038810Y005301D03*
X016462Y001972D03*
X015793Y001972D03*
X012189Y001864D03*
X011520Y001864D03*
X007616Y002930D03*
X006947Y002930D03*
X006944Y003880D03*
X007614Y003880D03*
X007626Y005001D03*
X006957Y005001D03*
X006955Y005899D03*
X007624Y005899D03*
X007632Y006819D03*
X006963Y006819D03*
X010266Y011635D03*
X010936Y011635D03*
X010871Y012766D03*
X010201Y012766D03*
X010206Y013682D03*
X010875Y013682D03*
X010865Y014583D03*
X010196Y014583D03*
X010178Y015476D03*
X010847Y015476D03*
X005595Y016378D03*
X004925Y016378D03*
D27*
X014059Y023611D03*
X014059Y024280D03*
X016439Y018584D03*
X016439Y017915D03*
X021894Y018016D03*
X021894Y017346D03*
X024605Y017389D03*
X024605Y018059D03*
X017501Y013309D03*
X017501Y012640D03*
X030108Y011272D03*
X030108Y010603D03*
X034963Y013727D03*
X034963Y014397D03*
D28*
X017369Y006424D03*
X017369Y005924D03*
X017369Y005424D03*
X017369Y004924D03*
X017369Y004424D03*
X017369Y003924D03*
X017369Y003424D03*
X017369Y002924D03*
X014949Y002924D03*
X014949Y003424D03*
X014949Y003924D03*
X014949Y004424D03*
X014949Y004924D03*
X014949Y005424D03*
X014949Y005924D03*
X014949Y006424D03*
D29*
X022273Y010122D03*
X023273Y010122D03*
X026202Y016089D03*
X027202Y016089D03*
X028202Y016089D03*
D30*
X019378Y016434D03*
X019378Y015434D03*
X019378Y014434D03*
X029741Y008554D03*
X029741Y007554D03*
X005847Y006880D03*
X005847Y005880D03*
X005847Y004880D03*
X005847Y003880D03*
X005847Y002880D03*
X005847Y001880D03*
D31*
X029006Y012424D03*
X030620Y012424D03*
D32*
X027413Y012100D03*
X027413Y010093D03*
D33*
X024702Y011496D03*
X024702Y011752D03*
X024702Y012008D03*
X024702Y012264D03*
X024702Y012520D03*
X024702Y012776D03*
X024702Y013032D03*
X024702Y013288D03*
X024702Y013543D03*
X024702Y013799D03*
X024702Y014055D03*
X024702Y014311D03*
X024702Y014567D03*
X024702Y014823D03*
X024702Y015079D03*
X024702Y015335D03*
X020607Y015335D03*
X020607Y015079D03*
X020607Y014823D03*
X020607Y014567D03*
X020607Y014311D03*
X020607Y014055D03*
X020607Y013799D03*
X020607Y013543D03*
X020607Y013288D03*
X020607Y013032D03*
X020607Y012776D03*
X020607Y012520D03*
X020607Y012264D03*
X020607Y012008D03*
X020607Y011752D03*
X020607Y011496D03*
D34*
X021867Y012362D03*
X022261Y012362D03*
X022654Y012362D03*
X022654Y012756D03*
X022261Y012756D03*
X021867Y012756D03*
X021867Y013150D03*
X021867Y013543D03*
X022261Y013543D03*
X022261Y013150D03*
X022654Y013150D03*
X022654Y013543D03*
X022654Y013937D03*
X022261Y013937D03*
X021867Y013937D03*
X021867Y014331D03*
X022261Y014331D03*
X022654Y014331D03*
X023048Y014331D03*
X023442Y014331D03*
X023442Y013937D03*
X023442Y013543D03*
X023442Y013150D03*
X023048Y013150D03*
X023048Y013543D03*
X023048Y013937D03*
X023048Y012756D03*
X023048Y012362D03*
X023442Y012362D03*
X023442Y012756D03*
D35*
X024563Y019774D03*
X027059Y019775D03*
X021822Y019717D03*
X012751Y016336D03*
X005749Y020589D03*
X010415Y021401D03*
D36*
X033607Y006208D03*
D37*
X031938Y006220D03*
X031913Y007982D03*
X033589Y008008D03*
D38*
X035378Y004574D03*
X030177Y004581D03*
D39*
X002387Y001843D03*
X002387Y026143D03*
X039387Y026143D03*
X039442Y001809D03*
D40*
X037493Y005304D03*
X029798Y006223D03*
X027390Y008785D03*
X025187Y009243D03*
X025787Y011743D03*
X026435Y012267D03*
X030070Y009783D03*
X035728Y011444D03*
X034887Y015043D03*
X030611Y017236D03*
X022644Y016209D03*
X020387Y017843D03*
X018846Y018543D03*
X017193Y017831D03*
X017256Y020973D03*
X014071Y022804D03*
X006213Y021489D03*
X003587Y016443D03*
X004287Y010143D03*
X008522Y007476D03*
X010187Y007443D03*
X010421Y005423D03*
X010836Y005262D03*
X008470Y005443D03*
X008095Y004953D03*
X008086Y003917D03*
X008487Y002343D03*
X007631Y002246D03*
X010428Y001519D03*
X010822Y001846D03*
X014057Y002845D03*
X014234Y003406D03*
X015643Y003943D03*
X016545Y003933D03*
X016587Y004743D03*
X015687Y005043D03*
X016487Y005743D03*
X018045Y005392D03*
X018515Y003923D03*
X020443Y003334D03*
X018087Y002143D03*
X017487Y002345D03*
X014777Y001987D03*
X014141Y004951D03*
X014174Y005424D03*
X014100Y006148D03*
X018497Y007832D03*
X019587Y008043D03*
X020087Y010243D03*
X020913Y010954D03*
X019787Y011743D03*
X019787Y012243D03*
X019053Y012702D03*
X019954Y013028D03*
X019720Y013781D03*
X017504Y011771D03*
X015642Y012946D03*
D41*
X016505Y013239D03*
X011594Y012758D03*
X011584Y013684D03*
X011591Y014583D03*
X011587Y015543D03*
X016436Y019143D03*
X014640Y019539D03*
X011840Y021362D03*
X005762Y022777D03*
X006104Y016380D03*
X011572Y011643D03*
X021887Y016843D03*
X024607Y016805D03*
X028104Y018715D03*
X023263Y022247D03*
X025487Y014043D03*
X025387Y013243D03*
X025391Y012767D03*
M02*
