<svg xmlns="http://www.w3.org/2000/svg" version="1.1" xmlns:xlink="http://www.w3.org/1999/xlink" stroke-linecap="round" stroke-linejoin="round" stroke-width="0" fill-rule="evenodd" width="3.9104in" height="2.6363000000000003in" viewBox="92.8 82.3 3910.4 2636.3" id="./public/gerber-map/data/folder-1/EVB2_MC33812_Rev 2.2.sol"><defs><circle cx="0" cy="0" r="33" id="./public/gerber-map/data/folder-1/EVB2_MC33812_Rev 2.2.sol_pad-10"/><rect x="-230" y="-230" width="460" height="460" id="./public/gerber-map/data/folder-1/EVB2_MC33812_Rev 2.2.sol_pad-11"/><polygon points="29.99994,12.42638 12.42638,29.99994 -12.42638,29.99994 -29.99994,12.42638 -29.99994,-12.42638 -12.42638,-29.99994 12.42638,-29.99994 29.99994,-12.42638" id="./public/gerber-map/data/folder-1/EVB2_MC33812_Rev 2.2.sol_pad-12"/><rect x="-78" y="-39" width="156" height="78" rx="39" ry="39" id="./public/gerber-map/data/folder-1/EVB2_MC33812_Rev 2.2.sol_pad-13"/><rect x="-30" y="-60" width="60" height="120" rx="30" ry="30" id="./public/gerber-map/data/folder-1/EVB2_MC33812_Rev 2.2.sol_pad-14"/><rect x="-60" y="-30" width="120" height="60" rx="30" ry="30" id="./public/gerber-map/data/folder-1/EVB2_MC33812_Rev 2.2.sol_pad-15"/><rect x="-20" y="-20" width="40" height="40" id="./public/gerber-map/data/folder-1/EVB2_MC33812_Rev 2.2.sol_pad-16"/><rect x="-29.7" y="-59.35" width="59.4" height="118.7" rx="29.7" ry="29.7" id="./public/gerber-map/data/folder-1/EVB2_MC33812_Rev 2.2.sol_pad-17"/><rect x="-41.35" y="-41.35" width="82.7" height="82.7" id="./public/gerber-map/data/folder-1/EVB2_MC33812_Rev 2.2.sol_pad-18"/><circle cx="0" cy="0" r="41.35" id="./public/gerber-map/data/folder-1/EVB2_MC33812_Rev 2.2.sol_pad-19"/><circle cx="0" cy="0" r="13" id="./public/gerber-map/data/folder-1/EVB2_MC33812_Rev 2.2.sol_pad-20"/><circle cx="0" cy="0" r="15.5" id="./public/gerber-map/data/folder-1/EVB2_MC33812_Rev 2.2.sol_pad-21"/></defs><g transform="translate(0,2800.9) scale(1,-1)" fill="currentColor" stroke="currentColor"><use xlink:href="#./public/gerber-map/data/folder-1/EVB2_MC33812_Rev 2.2.sol_pad-10" x="1020.4" y="2122.3"/><use xlink:href="#./public/gerber-map/data/folder-1/EVB2_MC33812_Rev 2.2.sol_pad-10" x="1110.2" y="2122.8"/><use xlink:href="#./public/gerber-map/data/folder-1/EVB2_MC33812_Rev 2.2.sol_pad-10" x="1201.4" y="2122.8"/><use xlink:href="#./public/gerber-map/data/folder-1/EVB2_MC33812_Rev 2.2.sol_pad-10" x="1296.5" y="2123.6"/><use xlink:href="#./public/gerber-map/data/folder-1/EVB2_MC33812_Rev 2.2.sol_pad-10" x="1388.9" y="2124.1"/><use xlink:href="#./public/gerber-map/data/folder-1/EVB2_MC33812_Rev 2.2.sol_pad-10" x="1389.8" y="2220.9"/><use xlink:href="#./public/gerber-map/data/folder-1/EVB2_MC33812_Rev 2.2.sol_pad-10" x="1295.7" y="2219.8"/><use xlink:href="#./public/gerber-map/data/folder-1/EVB2_MC33812_Rev 2.2.sol_pad-10" x="1200.5" y="2219.2"/><use xlink:href="#./public/gerber-map/data/folder-1/EVB2_MC33812_Rev 2.2.sol_pad-10" x="1110.2" y="2220.1"/><use xlink:href="#./public/gerber-map/data/folder-1/EVB2_MC33812_Rev 2.2.sol_pad-10" x="1018.2" y="2218.7"/><use xlink:href="#./public/gerber-map/data/folder-1/EVB2_MC33812_Rev 2.2.sol_pad-10" x="1017.4" y="2316.5"/><use xlink:href="#./public/gerber-map/data/folder-1/EVB2_MC33812_Rev 2.2.sol_pad-10" x="1108.5" y="2316.5"/><use xlink:href="#./public/gerber-map/data/folder-1/EVB2_MC33812_Rev 2.2.sol_pad-10" x="1200.5" y="2317.3"/><use xlink:href="#./public/gerber-map/data/folder-1/EVB2_MC33812_Rev 2.2.sol_pad-10" x="1297.4" y="2316.9"/><use xlink:href="#./public/gerber-map/data/folder-1/EVB2_MC33812_Rev 2.2.sol_pad-10" x="1388.9" y="2316"/><use xlink:href="#./public/gerber-map/data/folder-1/EVB2_MC33812_Rev 2.2.sol_pad-10" x="1388.6" y="2413.3"/><use xlink:href="#./public/gerber-map/data/folder-1/EVB2_MC33812_Rev 2.2.sol_pad-10" x="1292.5" y="2412.9"/><use xlink:href="#./public/gerber-map/data/folder-1/EVB2_MC33812_Rev 2.2.sol_pad-10" x="1200.5" y="2412.9"/><use xlink:href="#./public/gerber-map/data/folder-1/EVB2_MC33812_Rev 2.2.sol_pad-10" x="1108.5" y="2412.9"/><use xlink:href="#./public/gerber-map/data/folder-1/EVB2_MC33812_Rev 2.2.sol_pad-10" x="1015.6" y="2412.9"/><use xlink:href="#./public/gerber-map/data/folder-1/EVB2_MC33812_Rev 2.2.sol_pad-10" x="1016.5" y="2514.1"/><use xlink:href="#./public/gerber-map/data/folder-1/EVB2_MC33812_Rev 2.2.sol_pad-10" x="1109.4" y="2515.5"/><use xlink:href="#./public/gerber-map/data/folder-1/EVB2_MC33812_Rev 2.2.sol_pad-10" x="1201.4" y="2519"/><use xlink:href="#./public/gerber-map/data/folder-1/EVB2_MC33812_Rev 2.2.sol_pad-10" x="1297.4" y="2519.1"/><use xlink:href="#./public/gerber-map/data/folder-1/EVB2_MC33812_Rev 2.2.sol_pad-10" x="1392" y="2517.2"/><use xlink:href="#./public/gerber-map/data/folder-1/EVB2_MC33812_Rev 2.2.sol_pad-11" x="1216.7" y="2322.8"/><use xlink:href="#./public/gerber-map/data/folder-1/EVB2_MC33812_Rev 2.2.sol_pad-12" x="3767.2" y="1563.5"/><use xlink:href="#./public/gerber-map/data/folder-1/EVB2_MC33812_Rev 2.2.sol_pad-12" x="3867.2" y="1563.5"/><use xlink:href="#./public/gerber-map/data/folder-1/EVB2_MC33812_Rev 2.2.sol_pad-12" x="3867.2" y="1463.5"/><use xlink:href="#./public/gerber-map/data/folder-1/EVB2_MC33812_Rev 2.2.sol_pad-12" x="3767.2" y="1463.5"/><use xlink:href="#./public/gerber-map/data/folder-1/EVB2_MC33812_Rev 2.2.sol_pad-12" x="3767.2" y="1363.5"/><use xlink:href="#./public/gerber-map/data/folder-1/EVB2_MC33812_Rev 2.2.sol_pad-12" x="3867.2" y="1363.5"/><use xlink:href="#./public/gerber-map/data/folder-1/EVB2_MC33812_Rev 2.2.sol_pad-12" x="3867.2" y="1263.5"/><use xlink:href="#./public/gerber-map/data/folder-1/EVB2_MC33812_Rev 2.2.sol_pad-12" x="3767.2" y="1263.5"/><use xlink:href="#./public/gerber-map/data/folder-1/EVB2_MC33812_Rev 2.2.sol_pad-12" x="3767.2" y="1163.5"/><use xlink:href="#./public/gerber-map/data/folder-1/EVB2_MC33812_Rev 2.2.sol_pad-12" x="3867.2" y="1163.5"/><use xlink:href="#./public/gerber-map/data/folder-1/EVB2_MC33812_Rev 2.2.sol_pad-12" x="3867.2" y="1063.5"/><use xlink:href="#./public/gerber-map/data/folder-1/EVB2_MC33812_Rev 2.2.sol_pad-12" x="3767.2" y="1063.5"/><use xlink:href="#./public/gerber-map/data/folder-1/EVB2_MC33812_Rev 2.2.sol_pad-12" x="3767.2" y="963.5"/><use xlink:href="#./public/gerber-map/data/folder-1/EVB2_MC33812_Rev 2.2.sol_pad-12" x="3867.2" y="963.5"/><use xlink:href="#./public/gerber-map/data/folder-1/EVB2_MC33812_Rev 2.2.sol_pad-12" x="3867.2" y="863.5"/><use xlink:href="#./public/gerber-map/data/folder-1/EVB2_MC33812_Rev 2.2.sol_pad-12" x="3767.2" y="863.5"/><use xlink:href="#./public/gerber-map/data/folder-1/EVB2_MC33812_Rev 2.2.sol_pad-13" x="3876.7" y="2102.5"/><use xlink:href="#./public/gerber-map/data/folder-1/EVB2_MC33812_Rev 2.2.sol_pad-13" x="3876.7" y="2300.5"/><use xlink:href="#./public/gerber-map/data/folder-1/EVB2_MC33812_Rev 2.2.sol_pad-13" x="266.2" y="2097"/><use xlink:href="#./public/gerber-map/data/folder-1/EVB2_MC33812_Rev 2.2.sol_pad-13" x="266.2" y="1899"/><use xlink:href="#./public/gerber-map/data/folder-1/EVB2_MC33812_Rev 2.2.sol_pad-13" x="264" y="1696.5"/><use xlink:href="#./public/gerber-map/data/folder-1/EVB2_MC33812_Rev 2.2.sol_pad-13" x="264" y="1498.5"/><use xlink:href="#./public/gerber-map/data/folder-1/EVB2_MC33812_Rev 2.2.sol_pad-13" x="261.4" y="1296.6"/><use xlink:href="#./public/gerber-map/data/folder-1/EVB2_MC33812_Rev 2.2.sol_pad-13" x="261.4" y="1098.6"/><use xlink:href="#./public/gerber-map/data/folder-1/EVB2_MC33812_Rev 2.2.sol_pad-13" x="259.6" y="894.3"/><use xlink:href="#./public/gerber-map/data/folder-1/EVB2_MC33812_Rev 2.2.sol_pad-13" x="259.6" y="696.3"/><use xlink:href="#./public/gerber-map/data/folder-1/EVB2_MC33812_Rev 2.2.sol_pad-14" x="1316.1" y="1608.9"/><use xlink:href="#./public/gerber-map/data/folder-1/EVB2_MC33812_Rev 2.2.sol_pad-14" x="1416.1" y="1608.9"/><use xlink:href="#./public/gerber-map/data/folder-1/EVB2_MC33812_Rev 2.2.sol_pad-14" x="1516.1" y="1608.9"/><use xlink:href="#./public/gerber-map/data/folder-1/EVB2_MC33812_Rev 2.2.sol_pad-14" x="1809" y="1012.2"/><use xlink:href="#./public/gerber-map/data/folder-1/EVB2_MC33812_Rev 2.2.sol_pad-14" x="1909" y="1012.2"/><use xlink:href="#./public/gerber-map/data/folder-1/EVB2_MC33812_Rev 2.2.sol_pad-15" x="2198.5" y="1443.4"/><use xlink:href="#./public/gerber-map/data/folder-1/EVB2_MC33812_Rev 2.2.sol_pad-15" x="2198.5" y="1543.4"/><use xlink:href="#./public/gerber-map/data/folder-1/EVB2_MC33812_Rev 2.2.sol_pad-15" x="2198.5" y="1643.4"/><use xlink:href="#./public/gerber-map/data/folder-1/EVB2_MC33812_Rev 2.2.sol_pad-15" x="1162.2" y="855.4"/><use xlink:href="#./public/gerber-map/data/folder-1/EVB2_MC33812_Rev 2.2.sol_pad-15" x="1162.2" y="755.4"/><use xlink:href="#./public/gerber-map/data/folder-1/EVB2_MC33812_Rev 2.2.sol_pad-15" x="3551.6" y="688"/><use xlink:href="#./public/gerber-map/data/folder-1/EVB2_MC33812_Rev 2.2.sol_pad-15" x="3551.6" y="588"/><use xlink:href="#./public/gerber-map/data/folder-1/EVB2_MC33812_Rev 2.2.sol_pad-15" x="3551.6" y="488"/><use xlink:href="#./public/gerber-map/data/folder-1/EVB2_MC33812_Rev 2.2.sol_pad-15" x="3551.6" y="388"/><use xlink:href="#./public/gerber-map/data/folder-1/EVB2_MC33812_Rev 2.2.sol_pad-15" x="3551.6" y="288"/><use xlink:href="#./public/gerber-map/data/folder-1/EVB2_MC33812_Rev 2.2.sol_pad-15" x="3551.6" y="188"/><use xlink:href="#./public/gerber-map/data/folder-1/EVB2_MC33812_Rev 2.2.sol_pad-16" x="1949.6" y="1236.2"/><use xlink:href="#./public/gerber-map/data/folder-1/EVB2_MC33812_Rev 2.2.sol_pad-16" x="1910.2" y="1236.2"/><use xlink:href="#./public/gerber-map/data/folder-1/EVB2_MC33812_Rev 2.2.sol_pad-16" x="1870.9" y="1236.2"/><use xlink:href="#./public/gerber-map/data/folder-1/EVB2_MC33812_Rev 2.2.sol_pad-16" x="1870.9" y="1275.6"/><use xlink:href="#./public/gerber-map/data/folder-1/EVB2_MC33812_Rev 2.2.sol_pad-16" x="1910.2" y="1275.6"/><use xlink:href="#./public/gerber-map/data/folder-1/EVB2_MC33812_Rev 2.2.sol_pad-16" x="1949.6" y="1275.6"/><use xlink:href="#./public/gerber-map/data/folder-1/EVB2_MC33812_Rev 2.2.sol_pad-16" x="1949.6" y="1315"/><use xlink:href="#./public/gerber-map/data/folder-1/EVB2_MC33812_Rev 2.2.sol_pad-16" x="1949.6" y="1354.3"/><use xlink:href="#./public/gerber-map/data/folder-1/EVB2_MC33812_Rev 2.2.sol_pad-16" x="1910.2" y="1354.3"/><use xlink:href="#./public/gerber-map/data/folder-1/EVB2_MC33812_Rev 2.2.sol_pad-16" x="1910.2" y="1315"/><use xlink:href="#./public/gerber-map/data/folder-1/EVB2_MC33812_Rev 2.2.sol_pad-16" x="1870.9" y="1315"/><use xlink:href="#./public/gerber-map/data/folder-1/EVB2_MC33812_Rev 2.2.sol_pad-16" x="1870.9" y="1354.3"/><use xlink:href="#./public/gerber-map/data/folder-1/EVB2_MC33812_Rev 2.2.sol_pad-16" x="1831.5" y="1354.3"/><use xlink:href="#./public/gerber-map/data/folder-1/EVB2_MC33812_Rev 2.2.sol_pad-16" x="1831.5" y="1315"/><use xlink:href="#./public/gerber-map/data/folder-1/EVB2_MC33812_Rev 2.2.sol_pad-16" x="1792.1" y="1315"/><use xlink:href="#./public/gerber-map/data/folder-1/EVB2_MC33812_Rev 2.2.sol_pad-16" x="1792.1" y="1354.3"/><use xlink:href="#./public/gerber-map/data/folder-1/EVB2_MC33812_Rev 2.2.sol_pad-16" x="1792.1" y="1393.7"/><use xlink:href="#./public/gerber-map/data/folder-1/EVB2_MC33812_Rev 2.2.sol_pad-16" x="1831.5" y="1393.7"/><use xlink:href="#./public/gerber-map/data/folder-1/EVB2_MC33812_Rev 2.2.sol_pad-16" x="1870.9" y="1393.7"/><use xlink:href="#./public/gerber-map/data/folder-1/EVB2_MC33812_Rev 2.2.sol_pad-16" x="1910.2" y="1393.7"/><use xlink:href="#./public/gerber-map/data/folder-1/EVB2_MC33812_Rev 2.2.sol_pad-16" x="1949.6" y="1393.7"/><use xlink:href="#./public/gerber-map/data/folder-1/EVB2_MC33812_Rev 2.2.sol_pad-16" x="1949.6" y="1433.1"/><use xlink:href="#./public/gerber-map/data/folder-1/EVB2_MC33812_Rev 2.2.sol_pad-16" x="1910.2" y="1433.1"/><use xlink:href="#./public/gerber-map/data/folder-1/EVB2_MC33812_Rev 2.2.sol_pad-16" x="1870.9" y="1433.1"/><use xlink:href="#./public/gerber-map/data/folder-1/EVB2_MC33812_Rev 2.2.sol_pad-16" x="1831.5" y="1433.1"/><use xlink:href="#./public/gerber-map/data/folder-1/EVB2_MC33812_Rev 2.2.sol_pad-16" x="1792.1" y="1433.1"/><use xlink:href="#./public/gerber-map/data/folder-1/EVB2_MC33812_Rev 2.2.sol_pad-16" x="1792.1" y="1275.6"/><use xlink:href="#./public/gerber-map/data/folder-1/EVB2_MC33812_Rev 2.2.sol_pad-16" x="1792.1" y="1236.2"/><use xlink:href="#./public/gerber-map/data/folder-1/EVB2_MC33812_Rev 2.2.sol_pad-16" x="1831.5" y="1236.2"/><use xlink:href="#./public/gerber-map/data/folder-1/EVB2_MC33812_Rev 2.2.sol_pad-16" x="1831.5" y="1275.6"/><use xlink:href="#./public/gerber-map/data/folder-1/EVB2_MC33812_Rev 2.2.sol_pad-17" x="1954.1" y="1971.7"/><use xlink:href="#./public/gerber-map/data/folder-1/EVB2_MC33812_Rev 2.2.sol_pad-17" x="1680" y="1977.4"/><use xlink:href="#./public/gerber-map/data/folder-1/EVB2_MC33812_Rev 2.2.sol_pad-17" x="1430.4" y="1977.5"/><use xlink:href="#./public/gerber-map/data/folder-1/EVB2_MC33812_Rev 2.2.sol_pad-17" x="2861.2" y="1633.6"/><use xlink:href="#./public/gerber-map/data/folder-1/EVB2_MC33812_Rev 2.2.sol_pad-17" x="3561.4" y="2058.9"/><use xlink:href="#./public/gerber-map/data/folder-1/EVB2_MC33812_Rev 2.2.sol_pad-17" x="3094.8" y="2140.1"/><use xlink:href="#./public/gerber-map/data/folder-1/EVB2_MC33812_Rev 2.2.sol_pad-18" x="775.6" y="620.8"/><use xlink:href="#./public/gerber-map/data/folder-1/EVB2_MC33812_Rev 2.2.sol_pad-19" x="942.5" y="622"/><use xlink:href="#./public/gerber-map/data/folder-1/EVB2_MC33812_Rev 2.2.sol_pad-19" x="945" y="798.2"/><use xlink:href="#./public/gerber-map/data/folder-1/EVB2_MC33812_Rev 2.2.sol_pad-19" x="777.4" y="800.8"/><use xlink:href="#./public/gerber-map/data/folder-1/EVB2_MC33812_Rev 2.2.sol_pad-20" x="1129.3" y="978.3"/><use xlink:href="#./public/gerber-map/data/folder-1/EVB2_MC33812_Rev 2.2.sol_pad-20" x="1397.3" y="878.5"/><use xlink:href="#./public/gerber-map/data/folder-1/EVB2_MC33812_Rev 2.2.sol_pad-20" x="1617.6" y="924.3"/><use xlink:href="#./public/gerber-map/data/folder-1/EVB2_MC33812_Rev 2.2.sol_pad-20" x="1557.6" y="1174.3"/><use xlink:href="#./public/gerber-map/data/folder-1/EVB2_MC33812_Rev 2.2.sol_pad-20" x="1492.8" y="1226.7"/><use xlink:href="#./public/gerber-map/data/folder-1/EVB2_MC33812_Rev 2.2.sol_pad-20" x="2045" y="1095.4"/><use xlink:href="#./public/gerber-map/data/folder-1/EVB2_MC33812_Rev 2.2.sol_pad-20" x="2127.6" y="1024.3"/><use xlink:href="#./public/gerber-map/data/folder-1/EVB2_MC33812_Rev 2.2.sol_pad-20" x="2157.6" y="1174.3"/><use xlink:href="#./public/gerber-map/data/folder-1/EVB2_MC33812_Rev 2.2.sol_pad-20" x="2157.6" y="1224.3"/><use xlink:href="#./public/gerber-map/data/folder-1/EVB2_MC33812_Rev 2.2.sol_pad-20" x="2231" y="1270.2"/><use xlink:href="#./public/gerber-map/data/folder-1/EVB2_MC33812_Rev 2.2.sol_pad-20" x="2140.9" y="1302.8"/><use xlink:href="#./public/gerber-map/data/folder-1/EVB2_MC33812_Rev 2.2.sol_pad-20" x="2164.3" y="1378.1"/><use xlink:href="#./public/gerber-map/data/folder-1/EVB2_MC33812_Rev 2.2.sol_pad-20" x="2385.9" y="1177.1"/><use xlink:href="#./public/gerber-map/data/folder-1/EVB2_MC33812_Rev 2.2.sol_pad-20" x="2572.1" y="1294.6"/><use xlink:href="#./public/gerber-map/data/folder-1/EVB2_MC33812_Rev 2.2.sol_pad-20" x="2417.1" y="1783.1"/><use xlink:href="#./public/gerber-map/data/folder-1/EVB2_MC33812_Rev 2.2.sol_pad-20" x="2251.8" y="1854.3"/><use xlink:href="#./public/gerber-map/data/folder-1/EVB2_MC33812_Rev 2.2.sol_pad-20" x="2097.6" y="1784.3"/><use xlink:href="#./public/gerber-map/data/folder-1/EVB2_MC33812_Rev 2.2.sol_pad-20" x="1871.9" y="1620.9"/><use xlink:href="#./public/gerber-map/data/folder-1/EVB2_MC33812_Rev 2.2.sol_pad-20" x="2410.7" y="2097.3"/><use xlink:href="#./public/gerber-map/data/folder-1/EVB2_MC33812_Rev 2.2.sol_pad-20" x="2729.2" y="2280.4"/><use xlink:href="#./public/gerber-map/data/folder-1/EVB2_MC33812_Rev 2.2.sol_pad-20" x="3515" y="2148.9"/><use xlink:href="#./public/gerber-map/data/folder-1/EVB2_MC33812_Rev 2.2.sol_pad-20" x="3777.6" y="1644.3"/><use xlink:href="#./public/gerber-map/data/folder-1/EVB2_MC33812_Rev 2.2.sol_pad-20" x="3707.6" y="1014.3"/><use xlink:href="#./public/gerber-map/data/folder-1/EVB2_MC33812_Rev 2.2.sol_pad-20" x="3284.1" y="747.6"/><use xlink:href="#./public/gerber-map/data/folder-1/EVB2_MC33812_Rev 2.2.sol_pad-20" x="3117.6" y="744.3"/><use xlink:href="#./public/gerber-map/data/folder-1/EVB2_MC33812_Rev 2.2.sol_pad-20" x="3094.2" y="542.3"/><use xlink:href="#./public/gerber-map/data/folder-1/EVB2_MC33812_Rev 2.2.sol_pad-20" x="3052.7" y="526.2"/><use xlink:href="#./public/gerber-map/data/folder-1/EVB2_MC33812_Rev 2.2.sol_pad-20" x="3289.3" y="544.3"/><use xlink:href="#./public/gerber-map/data/folder-1/EVB2_MC33812_Rev 2.2.sol_pad-20" x="3326.8" y="495.3"/><use xlink:href="#./public/gerber-map/data/folder-1/EVB2_MC33812_Rev 2.2.sol_pad-20" x="3327.8" y="391.7"/><use xlink:href="#./public/gerber-map/data/folder-1/EVB2_MC33812_Rev 2.2.sol_pad-20" x="3287.6" y="234.3"/><use xlink:href="#./public/gerber-map/data/folder-1/EVB2_MC33812_Rev 2.2.sol_pad-20" x="3373.2" y="224.6"/><use xlink:href="#./public/gerber-map/data/folder-1/EVB2_MC33812_Rev 2.2.sol_pad-20" x="3093.5" y="151.9"/><use xlink:href="#./public/gerber-map/data/folder-1/EVB2_MC33812_Rev 2.2.sol_pad-20" x="3054.1" y="184.6"/><use xlink:href="#./public/gerber-map/data/folder-1/EVB2_MC33812_Rev 2.2.sol_pad-20" x="2730.6" y="284.5"/><use xlink:href="#./public/gerber-map/data/folder-1/EVB2_MC33812_Rev 2.2.sol_pad-20" x="2712.9" y="340.6"/><use xlink:href="#./public/gerber-map/data/folder-1/EVB2_MC33812_Rev 2.2.sol_pad-20" x="2572" y="394.3"/><use xlink:href="#./public/gerber-map/data/folder-1/EVB2_MC33812_Rev 2.2.sol_pad-20" x="2481.9" y="393.3"/><use xlink:href="#./public/gerber-map/data/folder-1/EVB2_MC33812_Rev 2.2.sol_pad-20" x="2477.6" y="474.3"/><use xlink:href="#./public/gerber-map/data/folder-1/EVB2_MC33812_Rev 2.2.sol_pad-20" x="2567.6" y="504.3"/><use xlink:href="#./public/gerber-map/data/folder-1/EVB2_MC33812_Rev 2.2.sol_pad-20" x="2487.6" y="574.3"/><use xlink:href="#./public/gerber-map/data/folder-1/EVB2_MC33812_Rev 2.2.sol_pad-20" x="2331.8" y="539.2"/><use xlink:href="#./public/gerber-map/data/folder-1/EVB2_MC33812_Rev 2.2.sol_pad-20" x="2284.8" y="392.3"/><use xlink:href="#./public/gerber-map/data/folder-1/EVB2_MC33812_Rev 2.2.sol_pad-20" x="2092" y="333.4"/><use xlink:href="#./public/gerber-map/data/folder-1/EVB2_MC33812_Rev 2.2.sol_pad-20" x="2327.6" y="214.3"/><use xlink:href="#./public/gerber-map/data/folder-1/EVB2_MC33812_Rev 2.2.sol_pad-20" x="2387.6" y="234.5"/><use xlink:href="#./public/gerber-map/data/folder-1/EVB2_MC33812_Rev 2.2.sol_pad-20" x="2658.6" y="198.7"/><use xlink:href="#./public/gerber-map/data/folder-1/EVB2_MC33812_Rev 2.2.sol_pad-20" x="2722.2" y="495.1"/><use xlink:href="#./public/gerber-map/data/folder-1/EVB2_MC33812_Rev 2.2.sol_pad-20" x="2718.9" y="542.4"/><use xlink:href="#./public/gerber-map/data/folder-1/EVB2_MC33812_Rev 2.2.sol_pad-20" x="2726.3" y="614.8"/><use xlink:href="#./public/gerber-map/data/folder-1/EVB2_MC33812_Rev 2.2.sol_pad-20" x="2286.6" y="783.2"/><use xlink:href="#./public/gerber-map/data/folder-1/EVB2_MC33812_Rev 2.2.sol_pad-20" x="2177.6" y="804.3"/><use xlink:href="#./public/gerber-map/data/folder-1/EVB2_MC33812_Rev 2.2.sol_pad-20" x="1156.5" y="622.3"/><use xlink:href="#./public/gerber-map/data/folder-1/EVB2_MC33812_Rev 2.2.sol_pad-20" x="387" y="530.4"/><use xlink:href="#./public/gerber-map/data/folder-1/EVB2_MC33812_Rev 2.2.sol_pad-20" x="563.5" y="1144.4"/><use xlink:href="#./public/gerber-map/data/folder-1/EVB2_MC33812_Rev 2.2.sol_pad-20" x="647.6" y="1504.3"/><use xlink:href="#./public/gerber-map/data/folder-1/EVB2_MC33812_Rev 2.2.sol_pad-20" x="1075.2" y="1723.6"/><use xlink:href="#./public/gerber-map/data/folder-1/EVB2_MC33812_Rev 2.2.sol_pad-21" x="1325.9" y="1871.5"/><use xlink:href="#./public/gerber-map/data/folder-1/EVB2_MC33812_Rev 2.2.sol_pad-21" x="1675.6" y="1680.5"/><use xlink:href="#./public/gerber-map/data/folder-1/EVB2_MC33812_Rev 2.2.sol_pad-21" x="1947.6" y="1684.3"/><use xlink:href="#./public/gerber-map/data/folder-1/EVB2_MC33812_Rev 2.2.sol_pad-21" x="1587.6" y="1404.3"/><use xlink:href="#./public/gerber-map/data/folder-1/EVB2_MC33812_Rev 2.2.sol_pad-21" x="1597.6" y="1324.3"/><use xlink:href="#./public/gerber-map/data/folder-1/EVB2_MC33812_Rev 2.2.sol_pad-21" x="1597.2" y="1276.7"/><use xlink:href="#./public/gerber-map/data/folder-1/EVB2_MC33812_Rev 2.2.sol_pad-21" x="2485.8" y="1323.9"/><use xlink:href="#./public/gerber-map/data/folder-1/EVB2_MC33812_Rev 2.2.sol_pad-21" x="2976.9" y="1275.8"/><use xlink:href="#./public/gerber-map/data/folder-1/EVB2_MC33812_Rev 2.2.sol_pad-21" x="2977.9" y="1368.4"/><use xlink:href="#./public/gerber-map/data/folder-1/EVB2_MC33812_Rev 2.2.sol_pad-21" x="2977.2" y="1458.3"/><use xlink:href="#./public/gerber-map/data/folder-1/EVB2_MC33812_Rev 2.2.sol_pad-21" x="2977.6" y="1554.3"/><use xlink:href="#./public/gerber-map/data/folder-1/EVB2_MC33812_Rev 2.2.sol_pad-21" x="2492.7" y="1914.3"/><use xlink:href="#./public/gerber-map/data/folder-1/EVB2_MC33812_Rev 2.2.sol_pad-21" x="2672.3" y="1953.9"/><use xlink:href="#./public/gerber-map/data/folder-1/EVB2_MC33812_Rev 2.2.sol_pad-21" x="2952.3" y="2136.2"/><use xlink:href="#./public/gerber-map/data/folder-1/EVB2_MC33812_Rev 2.2.sol_pad-21" x="3560.1" y="2277.7"/><use xlink:href="#./public/gerber-map/data/folder-1/EVB2_MC33812_Rev 2.2.sol_pad-21" x="3525.9" y="1638"/><use xlink:href="#./public/gerber-map/data/folder-1/EVB2_MC33812_Rev 2.2.sol_pad-21" x="2979.1" y="1164.3"/><use xlink:href="#./public/gerber-map/data/folder-1/EVB2_MC33812_Rev 2.2.sol_pad-21" x="1810" y="2224.7"/><path d="M 1810 2224.7 1809.5 2202.9 1807.1 2082.5 2139.9 2078.7 2139.9 1914.3 2377.6 1914.3 2493.5 1914.3 2627.6 1914.3 M 2627.6 1953.9 2672.3 1953.9 2958 1953.9 M 2958 1978.3 3571 1978.3 M 3564.3 2001.2 3561.8 2055.5 3560.8 2049.7 M 3564.9 2051.5 3560.8 2150 3560.8 2282.5 M 3560.1 2277.7 3547.6 2277.7 3547.6 2284.3 3657.6 2284.3 3657.6 2102.5 3876.7 2102.5 M 3547.6 2274.3 3547.6 2277.7 M 2955.1 2136.2 2955.1 1978.3 M 1202.5 2319.7 679.4 2319.7 679.4 1899 266.2 1899" fill="none" stroke-width="50"/><path d="M 333.4 90.3 3758.6 90.3 3754.1 97 3746.7 110.4 3740.6 124.4 3740.6 124.4 3735.9 138.9 3732.4 153.8 3730.3 169 3729.6 184.3 3730.3 199.5 3732.4 214.7 3735.9 229.6 3740.6 244.1 3746.7 258.1 3746.7 258.1 3754.1 271.6 3762.6 284.2 3762.6 284.2 3772.3 296.1 3783 307 3794.6 317 3807.1 325.8 3820.3 333.4 3820.3 333.4 3834.2 339.8 3848.6 345 3848.6 345 3863.4 348.7 3878.5 351.2 3878.5 351.2 3893.8 352.2 3909.1 351.9 3924.3 350.1 3939.2 347 3939.3 347 3953.9 342.6 3968 336.8 3968 336.8 3981.6 329.8 3992 323.1 3995.2 2477.5 3994.5 2477 3981.6 2468.8 3968 2461.7 3953.9 2456 3953.9 2456 3939.3 2451.5 3939.2 2451.5 3924.3 2448.4 3924.3 2448.4 3909.1 2446.7 3893.8 2446.3 3878.5 2447.4 3863.4 2449.8 3848.6 2453.6 3834.2 2458.7 3820.3 2465.1 3807.1 2472.7 3794.6 2481.6 3783 2491.5 3783 2491.5 3772.3 2502.4 3762.6 2514.3 3754.1 2527 3746.7 2540.4 3740.6 2554.4 3740.6 2554.4 3735.9 2568.9 3735.9 2568.9 3732.4 2583.8 3730.3 2599 3729.6 2614.3 3730.3 2629.5 3732.4 2644.7 3735.9 2659.6 3740.6 2674.1 3746.7 2688.1 3754.1 2701.6 3760.2 2710.6 335.1 2710.6 337 2708 345 2694.9 351.7 2681.2 357.2 2666.9 361.3 2652.2 364.1 2637.1 365.4 2621.9 365.4 2606.6 364.1 2591.4 361.3 2576.4 361.3 2576.4 357.2 2561.6 351.7 2547.3 345 2533.6 337 2520.5 327.9 2508.2 317.8 2496.8 317.8 2496.8 317.8 2496.8 306.6 2486.4 306.6 2486.4 294.5 2477 281.6 2468.8 268 2461.7 253.9 2456 253.9 2456 239.3 2451.5 239.2 2451.5 224.3 2448.4 224.3 2448.4 209.1 2446.7 193.8 2446.3 178.5 2447.4 163.4 2449.8 148.6 2453.6 134.2 2458.7 120.3 2465.1 107.1 2472.7 100.8 2477.2 103.3 323.4 114.8 330.1 114.8 330.1 128.7 336.5 128.7 336.5 143.1 341.6 143.1 341.6 157.9 345.4 157.9 345.4 173 347.8 173 347.8 188.3 348.9 203.6 348.5 218.8 346.8 233.7 343.7 233.7 343.7 248.4 339.2 262.5 333.5 276.1 326.4 276.1 326.4 289 318.2 301.1 308.8 312.3 298.4 312.3 298.4 322.4 286.9 331.5 274.7 339.5 261.6 346.2 247.9 351.7 233.6 355.8 218.8 358.6 203.8 359.9 188.6 359.9 173.3 358.6 158.1 355.8 143 351.7 128.3 346.2 114 339.5 100.3 339.5 100.3 333.4 90.3 M 337.9 97.7 3753.7 97.7 M 3754.1 97 3754.1 97 M 3746.7 110.4 3746.7 110.4 M 3745.4 113.5 346 113.5 M 346.2 114 346.2 114 M 352 129.4 3075 129.4 M 3077.1 127.3 3068.9 135.5 3064.5 146.1 3064.5 157.7 3068.9 168.3 3077.1 176.5 3087.7 180.9 3099.3 180.9 3109.9 176.5 3118.1 168.3 3122.5 157.7 3122.5 146.1 3118.1 135.5 3109.9 127.3 3099.3 122.9 3087.7 122.9 3077.1 127.3 M 3064.9 145.2 356.2 145.2 M 358.8 161.1 3065.9 161.1 M 3078.2 177 359.9 177 M 359.6 192.8 2308.1 192.8 M 2311.2 189.7 2303 197.8 2298.6 208.5 2298.6 220 2303 230.7 2311.2 238.9 2321.9 243.3 2333.4 243.3 2344 238.9 2352.2 230.7 2356.6 220 2356.6 208.5 2352.2 197.8 2344 189.7 2333.4 185.3 2321.9 185.3 2311.2 189.7 M 2298.6 208.7 357.7 208.7 M 354.2 224.5 2300.5 224.5 M 2314.9 240.4 349.1 240.4 M 342.1 256.2 2368.3 256.2 M 2371.2 259.1 2381.9 263.5 2393.4 263.5 2404 259.1 2412.2 251 2416.6 240.3 2416.6 228.8 2412.2 218.1 2404 209.9 2393.4 205.5 2381.9 205.5 2371.2 209.9 2363 218.1 2358.6 228.8 2358.6 240.3 2363 251 2371.2 259.1 M 2358.6 240.4 2340.4 240.4 M 2354.8 224.5 2360.4 224.5 M 2356.6 208.7 2374.3 208.7 M 2400.9 208.7 3273.6 208.7 M 3271.2 209.7 3263 217.8 3258.6 228.5 3258.6 240 3263 250.7 3271.2 258.9 3281.9 263.3 3293.4 263.3 3304 258.9 3312.2 250.7 3316.6 240 3316.6 228.5 3312.2 217.8 3304 209.7 3293.4 205.3 3281.9 205.3 3271.2 209.7 M 3260.3 224.5 2414.9 224.5 M 2416.6 240.4 3258.8 240.4 M 3268.6 256.2 2738.2 256.2 M 2736.4 255.5 2724.8 255.5 2714.2 259.9 2706 268.1 2701.6 278.7 2701.6 290.2 2706 300.9 2714.2 309.1 2724.8 313.5 2736.4 313.5 2747 309.1 2755.2 300.9 2759.6 290.2 2759.6 278.7 2755.2 268.1 2747 259.9 2736.4 255.5 M 2723 256.2 2406.9 256.2 M 2347.2 192.8 3473.6 192.8 M 3473.6 190 3473.6 207.9 3501.7 236 3549.6 236 3549.6 190 3553.6 190 3553.6 186 3629.6 186 3629.6 168.1 3601.5 140 3553.6 140 3553.6 186 3549.6 186 3549.6 140 3501.7 140 3473.6 168.1 3473.6 186 3549.6 186 3549.6 190 3473.6 190 M 3473.6 177 3108.8 177 M 3121.1 161.1 3480.6 161.1 M 3496.4 145.2 3122.1 145.2 M 3112 129.4 3739 129.4 M 3734.4 145.2 3606.7 145.2 M 3622.6 161.1 3731.4 161.1 M 3730 177 3629.6 177 M 3629.6 190 3553.6 190 3553.6 236 3601.5 236 3629.6 207.9 3629.6 190 M 3629.6 192.8 3730 192.8 M 3731.6 208.7 3628.8 208.7 M 3612.9 224.5 3734.7 224.5 M 3739.4 240.4 3316.5 240.4 M 3315 224.5 3490.2 224.5 M 3502.5 242 3475.6 268.9 3475.6 307 3502.5 334 3600.6 334 3627.6 307 3627.6 268.9 3600.6 242 3502.5 242 M 3488.3 256.2 3306.7 256.2 M 3301.6 208.7 3474.4 208.7 M 3475.6 272.1 2756.8 272.1 M 2759.6 287.9 3475.6 287.9 M 3475.6 303.8 2752.3 303.8 M 2733 319.6 3488.2 319.6 M 3502.5 342 3475.6 368.9 3475.6 407 3502.5 434 3600.6 434 3627.6 407 3627.6 368.9 3600.6 342 3502.5 342 M 3493.2 351.4 2739.8 351.4 M 2741.9 346.3 2737.5 357 2729.3 365.2 2718.7 369.6 2707.1 369.6 2696.5 365.2 2688.3 357 2683.9 346.3 2683.9 334.8 2688.3 324.1 2696.5 316 2707.1 311.6 2718.7 311.6 2729.3 316 2737.5 324.1 2741.9 334.8 2741.9 346.3 M 2741.9 335.5 3824.8 335.5 M 3834.2 339.8 3834.2 339.8 M 3807.1 325.8 3807.1 325.8 M 3798.4 319.6 3615 319.6 M 3627.6 303.8 3779.8 303.8 M 3783 307 3783 307 M 3794.6 317 3794.6 317 M 3772.3 296.1 3772.3 296.1 M 3765.6 287.9 3627.6 287.9 M 3627.6 272.1 3754.4 272.1 M 3754.1 271.6 3754.1 271.6 M 3745.9 256.2 3614.9 256.2 M 3553.6 224.5 3549.6 224.5 M 3549.6 208.7 3553.6 208.7 M 3553.6 192.8 3549.6 192.8 M 3549.6 177 3553.6 177 M 3553.6 161.1 3549.6 161.1 M 3549.6 145.2 3553.6 145.2 M 3610 351.4 3881.1 351.4 M 3893.8 352.2 3893.8 352.2 M 3909.1 351.9 3909.1 351.9 M 3913.6 351.4 3992.1 351.4 M 3992.1 367.2 3625.9 367.2 M 3627.6 383.1 3992.1 383.1 M 3992.1 398.9 3627.6 398.9 M 3619.8 414.8 3992.2 414.8 M 3992.2 430.6 3604 430.6 M 3600.6 442 3502.5 442 3475.6 468.9 3475.6 507 3502.5 534 3600.6 534 3627.6 507 3627.6 468.9 3600.6 442 M 3605.1 446.5 3992.2 446.5 M 3992.2 462.3 3621 462.3 M 3627.6 478.2 3992.3 478.2 M 3992.3 494 3627.6 494 M 3624.7 509.9 3992.3 509.9 M 3992.3 525.8 3608.9 525.8 M 3600.6 542 3502.5 542 3475.6 568.9 3475.6 607 3502.5 634 3600.6 634 3627.6 607 3627.6 568.9 3600.6 542 M 3616.1 557.5 3992.4 557.5 M 3992.4 573.3 3627.6 573.3 M 3627.6 589.2 3992.4 589.2 M 3992.4 605 3627.6 605 M 3613.7 620.9 3992.5 620.9 M 3992.5 636.7 2745.4 636.7 M 2742.7 639.4 2750.9 631.3 2755.3 620.6 2755.3 609.1 2750.9 598.4 2742.7 590.2 2732.1 585.8 2720.5 585.8 2709.9 590.2 2701.7 598.4 2697.3 609.1 2697.3 620.6 2701.7 631.3 2709.9 639.4 2720.5 643.8 2732.1 643.8 2742.7 639.4 M 2755.2 620.9 3489.4 620.9 M 3475.6 605 2753.6 605 M 2740.1 589.2 3475.6 589.2 M 3475.6 573.3 2516.6 573.3 M 2516.6 568.5 2512.2 557.8 2504 549.7 2493.4 545.3 2481.9 545.3 2471.2 549.7 2463 557.8 2458.6 568.5 2458.6 580 2463 590.7 2471.2 598.9 2481.9 603.3 2493.4 603.3 2504 598.9 2512.2 590.7 2516.6 580 2516.6 568.5 M 2511.8 557.5 2693.8 557.5 M 2694.3 558.8 2702.5 567 2713.2 571.4 2724.7 571.4 2735.4 567 2743.5 558.8 2747.9 548.1 2747.9 536.6 2743.5 526 2737.7 520.1 2738.7 519.7 2746.8 511.5 2751.2 500.9 2751.2 489.3 2746.8 478.7 2738.7 470.5 2728 466.1 2716.5 466.1 2705.8 470.5 2697.7 478.7 2693.2 489.3 2693.2 500.9 2697.7 511.5 2703.5 517.4 2702.5 517.8 2694.3 526 2689.9 536.6 2689.9 548.1 2694.3 558.8 M 2689.9 541.6 2360.8 541.6 M 2360.8 545 2356.4 555.6 2348.2 563.8 2337.6 568.2 2326 568.2 2315.4 563.8 2307.2 555.6 2302.8 545 2302.8 533.4 2307.2 522.8 2315.4 514.6 2326 510.2 2337.6 510.2 2348.2 514.6 2356.4 522.8 2360.8 533.4 2360.8 545 M 2354.5 557.5 2463.4 557.5 M 2458.6 573.3 974.8 573.3 M 975 573.4 953.9 564.7 931.1 564.7 910 573.4 893.9 589.5 885.2 610.6 885.2 633.4 893.9 654.5 910 670.6 931.1 679.4 953.9 679.4 975 670.6 991.1 654.5 999.8 633.4 999.8 610.6 991.1 589.5 975 573.4 M 990.7 589.2 2462.4 589.2 M 2512.8 589.2 2712.5 589.2 M 2699 605 997.5 605 M 999.8 620.9 2697.4 620.9 M 2707.2 636.7 998.5 636.7 M 991.9 652.6 3491.9 652.6 M 3502.5 642 3475.6 668.9 3475.6 707 3502.5 734 3600.6 734 3627.6 707 3627.6 668.9 3600.6 642 3502.5 642 M 3476.1 668.4 977.2 668.4 M 907.8 668.4 834.9 668.4 M 834.9 669.6 834.9 626.6 781.4 626.6 781.4 615 834.9 615 834.9 572 824.4 561.5 781.4 561.5 781.4 615 769.8 615 769.8 561.5 726.8 561.5 716.2 572 716.2 615 769.8 615 769.8 626.6 781.4 626.6 781.4 680.1 824.4 680.1 834.9 669.6 M 834.9 652.6 893.1 652.6 M 886.5 636.7 834.9 636.7 M 834.9 605 887.5 605 M 885.2 620.9 781.4 620.9 M 769.8 620.9 102.9 620.9 M 102.9 636.7 716.2 636.7 M 716.2 626.6 716.2 669.6 726.8 680.1 769.8 680.1 769.8 626.6 716.2 626.6 M 716.2 605 103 605 M 103 589.2 716.2 589.2 M 716.2 573.3 103 573.3 M 103 557.5 550.2 557.5 M 535.7 551.4 576.5 568.3 620.6 568.3 661.4 551.4 692.6 520.2 709.5 479.4 709.5 435.3 692.6 394.5 661.4 363.3 620.6 346.4 576.5 346.4 535.7 363.3 504.4 394.5 487.6 435.3 487.6 479.4 504.4 520.2 535.7 551.4 M 525.8 541.6 103 541.6 M 103 525.8 510 525.8 M 500.2 509.9 103.1 509.9 M 103.1 494 493.6 494 M 487.6 478.2 103.1 478.2 M 103.1 462.3 487.6 462.3 M 487.6 446.5 103.1 446.5 M 103.1 430.6 489.5 430.6 M 496 414.8 103.2 414.8 M 103.2 398.9 502.6 398.9 M 515.9 383.1 103.2 383.1 M 103.2 367.2 531.7 367.2 M 564.4 351.4 103.2 351.4 M 103.3 335.5 126.5 335.5 M 188.3 348.9 188.3 348.9 M 203.6 348.5 203.6 348.5 M 218.8 346.8 218.8 346.8 M 248.4 339.2 248.4 339.2 M 257.5 335.5 2063 335.5 M 2063 339.1 2067.4 349.8 2075.6 358 2086.2 362.4 2097.8 362.4 2108.4 358 2116.6 349.8 2121 339.1 2121 327.6 2116.6 316.9 2108.4 308.8 2097.8 304.4 2086.2 304.4 2075.6 308.8 2067.4 316.9 2063 327.6 2063 339.1 M 2068.9 351.4 1151 351.4 M 1140.7 347.1 1096.5 347.1 1055.7 364 1024.5 395.2 1007.6 436 1007.6 480.1 1024.5 520.9 1055.7 552.1 1096.5 569 1140.7 569 1181.5 552.1 1212.7 520.9 1229.6 480.1 1229.6 436 1212.7 395.2 1181.5 364 1140.7 347.1 M 1184.7 367.2 2269.6 367.2 M 2268.3 367.7 2260.2 375.9 2255.8 386.5 2255.8 398.1 2260.2 408.7 2268.3 416.9 2279 421.3 2290.5 421.3 2301.2 416.9 2309.4 408.7 2313.8 398.1 2313.8 386.5 2309.4 375.9 2301.2 367.7 2290.5 363.3 2279 363.3 2268.3 367.7 M 2257.2 383.1 1200.6 383.1 M 1214.2 398.9 2256.1 398.9 M 2266.2 414.8 1220.8 414.8 M 1227.4 430.6 3499.2 430.6 M 3498 446.5 2486.3 446.5 M 2483.4 445.3 2471.9 445.3 2461.2 449.7 2453 457.8 2448.6 468.5 2448.6 480 2453 490.7 2461.2 498.9 2471.9 503.3 2483.4 503.3 2494 498.9 2502.2 490.7 2506.6 480 2506.6 468.5 2502.2 457.8 2494 449.7 2483.4 445.3 M 2468.9 446.5 1229.6 446.5 M 1229.6 462.3 2451.2 462.3 M 2448.6 478.2 1229.6 478.2 M 1223.8 494 2456.4 494 M 2498.9 494 2540.5 494 M 2538.6 498.5 2538.6 510 2543 520.7 2551.2 528.9 2561.9 533.3 2573.4 533.3 2584 528.9 2592.2 520.7 2596.6 510 2596.6 498.5 2592.2 487.8 2584 479.7 2573.4 475.3 2561.9 475.3 2551.2 479.7 2543 487.8 2538.6 498.5 M 2538.6 509.9 1217.2 509.9 M 1207.9 525.8 2306 525.8 M 2302.8 541.6 1192 541.6 M 1168.6 557.5 2309 557.5 M 2357.6 525.8 2548.1 525.8 M 2587.1 525.8 2694.5 525.8 M 2697 509.9 2596.6 509.9 M 2594.8 494 2693.2 494 M 2698.2 478.2 2580.4 478.2 M 2554.8 478.2 2506.6 478.2 M 2504.1 462.3 3482.2 462.3 M 3475.6 478.2 3350.7 478.2 M 3351.4 478.9 3343.2 470.7 3332.6 466.3 3321.1 466.3 3310.4 470.7 3302.2 478.9 3297.8 489.5 3297.8 501.1 3302.2 511.7 3310.4 519.9 3321.1 524.3 3332.6 524.3 3343.2 519.9 3351.4 511.7 3355.8 501.1 3355.8 489.5 3351.4 478.9 M 3355.8 494 3475.6 494 M 3478.4 509.9 3352.2 509.9 M 3313.9 527.8 3318.3 538.5 3318.3 550 3313.9 560.7 3305.8 568.9 3295.1 573.3 3283.6 573.3 3272.9 568.9 3264.7 560.7 3260.3 550 3260.3 538.5 3264.7 527.8 3272.9 519.7 3283.6 515.3 3295.1 515.3 3305.8 519.7 3313.9 527.8 M 3311.8 525.8 3494.3 525.8 M 3487.1 557.5 3315.3 557.5 M 3318.3 541.6 3992.4 541.6 M 3992.5 652.6 3611.2 652.6 M 3627.1 668.4 3992.5 668.4 M 3992.6 684.3 3627.6 684.3 M 3627.6 700.1 3992.6 700.1 M 3992.6 716 3618.6 716 M 3602.8 731.9 3992.6 731.9 M 3992.6 747.7 3313.1 747.7 M 3313.1 753.4 3308.7 764 3300.5 772.2 3289.8 776.6 3278.3 776.6 3267.6 772.2 3259.5 764 3255.1 753.4 3255.1 741.8 3259.5 731.2 3267.6 723 3278.3 718.6 3289.8 718.6 3300.5 723 3308.7 731.2 3313.1 741.8 3313.1 753.4 M 3308.8 763.6 3992.7 763.6 M 3992.7 779.4 2315.6 779.4 M 2315.6 777.4 2311.2 766.8 2303.1 758.6 2292.4 754.2 2280.9 754.2 2270.2 758.6 2262.1 766.8 2257.6 777.4 2257.6 789 2262.1 799.6 2270.2 807.8 2280.9 812.2 2292.4 812.2 2303.1 807.8 2311.2 799.6 2315.6 789 2315.6 777.4 M 2308 763.6 3095.9 763.6 M 3093 760.7 3101.2 768.9 3111.9 773.3 3123.4 773.3 3134 768.9 3142.2 760.7 3146.6 750 3146.6 738.5 3142.2 727.8 3134 719.7 3123.4 715.3 3111.9 715.3 3101.2 719.7 3093 727.8 3088.6 738.5 3088.6 750 3093 760.7 M 3088.6 747.7 1238.2 747.7 M 1238.2 736.3 1211.2 709.4 1113.1 709.4 1086.2 736.3 1086.2 774.5 1113.1 801.4 1211.2 801.4 1238.2 774.5 1238.2 736.3 M 1233.7 731.9 3091.4 731.9 M 3110.1 716 1217.8 716 M 1238.2 763.6 2265.3 763.6 M 2257.6 779.4 2193.4 779.4 M 2194 779.7 2183.4 775.3 2171.9 775.3 2161.2 779.7 2153 787.8 2148.6 798.5 2148.6 810 2153 820.7 2161.2 828.9 2171.9 833.3 2183.4 833.3 2194 828.9 2202.2 820.7 2206.6 810 2206.6 798.5 2202.2 787.8 2194 779.7 M 2205.3 795.3 2260.2 795.3 M 2278.3 811.1 2206.2 811.1 M 2195.9 827 3738.7 827 M 3748.2 817.5 3721.2 844.5 3721.2 882.6 3748.2 909.5 3786.3 909.5 3813.2 882.6 3813.2 844.5 3786.3 817.5 3748.2 817.5 M 3722.9 842.8 1238.2 842.8 M 1238.2 836.3 1211.2 809.4 1113.1 809.4 1086.2 836.3 1086.2 874.5 1113.1 901.4 1211.2 901.4 1238.2 874.5 1238.2 836.3 M 1228.8 827 2159.3 827 M 2149.1 811.1 1213 811.1 M 1217.4 795.3 2150 795.3 M 2161.8 779.4 1233.2 779.4 M 1238.2 858.7 1376 858.7 M 1372.7 862 1368.3 872.7 1368.3 884.2 1372.7 894.9 1380.9 903.1 1391.5 907.5 1403 907.5 1413.7 903.1 1421.9 894.9 1426.3 884.2 1426.3 872.7 1421.9 862 1413.7 853.9 1403 849.5 1391.5 849.5 1380.9 853.9 1372.7 862 M 1368.3 874.5 1238.1 874.5 M 1222.2 890.4 1370.8 890.4 M 1388.6 906.3 353.6 906.3 M 353.6 917.1 321.4 949.3 197.8 949.3 165.6 917.1 165.6 871.5 197.8 839.3 321.4 839.3 353.6 871.5 353.6 917.1 M 348.6 922.1 1588.6 922.1 M 1588.6 918.5 1588.6 930 1593 940.7 1601.2 948.9 1611.9 953.3 1623.4 953.3 1634 948.9 1642.2 940.7 1646.6 930 1646.6 918.5 1642.2 907.8 1634 899.7 1623.4 895.3 1611.9 895.3 1601.2 899.7 1593 907.8 1588.6 918.5 M 1594.6 906.3 1406 906.3 M 1423.7 890.4 3729 890.4 M 3721.2 874.5 1426.3 874.5 M 1418.5 858.7 3721.2 858.7 M 3744.9 906.3 1640.6 906.3 M 1646.6 922.1 3743.6 922.1 M 3748.2 917.5 3721.2 944.5 3721.2 982.6 3748.2 1009.5 3786.3 1009.5 3813.2 982.6 3813.2 944.5 3786.3 917.5 3748.2 917.5 M 3727.8 938 1929.8 938 M 1928.1 936.2 1955 963.2 1955 1061.3 1928.1 1088.2 1889.9 1088.2 1863 1061.3 1863 963.2 1889.9 936.2 1928.1 936.2 M 1945.6 953.8 3721.2 953.8 M 3721.2 969.7 1955 969.7 M 1955 985.5 3701.2 985.5 M 3701.9 985.3 3691.2 989.7 3683 997.8 3678.6 1008.5 3678.6 1020 3683 1030.7 3691.2 1038.9 3701.9 1043.3 3713.4 1043.3 3724 1038.9 3732.2 1030.7 3736.6 1020 3736.6 1008.5 3732.2 997.8 3724 989.7 3713.4 985.3 3701.9 985.3 M 3714 985.5 3724.2 985.5 M 3733.7 1001.4 3740 1001.4 M 3736.6 1017.2 3993 1017.2 M 3993 1001.4 3894.4 1001.4 M 3886.3 1009.5 3913.2 982.6 3913.2 944.5 3886.3 917.5 3848.2 917.5 3821.2 944.5 3821.2 982.6 3848.2 1009.5 3886.3 1009.5 M 3886.3 1017.5 3848.2 1017.5 3821.2 1044.5 3821.2 1082.6 3848.2 1109.5 3886.3 1109.5 3913.2 1082.6 3913.2 1044.5 3886.3 1017.5 M 3901.8 1033.1 3993.1 1033.1 M 3993.1 1048.9 3913.2 1048.9 M 3913.2 1064.8 3993.1 1064.8 M 3993.1 1080.7 3913.2 1080.7 M 3899.3 1096.5 3993.2 1096.5 M 3993.2 1112.4 2069.1 1112.4 M 2069.6 1111.8 2074 1101.2 2074 1089.6 2069.6 1079 2061.5 1070.8 2050.8 1066.4 2039.3 1066.4 2028.6 1070.8 2020.5 1079 2016 1089.6 2016 1101.2 2020.5 1111.8 2028.6 1120 2039.3 1124.4 2050.8 1124.4 2061.5 1120 2069.6 1111.8 M 2074 1096.5 3735.1 1096.5 M 3748.2 1109.5 3786.3 1109.5 3813.2 1082.6 3813.2 1044.5 3786.3 1017.5 3748.2 1017.5 3721.2 1044.5 3721.2 1082.6 3748.2 1109.5 M 3748.2 1117.5 3721.2 1144.5 3721.2 1182.6 3748.2 1209.5 3786.3 1209.5 3813.2 1182.6 3813.2 1144.5 3786.3 1117.5 3748.2 1117.5 M 3737.5 1128.2 348.6 1128.2 M 355.4 1121.4 323.2 1153.6 199.7 1153.6 167.4 1121.4 167.4 1075.8 199.7 1043.6 323.2 1043.6 355.4 1075.8 355.4 1121.4 M 355.4 1112.4 2021 1112.4 M 2016 1096.5 355.4 1096.5 M 355.4 1080.7 1782.4 1080.7 M 1789.9 1088.2 1828.1 1088.2 1855 1061.3 1855 963.2 1828.1 936.2 1789.9 936.2 1763 963.2 1763 1061.3 1789.9 1088.2 M 1766.5 1064.8 344.4 1064.8 M 328.6 1048.9 1763 1048.9 M 1763 1033.1 102.5 1033.1 M 102.4 1048.9 194.3 1048.9 M 178.4 1064.8 102.4 1064.8 M 102.4 1080.7 167.4 1080.7 M 167.4 1096.5 102.4 1096.5 M 102.4 1112.4 167.4 1112.4 M 174.3 1128.2 102.4 1128.2 M 102.3 1144.1 190.2 1144.1 M 102.3 1159.9 1532.2 1159.9 M 1533 1157.8 1528.6 1168.5 1528.6 1180 1533 1190.7 1541.2 1198.9 1551.9 1203.3 1563.4 1203.3 1574 1198.9 1582.2 1190.7 1586.6 1180 1586.6 1168.5 1582.2 1157.8 1574 1149.7 1563.4 1145.3 1551.9 1145.3 1541.2 1149.7 1533 1157.8 M 1528.6 1175.8 102.3 1175.8 M 102.3 1191.6 1534 1191.6 M 1581.3 1191.6 2134 1191.6 M 2133 1190.7 2141.2 1198.9 2142.2 1199.3 2141.2 1199.7 2133 1207.8 2128.6 1218.5 2128.6 1230 2133 1240.7 2141.2 1248.9 2151.9 1253.3 2163.4 1253.3 2174 1248.9 2182.2 1240.7 2186.6 1230 2186.6 1218.5 2182.2 1207.8 2174 1199.7 2173 1199.3 2174 1198.9 2182.2 1190.7 2186.6 1180 2186.6 1168.5 2182.2 1157.8 2174 1149.7 2163.4 1145.3 2151.9 1145.3 2141.2 1149.7 2133 1157.8 2128.6 1168.5 2128.6 1180 2133 1190.7 M 2128.6 1175.8 1586.6 1175.8 M 1583.1 1159.9 2132.2 1159.9 M 2183.1 1159.9 3721.2 1159.9 M 3721.6 1144.1 332.7 1144.1 M 323.2 1241.6 199.7 1241.6 167.4 1273.8 167.4 1319.4 199.7 1351.6 323.2 1351.6 355.4 1319.4 355.4 1273.8 323.2 1241.6 M 336.7 1255.1 1574.3 1255.1 M 1570.5 1258.8 1579.3 1250 1590.9 1245.2 1603.4 1245.2 1615 1250 1623.9 1258.8 1628.7 1270.4 1628.7 1282.9 1623.9 1294.5 1618.1 1300.3 1624.3 1306.4 1629.1 1318 1629.1 1330.5 1624.3 1342.1 1615.5 1351 1603.9 1355.8 1591.4 1355.8 1579.8 1351 1570.9 1342.1 1566.1 1330.5 1566.1 1318 1570.9 1306.4 1576.7 1300.7 1570.5 1294.5 1565.7 1282.9 1565.7 1270.4 1570.5 1258.8 M 1565.7 1270.9 352.6 1270.9 M 355.4 1286.8 1567.3 1286.8 M 1574.7 1302.6 355.4 1302.6 M 355.4 1318.5 1566.1 1318.5 M 1567.7 1334.3 340.5 1334.3 M 324.6 1350.2 1579 1350.2 M 1581.4 1372.8 1569.8 1377.6 1560.9 1386.4 1556.1 1398 1556.1 1410.5 1560.9 1422.1 1569.8 1431 1581.4 1435.8 1593.9 1435.8 1605.5 1431 1614.3 1422.1 1619.1 1410.5 1619.1 1398 1614.3 1386.4 1605.5 1377.6 1593.9 1372.8 1581.4 1372.8 M 1565.5 1381.9 102.1 1381.9 M 102 1397.7 1556.2 1397.7 M 1557.4 1413.6 102 1413.6 M 102 1429.4 1568.3 1429.4 M 1607 1429.4 1756.1 1429.4 M 1756.1 1420.3 1756.1 1459.7 1765.5 1469.1 1818.8 1469.1 1858.1 1469.1 1897.5 1469.1 1920.1 1469.1 1922.1 1471.1 1949.6 1471.1 1949.6 1433.1 1950 1433.1 1950 1684.3 1947.6 1684.3 1946.4 1684.3 1947.2 1680.5 1675.6 1680.5 1677.3 1688.8 1677.3 1682 1607.6 1682 1607.6 1713.6 1337.6 1713.6 1337.6 1871.5 1325.9 1871.5 M 1384.7 1928.9 1411.4 1902.1 1449.3 1902.1 1476.1 1928.9 1476.1 2026.1 1468 2034.1 1474.7 2034.1 1553.4 2112.9 1667.6 2112.9 1709.4 2112.9 1738.9 2142.4 1739 2142.5 1739 2162.1 1739.1 2162.2 1739.1 2457.4 1739.1 2499.3 1709.5 2528.8 1555.6 2528.8 1485.5 2593.7 1471.4 2607.8 1450.5 2607.8 1450.4 2607.8 1429.6 2607.8 1429.6 2607.8 1001.2 2607.6 980.1 2607.6 930.8 2558.3 930.8 2516.5 930.8 2360.7 662.4 2360.7 638.4 2336.7 638.4 2302.7 638.4 1940 342 1940 328 1954 204.4 1954 172.2 1921.8 172.2 1876.2 204.4 1844 328 1844 342 1858 662.4 1858 696.4 1858 720.4 1882 720.4 2278.7 930.8 2278.7 930.8 2125.2 930.8 2083.4 950.5 2063.7 980.1 2034.1 1392.7 2034.1 1384.7 2026.1 1384.7 1928.9 M 1384.7 1936.8 720.4 1936.8 M 720.4 1952.6 1384.7 1952.6 M 1384.7 1968.5 720.4 1968.5 M 720.4 1984.4 1384.7 1984.4 M 1384.7 2000.2 720.4 2000.2 M 720.4 2016.1 1384.7 2016.1 M 1390.5 2031.9 720.4 2031.9 M 720.4 2047.8 966.5 2047.8 M 950.6 2063.6 720.4 2063.6 M 720.4 2079.5 934.8 2079.5 M 930.8 2095.3 720.4 2095.3 M 720.4 2111.2 930.8 2111.2 M 930.8 2127 720.4 2127 M 720.4 2142.9 930.8 2142.9 M 930.8 2158.7 720.4 2158.7 M 720.4 2174.6 930.8 2174.6 M 930.8 2190.5 720.4 2190.5 M 720.4 2206.3 930.8 2206.3 M 930.8 2222.2 720.4 2222.2 M 720.4 2238 930.8 2238 M 930.8 2253.9 720.4 2253.9 M 720.4 2269.7 930.8 2269.7 M 930.8 2364.9 100.9 2364.9 M 100.9 2380.7 930.8 2380.7 M 930.8 2396.6 100.9 2396.6 M 100.9 2412.4 930.8 2412.4 M 930.8 2428.3 100.9 2428.3 M 100.8 2444.1 930.8 2444.1 M 930.8 2460 263.7 2460 M 268 2461.7 268 2461.7 M 281.6 2468.8 281.6 2468.8 M 292.7 2475.8 930.8 2475.8 M 930.8 2491.7 312.3 2491.7 M 327.3 2507.5 930.8 2507.5 M 930.8 2523.4 338.8 2523.4 M 337 2520.5 337 2520.5 M 327.9 2508.2 327.9 2508.2 M 345 2533.6 345 2533.6 M 347.8 2539.3 930.8 2539.3 M 930.8 2555.1 354.7 2555.1 M 357.2 2561.6 357.2 2561.6 M 359.8 2571 943.5 2571 M 959.3 2586.8 363.2 2586.8 M 365.1 2602.7 975.2 2602.7 M 650.7 2349 101 2349 M 101 2333.1 638.4 2333.1 M 638.4 2317.3 101 2317.3 M 101 2301.4 638.4 2301.4 M 638.4 2285.6 101 2285.6 M 101 2269.7 638.4 2269.7 M 638.4 2253.9 101.1 2253.9 M 101.1 2238 638.4 2238 M 638.4 2222.2 101.1 2222.2 M 101.1 2206.3 638.4 2206.3 M 638.4 2190.5 101.1 2190.5 M 101.2 2174.6 638.4 2174.6 M 638.4 2158.7 101.2 2158.7 M 101.2 2142.9 195.3 2142.9 M 204.4 2152 172.2 2119.8 172.2 2074.2 204.4 2042 328 2042 360.2 2074.2 360.2 2119.8 328 2152 204.4 2152 M 179.5 2127 101.2 2127 M 101.2 2111.2 172.2 2111.2 M 172.2 2095.3 101.2 2095.3 M 101.3 2079.5 172.2 2079.5 M 182.8 2063.6 101.3 2063.6 M 101.3 2047.8 198.6 2047.8 M 101.3 2031.9 638.4 2031.9 M 638.4 2016.1 101.3 2016.1 M 101.4 2000.2 638.4 2000.2 M 638.4 1984.4 101.4 1984.4 M 101.4 1968.5 638.4 1968.5 M 638.4 1952.6 329.3 1952.6 M 341.5 1857.5 2222.8 1857.5 M 2222.8 1860 2227.2 1870.7 2235.3 1878.9 2246 1883.3 2257.5 1883.3 2268.2 1878.9 2276.3 1870.7 2280.8 1860 2280.8 1848.5 2276.3 1837.8 2268.2 1829.7 2257.5 1825.3 2246 1825.3 2235.3 1829.7 2227.2 1837.8 2222.8 1848.5 2222.8 1860 M 2229.9 1873.4 711.7 1873.4 M 720.4 1889.2 3994.3 1889.2 M 3994.3 1873.4 2273.7 1873.4 M 2280.8 1857.5 3994.3 1857.5 M 3994.2 1841.7 2277.9 1841.7 M 2258.8 1825.8 3994.2 1825.8 M 3994.2 1810 2428.1 1810 M 2422.8 1812.1 2433.5 1807.7 2441.6 1799.6 2446.1 1788.9 2446.1 1777.4 2441.6 1766.7 2433.5 1758.6 2422.8 1754.1 2411.3 1754.1 2400.6 1758.6 2392.5 1766.7 2388.1 1777.4 2388.1 1788.9 2392.5 1799.6 2400.6 1807.7 2411.3 1812.1 2422.8 1812.1 M 2406 1810 2111.4 1810 M 2114 1808.9 2122.2 1800.7 2126.6 1790 2126.6 1778.5 2122.2 1767.8 2114 1759.7 2103.4 1755.3 2091.9 1755.3 2081.2 1759.7 2073 1767.8 2068.6 1778.5 2068.6 1790 2073 1800.7 2081.2 1808.9 2091.9 1813.3 2103.4 1813.3 2114 1808.9 M 2124.9 1794.1 2390.2 1794.1 M 2388.1 1778.2 2126.5 1778.2 M 2116.8 1762.4 2396.8 1762.4 M 2437.3 1762.4 3994.1 1762.4 M 3994.1 1778.2 2446.1 1778.2 M 2443.9 1794.1 3994.2 1794.1 M 3994.1 1746.5 1093.3 1746.5 M 1091.7 1748.1 1099.8 1740 1104.2 1729.3 1104.2 1717.8 1099.8 1707.1 1091.7 1699 2832.3 1699 M 2842.3 1709 2815.5 1682.2 2815.5 1585 2842.3 1558.2 2880.1 1558.2 2906.9 1585 2906.9 1682.2 2880.1 1709 2842.3 1709 M 2816.4 1683.1 2253.8 1683.1 M 2247.5 1689.4 2274.5 1662.5 2274.5 1624.3 2247.5 1597.4 2149.4 1597.4 2122.5 1624.3 2122.5 1662.5 2149.4 1689.4 2247.5 1689.4 M 2269.7 1667.3 2815.5 1667.3 M 2815.5 1651.4 2274.5 1651.4 M 2274.5 1635.6 2815.5 1635.6 M 2815.5 1619.7 2269.8 1619.7 M 2254 1603.8 2815.5 1603.8 M 2815.5 1588 2248.9 1588 M 2247.5 1589.4 2274.5 1562.5 2274.5 1524.3 2247.5 1497.4 2149.4 1497.4 2122.5 1524.3 2122.5 1562.5 2149.4 1589.4 2247.5 1589.4 M 2264.8 1572.1 2828.4 1572.1 M 2894 1572.1 3721.2 1572.1 M 3721.2 1582.6 3748.2 1609.5 3786.3 1609.5 3813.2 1582.6 3813.2 1544.5 3786.3 1517.5 3748.2 1517.5 3721.2 1544.5 3721.2 1582.6 M 3726.6 1588 2906.9 1588 M 2906.9 1603.8 3742.5 1603.8 M 3792 1603.8 3839.6 1603.8 M 3847.3 1611.5 3819.2 1583.4 3819.2 1565.5 3865.2 1565.5 3865.2 1561.5 3865.2 1515.5 3847.3 1515.5 3819.2 1543.7 3819.2 1561.5 3865.2 1561.5 3869.2 1561.5 3869.2 1515.5 3887.1 1515.5 3915.2 1543.7 3915.2 1561.5 3869.3 1561.5 3869.3 1565.5 3915.2 1565.5 3915.2 1583.4 3887.1 1611.5 3869.2 1611.5 3869.2 1565.6 3865.2 1565.6 3865.2 1611.5 3847.3 1611.5 M 3865.2 1603.8 3869.2 1603.8 M 3869.2 1588 3865.2 1588 M 3865.2 1572.1 3869.2 1572.1 M 3869.2 1556.3 3865.2 1556.3 M 3865.2 1540.4 3869.2 1540.4 M 3869.2 1524.6 3865.2 1524.6 M 3848.2 1509.5 3886.3 1509.5 3913.2 1482.6 3913.2 1444.5 3886.3 1417.5 3848.2 1417.5 3821.2 1444.5 3821.2 1482.6 3848.2 1509.5 M 3847.4 1508.7 3787.1 1508.7 M 3786.3 1509.5 3813.2 1482.6 3813.2 1444.5 3786.3 1417.5 3748.2 1417.5 3721.2 1444.5 3721.2 1482.6 3748.2 1509.5 3786.3 1509.5 M 3793.3 1524.6 3838.3 1524.6 M 3822.5 1540.4 3809.2 1540.4 M 3813.2 1556.3 3819.2 1556.3 M 3819.2 1572.1 3813.2 1572.1 M 3807.8 1588 3823.8 1588 M 3894.8 1603.8 3993.9 1603.8 M 3993.9 1588 3910.7 1588 M 3915.2 1572.1 3993.8 1572.1 M 3993.8 1556.3 3915.2 1556.3 M 3912 1540.4 3993.8 1540.4 M 3993.8 1524.6 3896.1 1524.6 M 3887.1 1508.7 3993.8 1508.7 M 3993.7 1492.9 3903 1492.9 M 3913.2 1477 3993.7 1477 M 3993.7 1461.2 3913.2 1461.2 M 3913.2 1445.3 3993.7 1445.3 M 3993.6 1429.4 3898.2 1429.4 M 3886.3 1409.5 3913.2 1382.6 3913.2 1344.5 3886.3 1317.5 3848.2 1317.5 3821.2 1344.5 3821.2 1382.6 3848.2 1409.5 3886.3 1409.5 M 3898.1 1397.7 3993.6 1397.7 M 3993.6 1381.9 3913.2 1381.9 M 3913.2 1366 3993.5 1366 M 3993.5 1350.2 3913.2 1350.2 M 3903.1 1334.3 3993.5 1334.3 M 3993.5 1318.5 3887.2 1318.5 M 3886.3 1309.5 3913.2 1282.6 3913.2 1244.5 3886.3 1217.5 3848.2 1217.5 3821.2 1244.5 3821.2 1282.6 3848.2 1309.5 3886.3 1309.5 M 3893.2 1302.6 3993.5 1302.6 M 3993.4 1286.8 3909.1 1286.8 M 3913.2 1270.9 3993.4 1270.9 M 3993.4 1255.1 3913.2 1255.1 M 3907.9 1239.2 3993.4 1239.2 M 3993.3 1223.3 3892.1 1223.3 M 3886.3 1209.5 3913.2 1182.6 3913.2 1144.5 3886.3 1117.5 3848.2 1117.5 3821.2 1144.5 3821.2 1182.6 3848.2 1209.5 3886.3 1209.5 M 3888.3 1207.5 3993.3 1207.5 M 3993.3 1191.6 3904.2 1191.6 M 3913.2 1175.8 3993.3 1175.8 M 3993.2 1159.9 3913.2 1159.9 M 3912.8 1144.1 3993.2 1144.1 M 3993.2 1128.2 3896.9 1128.2 M 3837.5 1128.2 3796.9 1128.2 M 3812.8 1144.1 3821.6 1144.1 M 3821.2 1159.9 3813.2 1159.9 M 3813.2 1175.8 3821.2 1175.8 M 3830.3 1191.6 3804.2 1191.6 M 3788.3 1207.5 3846.1 1207.5 M 3842.4 1223.3 3792.1 1223.3 M 3786.3 1217.5 3748.2 1217.5 3721.2 1244.5 3721.2 1282.6 3748.2 1309.5 3786.3 1309.5 3813.2 1282.6 3813.2 1244.5 3786.3 1217.5 M 3807.9 1239.2 3826.5 1239.2 M 3821.2 1255.1 3813.2 1255.1 M 3813.2 1270.9 3821.2 1270.9 M 3825.4 1286.8 3809.1 1286.8 M 3793.2 1302.6 3841.2 1302.6 M 3847.3 1318.5 3787.2 1318.5 M 3786.3 1317.5 3748.2 1317.5 3721.2 1344.5 3721.2 1382.6 3748.2 1409.5 3786.3 1409.5 3813.2 1382.6 3813.2 1344.5 3786.3 1317.5 M 3803.1 1334.3 3831.4 1334.3 M 3821.2 1350.2 3813.2 1350.2 M 3813.2 1366 3821.2 1366 M 3821.2 1381.9 3813.2 1381.9 M 3798.1 1397.7 3836.4 1397.7 M 3836.3 1429.4 3798.2 1429.4 M 3813.2 1445.3 3821.2 1445.3 M 3821.2 1461.2 3813.2 1461.2 M 3813.2 1477 3821.2 1477 M 3831.5 1492.9 3803 1492.9 M 3747.4 1508.7 2258.9 1508.7 M 2274.5 1524.6 3741.1 1524.6 M 3725.3 1540.4 2274.5 1540.4 M 2274.5 1556.3 3721.2 1556.3 M 3731.5 1492.9 358 1492.9 M 358 1508.7 2138.1 1508.7 M 2122.5 1524.6 354.8 1524.6 M 358 1521.3 325.8 1553.5 202.3 1553.5 170 1521.3 170 1475.7 202.3 1443.5 325.8 1443.5 358 1475.7 358 1521.3 M 338.9 1540.4 1286.8 1540.4 M 1296.3 1530.9 1268.2 1559.1 1268.2 1606.9 1314.1 1606.9 1314.1 1610.9 1268.2 1610.9 1268.2 1658.8 1296.3 1686.9 1314.1 1686.9 1314.1 1611 1318.2 1611 1318.2 1686.9 1336 1686.9 1364.1 1658.8 1364.1 1610.9 1318.2 1610.9 1318.2 1606.9 1364.1 1606.9 1364.1 1559.1 1336 1530.9 1318.2 1530.9 1318.2 1606.9 1314.1 1606.9 1314.1 1530.9 1296.3 1530.9 M 1314.1 1540.4 1318.2 1540.4 M 1318.2 1556.3 1314.1 1556.3 M 1314.1 1572.1 1318.2 1572.1 M 1318.2 1588 1314.1 1588 M 1314.1 1603.8 1318.2 1603.8 M 1316.1 1608.9 1314.3 1608.9 1314.3 1713.6 1337.6 1713.6 M 1339.8 1683.1 1395.3 1683.1 M 1397.1 1684.9 1370.2 1658 1370.2 1559.9 1397.1 1532.9 1435.2 1532.9 1462.1 1559.9 1462.1 1658 1435.2 1684.9 1397.1 1684.9 M 1379.4 1667.3 1355.7 1667.3 M 1364.1 1651.4 1370.2 1651.4 M 1370.2 1635.6 1364.1 1635.6 M 1364.1 1619.7 1370.2 1619.7 M 1370.2 1603.8 1364.1 1603.8 M 1364.1 1588 1370.2 1588 M 1370.2 1572.1 1364.1 1572.1 M 1361.4 1556.3 1373.7 1556.3 M 1389.6 1540.4 1345.5 1540.4 M 1270.9 1556.3 101.9 1556.3 M 101.8 1572.1 1268.2 1572.1 M 1268.2 1588 101.8 1588 M 101.8 1603.8 1268.2 1603.8 M 1268.2 1619.7 101.8 1619.7 M 101.8 1635.6 1268.2 1635.6 M 1268.2 1651.4 335.7 1651.4 M 325.8 1641.5 358 1673.7 358 1719.3 325.8 1751.5 202.3 1751.5 170 1719.3 170 1673.7 202.3 1641.5 325.8 1641.5 M 351.6 1667.3 1276.6 1667.3 M 1292.5 1683.1 358 1683.1 M 358 1699 1058.8 1699 1050.6 1707.1 1046.2 1717.8 1046.2 1729.3 1050.6 1740 1058.8 1748.1 1069.5 1752.6 1081 1752.6 1091.7 1748.1 M 1103.7 1730.7 3994.1 1730.7 M 3994 1714.8 1103 1714.8 M 1091.7 1699 1081 1694.6 1069.5 1694.6 1058.8 1699 M 1047.5 1714.8 358 1714.8 M 346.6 1730.7 1046.8 1730.7 M 1057.2 1746.5 330.8 1746.5 M 197.3 1746.5 101.6 1746.5 M 101.7 1730.7 181.4 1730.7 M 170 1714.8 101.7 1714.8 M 101.7 1699 170 1699 M 170 1683.1 101.7 1683.1 M 101.7 1667.3 176.5 1667.3 M 192.4 1651.4 101.8 1651.4 M 101.9 1540.4 189.2 1540.4 M 173.3 1524.6 101.9 1524.6 M 101.9 1508.7 170 1508.7 M 170 1492.9 101.9 1492.9 M 102 1477 170 1477 M 184.6 1461.2 102 1461.2 M 102 1445.3 200.5 1445.3 M 198.3 1350.2 102.1 1350.2 M 102.1 1366 1756.1 1366 M 1756.1 1381 1756.1 1341.6 1756.1 1302.2 1756.1 1249 1756.1 1209.6 1765.5 1200.2 1818.8 1200.2 1858.1 1200.2 1897.5 1200.2 1923 1200.2 1976.2 1200.2 1985.6 1209.6 1985.6 1262.9 1985.6 1302.2 1985.6 1341.6 1985.6 1381 1985.6 1403.6 1987.6 1405.6 1987.6 1433.1 1949.6 1433.1 1997.2 1433.1 1997.2 936.9 2386.4 936.9 2386.4 1177.1 2385.9 1177.1 M 2255.6 1253.8 2260 1264.4 2260 1276 2255.6 1286.6 2247.5 1294.8 2236.8 1299.2 2225.3 1299.2 2214.6 1294.8 2206.5 1286.6 2202 1276 2202 1264.4 2206.5 1253.8 2214.6 1245.6 2225.3 1241.2 2236.8 1241.2 2247.5 1245.6 2255.6 1253.8 M 2256.2 1255.1 3721.2 1255.1 M 3721.2 1270.9 2589.4 1270.9 M 2588.5 1270.1 2577.9 1265.6 2566.3 1265.6 2555.7 1270.1 2547.5 1278.2 2543.1 1288.9 2543.1 1300.4 2547.5 1311.1 2555.7 1319.2 2566.3 1323.6 2577.9 1323.6 2588.5 1319.2 2596.7 1311.1 2601.1 1300.4 2601.1 1288.9 2596.7 1278.2 2588.5 1270.1 M 2600.2 1286.8 3725.4 1286.8 M 3741.2 1302.6 2600.2 1302.6 M 2589.3 1318.5 3747.3 1318.5 M 3731.4 1334.3 2515.6 1334.3 M 2517.3 1330.2 2512.5 1341.7 2503.7 1350.6 2492.1 1355.4 2479.5 1355.4 2468 1350.6 2459.1 1341.7 2454.3 1330.2 2454.3 1317.6 2459.1 1306 2468 1297.2 2479.5 1292.4 2492.1 1292.4 2503.7 1297.2 2512.5 1306 2517.3 1317.6 2517.3 1330.2 M 2517.3 1318.5 2554.9 1318.5 M 2544 1302.6 2509.1 1302.6 M 2544 1286.8 2255.5 1286.8 M 2260 1270.9 2554.8 1270.9 M 2462.5 1302.6 2169.9 1302.6 M 2169.9 1297 2165.5 1286.3 2157.3 1278.2 2146.7 1273.8 2135.1 1273.8 2124.5 1278.2 2116.3 1286.3 2111.9 1297 2111.9 1308.5 2116.3 1319.2 2124.5 1327.3 2135.1 1331.8 2146.7 1331.8 2157.3 1327.3 2165.5 1319.2 2169.9 1308.5 2169.9 1297 M 2165.7 1286.8 2206.6 1286.8 M 2202 1270.9 1985.6 1270.9 M 1985.6 1255.1 2205.9 1255.1 M 2182.8 1239.2 3726.5 1239.2 M 3742.4 1223.3 2186.6 1223.3 M 2181.9 1207.5 3746.1 1207.5 M 3730.3 1191.6 2181.3 1191.6 M 2186.6 1175.8 3721.2 1175.8 M 3799.3 1096.5 3835.1 1096.5 M 3821.2 1080.7 3813.2 1080.7 M 3813.2 1064.8 3821.2 1064.8 M 3821.2 1048.9 3813.2 1048.9 M 3801.8 1033.1 3832.6 1033.1 M 3840 1001.4 3794.4 1001.4 M 3810.3 985.5 3824.2 985.5 M 3821.2 969.7 3813.2 969.7 M 3813.2 953.8 3821.2 953.8 M 3827.8 938 3806.7 938 M 3790.8 922.1 3843.6 922.1 M 3848.2 909.5 3821.2 882.6 3821.2 844.5 3848.2 817.5 3886.3 817.5 3913.2 844.5 3913.2 882.6 3886.3 909.5 3848.2 909.5 M 3844.9 906.3 3789.6 906.3 M 3805.4 890.4 3829 890.4 M 3821.2 874.5 3813.2 874.5 M 3813.2 858.7 3821.2 858.7 M 3822.9 842.8 3811.6 842.8 M 3795.7 827 3838.7 827 M 3895.7 827 3992.8 827 M 3992.8 842.8 3911.6 842.8 M 3913.2 858.7 3992.8 858.7 M 3992.8 874.5 3913.2 874.5 M 3905.4 890.4 3992.9 890.4 M 3992.9 906.3 3889.6 906.3 M 3890.8 922.1 3992.9 922.1 M 3992.9 938 3906.7 938 M 3913.2 953.8 3992.9 953.8 M 3993 969.7 3913.2 969.7 M 3910.3 985.5 3993 985.5 M 3992.7 811.1 2295 811.1 M 2313 795.3 3992.7 795.3 M 3681.6 1001.4 2145.7 1001.4 M 2144 999.7 2133.4 995.3 2121.9 995.3 2111.2 999.7 2103 1007.8 2098.6 1018.5 2098.6 1030 2103 1040.7 2111.2 1048.9 2121.9 1053.3 2133.4 1053.3 2144 1048.9 2152.2 1040.7 2156.6 1030 2156.6 1018.5 2152.2 1007.8 2144 999.7 M 2156.1 1017.2 3678.6 1017.2 M 3685.4 1033.1 2155.4 1033.1 M 2143.8 1048.9 3721.2 1048.9 M 3721.2 1064.8 1951.5 1064.8 M 1955 1048.9 2111.4 1048.9 M 2099.9 1033.1 1955 1033.1 M 1955 1017.2 2099.1 1017.2 M 2109.5 1001.4 1955 1001.4 M 1863 1001.4 1855 1001.4 M 1855 1017.2 1863 1017.2 M 1863 1033.1 1855 1033.1 M 1855 1048.9 1863 1048.9 M 1866.5 1064.8 1851.5 1064.8 M 1835.6 1080.7 1882.4 1080.7 M 1935.6 1080.7 2019.8 1080.7 M 2070.3 1080.7 3721.2 1080.7 M 3729.8 1033.1 3732.6 1033.1 M 3500.4 731.9 3308.9 731.9 M 3259.2 731.9 3143.9 731.9 M 3146.6 747.7 3255.1 747.7 M 3259.3 763.6 3139.3 763.6 M 3125.2 716 3484.5 716 M 3475.6 700.1 353.6 700.1 M 353.6 684.3 3475.6 684.3 M 3301.5 509.9 3077.3 509.9 M 3077.3 509.8 3080.2 516.8 3088.5 513.3 3100 513.3 3110.7 517.7 3118.8 525.9 3123.2 536.5 3123.2 548.1 3118.8 558.7 3110.7 566.9 3100 571.3 3088.5 571.3 3077.8 566.9 3069.6 558.7 3066.7 551.7 3058.5 555.2 3046.9 555.2 3036.3 550.8 3028.1 542.6 3023.7 531.9 3023.7 520.4 3028.1 509.8 3036.3 501.6 3046.9 497.2 3058.5 497.2 3069.1 501.6 3077.3 509.8 M 3118.7 525.8 3266.8 525.8 M 3260.3 541.6 3123.2 541.6 M 3119.3 557.5 3263.4 557.5 M 3297.8 494 2751.2 494 M 2747.5 509.9 3028 509.9 M 3023.7 525.8 2743.3 525.8 M 2747.9 541.6 3027.7 541.6 M 3069.1 557.5 2744.1 557.5 M 2746.3 478.2 3302.9 478.2 M 3322 420.7 3333.5 420.7 3344.2 416.3 3352.3 408.1 3356.8 397.5 3356.8 385.9 3352.3 375.3 3344.2 367.1 3333.5 362.7 3322 362.7 3311.3 367.1 3303.2 375.3 3298.8 385.9 3298.8 397.5 3303.2 408.1 3311.3 416.3 3322 420.7 M 3309.8 414.8 2592.5 414.8 M 2588.5 418.9 2596.6 410.7 2601 400 2601 388.5 2596.6 377.8 2588.5 369.7 2577.8 365.3 2566.3 365.3 2555.6 369.7 2547.5 377.8 2543 388.5 2543 400 2547.5 410.7 2555.6 418.9 2566.3 423.3 2577.8 423.3 2588.5 418.9 M 2601 398.9 3299.4 398.9 M 3300 383.1 2598.8 383.1 M 2582.5 367.2 2701.4 367.2 M 2686 351.4 2115 351.4 M 2121 335.5 2683.9 335.5 M 2692.8 319.6 2117.7 319.6 M 2066.3 319.6 286.7 319.6 M 289 318.2 289 318.2 M 301.1 308.8 301.1 308.8 M 306.4 303.8 2708.9 303.8 M 2701.6 287.9 321.5 287.9 M 333.1 272.1 2704.3 272.1 M 2724.4 367.2 3311.2 367.2 M 3344.3 367.2 3477.3 367.2 M 3475.6 383.1 3355.6 383.1 M 3356.2 398.9 3475.6 398.9 M 3483.3 414.8 3345.7 414.8 M 3863.4 348.7 3863.4 348.7 M 3924.3 350.1 3924.3 350.1 M 3953.9 342.6 3953.9 342.6 M 3970.5 335.5 3992.1 335.5 M 3981.6 329.8 3981.6 329.8 M 2561.6 367.2 2494.6 367.2 M 2498.3 368.7 2487.6 364.3 2476.1 364.3 2465.4 368.7 2457.3 376.9 2452.9 387.5 2452.9 399.1 2457.3 409.7 2465.4 417.9 2476.1 422.3 2487.6 422.3 2498.3 417.9 2506.4 409.7 2510.9 399.1 2510.9 387.5 2506.4 376.9 2498.3 368.7 M 2509 383.1 2545.3 383.1 M 2543 398.9 2510.9 398.9 M 2501.4 414.8 2551.5 414.8 M 2462.3 414.8 2303.3 414.8 M 2313.4 398.9 2452.9 398.9 M 2454.7 383.1 2312.3 383.1 M 2300 367.2 2469.1 367.2 M 1888.2 938 1829.8 938 M 1845.6 953.8 1872.4 953.8 M 1863 969.7 1855 969.7 M 1855 985.5 1863 985.5 M 1788.2 938 1643.3 938 M 1591.9 938 332.7 938 M 353.6 890.4 1102.1 890.4 M 1086.3 874.5 353.6 874.5 M 340.7 858.7 1086.2 858.7 M 1086.2 842.8 981.4 842.8 M 977.4 846.8 993.6 830.6 1002.3 809.6 1002.3 786.8 993.6 765.7 977.4 749.6 956.4 740.8 933.6 740.8 912.5 749.6 896.4 765.7 887.6 786.8 887.6 809.6 896.4 830.6 912.5 846.8 933.6 855.5 956.4 855.5 977.4 846.8 M 995.1 827 1095.5 827 M 1111.4 811.1 1001.7 811.1 M 1002.3 795.3 1107 795.3 M 1091.1 779.4 999.3 779.4 M 991.5 763.6 1086.2 763.6 M 1086.2 747.7 973 747.7 M 917 747.7 799 747.7 M 788.8 743.5 766 743.5 744.9 752.2 728.8 768.4 720.1 789.4 720.1 812.2 728.8 833.3 744.9 849.4 766 858.2 788.8 858.2 809.9 849.4 826 833.3 834.7 812.2 834.7 789.4 826 768.4 809.9 752.2 788.8 743.5 M 755.8 747.7 325 747.7 M 321.4 751.3 353.6 719.1 353.6 673.5 321.4 641.3 197.8 641.3 165.6 673.5 165.6 719.1 197.8 751.3 321.4 751.3 M 340.9 731.9 1090.7 731.9 M 1106.5 716 353.6 716 M 348.5 668.4 716.2 668.4 M 716.2 652.6 332.6 652.6 M 186.6 652.6 102.9 652.6 M 102.9 668.4 170.7 668.4 M 165.6 684.3 102.9 684.3 M 102.8 700.1 165.6 700.1 M 165.6 716 102.8 716 M 102.8 731.9 178.4 731.9 M 194.2 747.7 102.8 747.7 M 102.8 763.6 733.6 763.6 M 724.2 779.4 102.8 779.4 M 102.7 795.3 720.1 795.3 M 720.1 811.1 102.7 811.1 M 102.7 827 726.2 827 M 738.3 842.8 324.9 842.8 M 194.3 842.8 102.7 842.8 M 102.7 858.7 178.5 858.7 M 165.6 874.5 102.6 874.5 M 102.6 890.4 165.6 890.4 M 165.6 906.3 102.6 906.3 M 102.6 922.1 170.6 922.1 M 186.5 938 102.6 938 M 102.6 953.8 1772.4 953.8 M 1763 969.7 102.5 969.7 M 102.5 985.5 1763 985.5 M 1763 1001.4 102.5 1001.4 M 102.5 1017.2 1763 1017.2 M 1758.2 1207.5 102.3 1207.5 M 102.2 1223.3 1756.1 1223.3 M 1756.1 1239.2 102.2 1239.2 M 102.2 1255.1 186.2 1255.1 M 170.3 1270.9 102.2 1270.9 M 102.2 1286.8 167.4 1286.8 M 167.4 1302.6 102.2 1302.6 M 102.1 1318.5 167.4 1318.5 M 182.4 1334.3 102.1 1334.3 M 327.6 1445.3 1756.1 1445.3 M 1757.6 1461.2 343.5 1461.2 M 358 1477 2137.1 1477 M 2149.4 1489.4 2122.5 1462.5 2122.5 1424.3 2146 1400.8 2139.8 1394.5 2135.3 1383.8 2135.3 1372.3 2139.8 1361.6 2147.9 1353.5 2158.6 1349.1 2170.1 1349.1 2180.8 1353.5 2188.9 1361.6 2193.3 1372.3 2193.3 1383.8 2188.9 1394.5 2186 1397.4 2247.5 1397.4 2274.5 1424.3 2274.5 1462.5 2247.5 1489.4 2149.4 1489.4 M 2122.5 1461.2 1987 1461.2 M 1987.6 1460.5 1987.6 1433.1 1949.6 1433.1 1949.6 1433.1 1949.6 1471.1 1977.1 1471.1 1987.6 1460.5 M 1987.6 1445.3 2122.5 1445.3 M 2122.5 1429.4 1987.6 1429.4 M 1997.2 1433.1 1997.2 1433.7 M 1987.6 1413.6 2133.2 1413.6 M 2143 1397.7 1985.6 1397.7 M 1985.6 1381.9 2135.3 1381.9 M 2137.9 1366 1985.6 1366 M 1985.6 1350.2 2155.9 1350.2 M 2172.8 1350.2 2467.6 1350.2 M 2456 1334.3 1985.6 1334.3 M 1985.6 1318.5 2116 1318.5 M 2111.9 1302.6 1985.6 1302.6 M 1985.6 1286.8 2116.1 1286.8 M 2165.8 1318.5 2454.3 1318.5 M 2504.1 1350.2 3721.2 1350.2 M 3721.2 1366 2190.7 1366 M 2193.3 1381.9 3721.2 1381.9 M 3736.4 1397.7 2247.9 1397.7 M 2263.7 1413.6 3993.6 1413.6 M 3736.3 1429.4 2274.5 1429.4 M 2274.5 1445.3 3721.2 1445.3 M 3721.2 1461.2 2274.5 1461.2 M 2259.9 1477 3721.2 1477 M 3777.6 1644.3 3530.2 1644.3 3530.2 1638 3525.9 1638 3525.9 1638 M 3530.2 1638 3530.2 1637.5 M 3993.9 1635.6 2906.9 1635.6 M 2906.9 1651.4 3994 1651.4 M 3994 1667.3 2906.9 1667.3 M 2906 1683.1 3994 1683.1 M 3994 1699 2890.1 1699 M 2906.9 1619.7 3993.9 1619.7 M 3994.3 1905.1 1981.8 1905.1 M 1973 1896.3 1935.2 1896.3 1908.4 1923.1 1908.4 2020.3 1935.2 2047.1 1973 2047.1 1999.8 2020.3 1999.8 1923.1 1973 1896.3 M 1997.6 1920.9 3994.3 1920.9 M 3994.4 1936.8 1999.8 1936.8 M 1999.8 1952.6 3994.4 1952.6 M 3994.4 1968.5 1999.8 1968.5 M 1999.8 1984.4 3538.9 1984.4 M 3541.7 1981.6 3559.6 1981.6 3559.6 2057.1 3559.6 2060.8 3563.3 2060.8 3563.3 2136.3 3581.2 2136.3 3609.1 2108.4 3609.1 2060.8 3563.3 2060.8 3563.3 2057.1 3609.1 2057.1 3609.1 2009.5 3581.2 1981.6 3563.3 1981.6 3563.3 2057.1 3559.6 2057.1 3513.8 2057.1 3513.8 2009.5 3541.7 1981.6 M 3559.6 1984.4 3563.3 1984.4 M 3571 1978.3 3571 1959.6 3564.3 2001.2 M 3563.3 2000.2 3559.6 2000.2 M 3559.6 2016.1 3563.3 2016.1 M 3563.3 2031.9 3559.6 2031.9 M 3559.6 2047.8 3563.3 2047.8 M 3559.6 2060.8 3513.8 2060.8 3513.8 2108.4 3541.7 2136.3 3559.6 2136.3 3559.6 2060.8 M 3559.6 2063.6 3563.3 2063.6 M 3563.3 2079.5 3559.6 2079.5 M 3559.6 2095.3 3563.3 2095.3 M 3563.3 2111.2 3559.6 2111.2 M 3559.6 2127 3563.3 2127 M 3590.5 2127 3781.6 2127 M 3780.7 2126.1 3814.1 2159.5 3871.7 2159.5 3871.7 2107.5 3881.7 2107.5 3881.7 2097.5 3972.7 2097.5 3972.7 2078.9 3939.3 2045.5 3881.7 2045.5 3881.7 2097.5 3871.7 2097.5 3871.7 2045.5 3814.1 2045.5 3780.7 2078.9 3780.7 2097.5 3871.6 2097.5 3871.6 2107.5 3780.7 2107.5 3780.7 2126.1 M 3780.7 2111.2 3606.3 2111.2 M 3609.1 2095.3 3780.7 2095.3 M 3780.7 2079.5 3609.1 2079.5 M 3609.1 2063.6 3796 2063.6 M 3811.8 2047.8 3609.1 2047.8 M 3609.1 2031.9 3994.5 2031.9 M 3994.5 2016.1 3609.1 2016.1 M 3599.8 2000.2 3994.5 2000.2 M 3994.4 1984.4 3584 1984.4 M 3523.1 2000.2 1999.8 2000.2 M 1999.8 2016.1 3513.8 2016.1 M 3513.8 2031.9 1988.2 2031.9 M 1920 2031.9 1719.8 2031.9 M 1725.7 2026 1725.7 1928.8 1698.9 1902 1661.1 1902 1634.3 1928.8 1634.3 2026 1661.1 2052.8 1698.9 2052.8 1725.7 2026 M 1725.7 2016.1 1908.4 2016.1 M 1908.4 2000.2 1725.7 2000.2 M 1725.7 1984.4 1908.4 1984.4 M 1908.4 1968.5 1725.7 1968.5 M 1725.7 1952.6 1908.4 1952.6 M 1908.4 1936.8 1725.7 1936.8 M 1717.8 1920.9 1910.6 1920.9 M 1926.4 1905.1 1702 1905.1 M 1658 1905.1 1452.2 1905.1 M 1468.1 1920.9 1642.2 1920.9 M 1634.3 1936.8 1476.1 1936.8 M 1476.1 1952.6 1634.3 1952.6 M 1634.3 1968.5 1476.1 1968.5 M 1476.1 1984.4 1634.3 1984.4 M 1634.3 2000.2 1476.1 2000.2 M 1476.1 2016.1 1634.3 2016.1 M 1640.2 2031.9 1470.2 2031.9 M 1488.3 2047.8 1656.1 2047.8 M 1703.9 2047.8 3513.8 2047.8 M 3513.8 2063.6 1504.1 2063.6 M 1520 2079.5 3061.2 2079.5 M 3049.2 2091.5 3075.9 2064.7 3113.8 2064.7 3140.5 2091.5 3140.5 2188.7 3113.8 2215.5 3075.9 2215.5 3049.2 2188.7 3049.2 2091.5 M 3049.2 2095.3 1535.9 2095.3 M 1551.7 2111.2 3049.2 2111.2 M 3049.2 2127 1723.6 2127 M 1739 2142.9 3049.2 2142.9 M 3049.2 2158.7 1739 2158.7 M 1739.1 2174.6 3049.2 2174.6 M 3050.9 2190.5 1739.1 2190.5 M 1739.1 2206.3 3066.8 2206.3 M 3122.9 2206.3 3994.8 2206.3 M 3994.7 2190.5 3138.8 2190.5 M 3140.5 2174.6 3994.7 2174.6 M 3994.7 2158.7 3940 2158.7 M 3939.3 2159.5 3972.7 2126.1 3972.7 2107.5 3881.7 2107.5 3881.7 2159.5 3939.3 2159.5 M 3955.9 2142.9 3994.7 2142.9 M 3994.6 2127 3971.8 2127 M 3972.7 2111.2 3994.6 2111.2 M 3994.6 2095.3 3972.7 2095.3 M 3972.7 2079.5 3994.6 2079.5 M 3994.6 2063.6 3957.4 2063.6 M 3941.5 2047.8 3994.5 2047.8 M 3881.7 2047.8 3871.7 2047.8 M 3871.7 2063.6 3881.7 2063.6 M 3881.7 2079.5 3871.7 2079.5 M 3871.7 2095.3 3881.7 2095.3 M 3881.7 2111.2 3871.7 2111.2 M 3871.7 2127 3881.7 2127 M 3881.7 2142.9 3871.7 2142.9 M 3871.7 2158.7 3881.7 2158.7 M 3813.3 2158.7 3140.5 2158.7 M 3140.5 2142.9 3797.5 2142.9 M 3814.9 2245.5 3938.5 2245.5 3970.7 2277.7 3970.7 2323.3 3938.5 2355.5 3814.9 2355.5 3782.7 2323.3 3782.7 2277.7 3814.9 2245.5 M 3806.5 2253.9 1739.1 2253.9 M 1739.1 2269.7 3790.7 2269.7 M 3782.7 2285.6 1739.1 2285.6 M 1739.1 2301.4 3782.7 2301.4 M 3782.7 2317.3 1739.1 2317.3 M 1739.1 2333.1 3792.5 2333.1 M 3808.4 2349 1739.1 2349 M 1739.1 2364.9 3995 2364.9 M 3995 2380.7 1739.1 2380.7 M 1739.1 2396.6 3995 2396.6 M 3995.1 2412.4 1739.1 2412.4 M 1739.1 2428.3 3995.1 2428.3 M 3995.1 2444.1 1739.1 2444.1 M 1739.1 2460 3831.4 2460 M 3834.2 2458.7 3834.2 2458.7 M 3820.3 2465.1 3820.3 2465.1 M 3807.1 2472.7 3807.1 2472.7 M 3802.7 2475.8 1739.1 2475.8 M 1739.1 2491.7 3782.8 2491.7 M 3783 2491.5 3783 2491.5 M 3794.6 2481.6 3794.6 2481.6 M 3772.3 2502.4 3772.3 2502.4 M 3768.1 2507.5 1730.8 2507.5 M 1715 2523.4 3756.5 2523.4 M 3754.1 2527 3754.1 2527 M 3747.4 2539.3 1544.4 2539.3 M 1527.2 2555.1 3740.4 2555.1 M 3746.7 2540.4 3746.7 2540.4 M 3762.6 2514.3 3762.6 2514.3 M 3735.4 2571 1510.1 2571 M 1493 2586.8 3732 2586.8 M 3730.2 2602.7 1476.6 2602.7 M 1216.7 2322.8 1202.5 2322.8 1202.5 2319.7 M 1202.5 2322.8 1202.5 2332.1 M 1739.1 2238 3994.8 2238 M 3994.8 2222.2 1739.1 2222.2 M 2007.6 1914.3 2139.9 1914.3 M 2225.6 1841.7 101.5 1841.7 M 101.5 1857.5 190.9 1857.5 M 175 1873.4 101.5 1873.4 M 101.5 1889.2 172.2 1889.2 M 172.2 1905.1 101.5 1905.1 M 101.4 1920.9 172.2 1920.9 M 187.2 1936.8 101.4 1936.8 M 101.4 1952.6 203.1 1952.6 M 333.8 2047.8 638.4 2047.8 M 638.4 2063.6 349.6 2063.6 M 360.2 2079.5 638.4 2079.5 M 638.4 2095.3 360.2 2095.3 M 360.2 2111.2 638.4 2111.2 M 638.4 2127 352.9 2127 M 337.1 2142.9 638.4 2142.9 M 720.4 1920.9 1392.6 1920.9 M 1408.5 1905.1 720.4 1905.1 M 1314.1 1683.1 1318.2 1683.1 M 1318.2 1667.3 1314.1 1667.3 M 1314.1 1651.4 1318.2 1651.4 M 1318.2 1635.6 1314.1 1635.6 M 1314.1 1619.7 1318.2 1619.7 M 1437 1683.1 1495.3 1683.1 M 1497.1 1684.9 1470.2 1658 1470.2 1559.9 1497.1 1532.9 1535.2 1532.9 1562.1 1559.9 1562.1 1658 1535.2 1684.9 1497.1 1684.9 M 1479.4 1667.3 1452.9 1667.3 M 1462.1 1651.4 1470.2 1651.4 M 1470.2 1635.6 1462.1 1635.6 M 1462.1 1619.7 1470.2 1619.7 M 1470.2 1603.8 1462.1 1603.8 M 1462.1 1588 1470.2 1588 M 1470.2 1572.1 1462.1 1572.1 M 1458.6 1556.3 1473.7 1556.3 M 1489.6 1540.4 1442.7 1540.4 M 1542.7 1540.4 2122.5 1540.4 M 2122.5 1556.3 1558.6 1556.3 M 1562.1 1572.1 2132.2 1572.1 M 2148 1588 1562.1 1588 M 1562.1 1603.8 1847.9 1603.8 M 1847.3 1604.5 1842.9 1615.1 1842.9 1626.7 1847.3 1637.3 1855.5 1645.5 1866.1 1649.9 1877.7 1649.9 1888.3 1645.5 1896.5 1637.3 1900.9 1626.7 1900.9 1615.1 1896.5 1604.5 1888.3 1596.3 1877.7 1591.9 1866.1 1591.9 1855.5 1596.3 1847.3 1604.5 M 1842.9 1619.7 1562.1 1619.7 M 1562.1 1635.6 1846.6 1635.6 M 1897.2 1635.6 2122.5 1635.6 M 2122.5 1651.4 1562.1 1651.4 M 1552.9 1667.3 2127.3 1667.3 M 2143.2 1683.1 1537 1683.1 M 1895.9 1603.8 2143 1603.8 M 2127.1 1619.7 1900.9 1619.7 M 1946.4 1682.1 1946.4 1684.3 M 1947.6 1684.3 2007.6 1684.3 2007.6 1914.3 M 2083.9 1810 101.6 1810 M 101.6 1825.8 2244.7 1825.8 M 2377.6 1914.3 2377.6 2097.3 2410.7 2097.3 M 2627.6 1954.3 2627.6 1953.9 2627.6 1914.3 M 2493.5 1914.3 2493.5 1889.4 2492.7 1914.3 M 2493.5 1914.3 2493.5 1914.7 M 2070.3 1794.1 101.6 1794.1 M 101.6 1778.2 2068.7 1778.2 M 2078.5 1762.4 101.6 1762.4 M 178.5 2447.4 178.5 2447.4 M 163.4 2449.8 163.4 2449.8 M 148.6 2453.6 148.6 2453.6 M 134.2 2458.7 134.2 2458.7 M 131.4 2460 100.8 2460 M 107.1 2472.7 107.1 2472.7 M 102.7 2475.8 100.8 2475.8 M 120.3 2465.1 120.3 2465.1 M 193.8 2446.3 193.8 2446.3 M 209.1 2446.7 209.1 2446.7 M 294.5 2477 294.5 2477 M 351.7 2547.3 351.7 2547.3 M 365.4 2618.5 3729.8 2618.5 M 3731 2634.4 364.3 2634.4 M 361.6 2650.2 3733.7 2650.2 M 3738 2666.1 357.4 2666.1 M 351.3 2681.9 3744 2681.9 M 3746.7 2688.1 3746.7 2688.1 M 3752 2697.8 343.2 2697.8 M 1949.6 1461.2 1949.6 1461.2 M 1949.6 1445.3 1949.6 1445.3 M 1949.6 1433.1 1949.6 1433.1 M 1756.1 1420.3 1756.1 1381 M 1756.1 1381.9 1609.8 1381.9 M 1619 1397.7 1756.1 1397.7 M 1756.1 1413.6 1617.8 1413.6 M 1616.3 1350.2 1756.1 1350.2 M 1756.1 1334.3 1627.5 1334.3 M 1629.1 1318.5 1756.1 1318.5 M 1756.1 1302.6 1620.5 1302.6 M 1627.1 1286.8 1756.1 1286.8 M 1756.1 1270.9 1628.7 1270.9 M 1620.1 1255.1 1756.1 1255.1 M 1983.5 1207.5 2133.4 1207.5 M 2128.6 1223.3 1985.6 1223.3 M 1985.6 1239.2 2132.4 1239.2 M 2958 1953.9 2958 1978.3 2955.1 1978.3 M 3128.5 2079.5 3513.8 2079.5 M 3513.8 2095.3 3140.5 2095.3 M 3140.5 2111.2 3516.6 2111.2 M 3532.4 2127 3140.5 2127 M 2955.2 2136.2 2952.3 2136.2 2955.1 2136.2 M 2955.2 2136.2 2955.2 2141.3 M 2732.2 2280.4 2729.2 2280.4 M 3848.6 2453.6 3848.6 2453.6 M 3863.4 2449.8 3863.4 2449.8 M 3878.5 2447.4 3878.5 2447.4 M 3893.8 2446.3 3893.8 2446.3 M 3909.1 2446.7 3909.1 2446.7 M 3963.7 2460 3995.1 2460 M 3995.1 2475.8 3992.7 2475.8 M 3994.5 2477 3994.5 2477 M 3981.6 2468.8 3981.6 2468.8 M 3968 2461.7 3968 2461.7 M 3945 2349 3995 2349 M 3994.9 2333.1 3960.8 2333.1 M 3970.7 2317.3 3994.9 2317.3 M 3994.9 2301.4 3970.7 2301.4 M 3970.7 2285.6 3994.9 2285.6 M 3994.9 2269.7 3962.7 2269.7 M 3946.8 2253.9 3994.8 2253.9 M 1086.2 351.4 632.7 351.4 M 665.4 367.2 1052.5 367.2 M 1036.6 383.1 681.2 383.1 M 694.5 398.9 1022.9 398.9 M 1016.4 414.8 701 414.8 M 707.6 430.6 1009.8 430.6 M 1007.6 446.5 709.5 446.5 M 709.5 462.3 1007.6 462.3 M 1007.6 478.2 709.5 478.2 M 703.5 494 1013.4 494 M 1019.9 509.9 696.9 509.9 M 687.1 525.8 1029.3 525.8 M 1045.2 541.6 671.2 541.6 M 646.9 557.5 1068.5 557.5 M 910.2 573.3 834.9 573.3 M 834.9 589.2 894.3 589.2 M 781.4 589.2 769.8 589.2 M 769.8 605 781.4 605 M 781.4 573.3 769.8 573.3 M 769.8 636.7 781.4 636.7 M 781.4 652.6 769.8 652.6 M 769.8 668.4 781.4 668.4 M 821.2 763.6 898.5 763.6 M 890.7 779.4 830.6 779.4 M 834.7 795.3 887.6 795.3 M 888.3 811.1 834.7 811.1 M 828.6 827 894.8 827 M 908.6 842.8 816.5 842.8 M 262.5 333.5 262.5 333.5" fill="none" stroke-width="16"/><path d="M 387 530.4 432.2 530.4 432.2 592.1 783.7 592.1 783.7 620.8 775.6 620.8 777.6 620.8 777.6 704.3 647.9 704.3 647.9 1147.5 562 1147.5 562 1144.4 563.5 1144.4 567.6 1504.3 647.6 1504.3 M 562 1144.4 562 1140.6 M 1129.3 978.3 1313.5 978.3 1313.5 980 1316.8 980 1316.8 710.2 1227.2 710.2 1227.2 683.9 1155.7 683.9 1155.7 622.3 1156.5 622.3 1017.6 622.3 1017.6 704.3 777.6 704.3 M 777.6 620.8 777.6 614.3 M 1155.7 622.3 1155.7 621.4 M 1316.8 980 1316.8 1226.7 1492.8 1226.7 M 2658.6 198.7 3057.6 198.7 3367.6 198.7 3367.6 224.6 3373.2 224.6 3397.6 224.6 3397.6 164.3 3557.6 164.3 3557.6 188 3551.6 188 M 3057.6 184.6 3057.6 198.7 M 3057.6 184.6 3054.1 184.6 M 3057.6 184.6 3057.6 184.3 M 3966 763.7 3976.6 763.7 3972.3 763.7 M 3887.6 1554.3 3887.6 1563.5 3887.6 1564.3 M 3560.6 2148.9 3560.6 2150 3560.8 2150 M 3560.6 2148.9 3515 2148.9" fill="none" stroke-width="10"/><path d="M 3777.6 1644.3 3964.5 1646.7 3964.5 1566.7 3966 1564.3 3966 763.7 3961.9 763.7 3961.9 755.5 3665.4 755.5 3665.4 188 3551.6 188 M 3966 760.3 3966 763.7 3966 763.7 M 3964.5 1566.7 3887.6 1564.3 M 3887.6 1563.5 3867.2 1563.5" fill="none" stroke-width="24"/><path d="M 3564.9 2051.5 3561.4 2058.9 M 3564.9 2051.5 3560.8 2049.7 M 3560.6 2277.7 3560.6 2282.5 3560.8 2282.5 M 3560.6 2277.7 3560.1 2277.7 M 2955.2 2141.3 2732.2 2141.3 2732.2 2280.4" fill="none" stroke-width="40"/><path d="M 3525.9 1844.3 3525.9 1638 2977.6 1638 2977.6 1554.3 2977.6 1454.3 2977.6 1458.3 2977.2 1458.3 M 2977.6 1454.3 2977.6 1367.7 2977.9 1367.7 2977.9 1368.4 M 2977.6 1367.7 2977.6 1274.8 2976.9 1274.8 2976.9 1275.8 M 2977.6 1274.8 2977.6 1164.3 2979.1 1164.3 M 3525.9 1844.3 3565.2 1842.6 3564.3 2001.2" fill="none" stroke-width="32"/></g></svg>