<svg xmlns="http://www.w3.org/2000/svg" version="1.1" xmlns:xlink="http://www.w3.org/1999/xlink" stroke-linecap="round" stroke-linejoin="round" stroke-width="0" fill-rule="evenodd" width="3.6951in" height="2.43485in" viewBox="220.6 104.1 3695.1 2434.85" id="./public/gerber-map/data/folder-1/EVB2_MC33812_Rev 2.2.sl2"><defs><circle cx="0" cy="0" r="19.85" id="./public/gerber-map/data/folder-1/EVB2_MC33812_Rev 2.2.sl2_pad-10"/><circle cx="0" cy="0" r="30" id="./public/gerber-map/data/folder-1/EVB2_MC33812_Rev 2.2.sl2_pad-11"/><circle cx="0" cy="0" r="39" id="./public/gerber-map/data/folder-1/EVB2_MC33812_Rev 2.2.sl2_pad-12"/><circle cx="0" cy="0" r="17.85" id="./public/gerber-map/data/folder-1/EVB2_MC33812_Rev 2.2.sl2_pad-13"/><circle cx="0" cy="0" r="29.7" id="./public/gerber-map/data/folder-1/EVB2_MC33812_Rev 2.2.sl2_pad-14"/><circle cx="0" cy="0" r="41.35" id="./public/gerber-map/data/folder-1/EVB2_MC33812_Rev 2.2.sl2_pad-15"/><circle cx="0" cy="0" r="13" id="./public/gerber-map/data/folder-1/EVB2_MC33812_Rev 2.2.sl2_pad-16"/><circle cx="0" cy="0" r="15.5" id="./public/gerber-map/data/folder-1/EVB2_MC33812_Rev 2.2.sl2_pad-17"/></defs><g transform="translate(0,2643.0499999999997) scale(1,-1)" fill="currentColor" stroke="currentColor"><use xlink:href="#./public/gerber-map/data/folder-1/EVB2_MC33812_Rev 2.2.sl2_pad-10" x="1020.4" y="2122.3"/><use xlink:href="#./public/gerber-map/data/folder-1/EVB2_MC33812_Rev 2.2.sl2_pad-10" x="1110.2" y="2122.8"/><use xlink:href="#./public/gerber-map/data/folder-1/EVB2_MC33812_Rev 2.2.sl2_pad-10" x="1201.4" y="2122.8"/><use xlink:href="#./public/gerber-map/data/folder-1/EVB2_MC33812_Rev 2.2.sl2_pad-10" x="1296.5" y="2123.6"/><use xlink:href="#./public/gerber-map/data/folder-1/EVB2_MC33812_Rev 2.2.sl2_pad-10" x="1388.9" y="2124.1"/><use xlink:href="#./public/gerber-map/data/folder-1/EVB2_MC33812_Rev 2.2.sl2_pad-10" x="1389.8" y="2220.9"/><use xlink:href="#./public/gerber-map/data/folder-1/EVB2_MC33812_Rev 2.2.sl2_pad-10" x="1295.7" y="2219.8"/><use xlink:href="#./public/gerber-map/data/folder-1/EVB2_MC33812_Rev 2.2.sl2_pad-10" x="1200.5" y="2219.2"/><use xlink:href="#./public/gerber-map/data/folder-1/EVB2_MC33812_Rev 2.2.sl2_pad-10" x="1110.2" y="2220.1"/><use xlink:href="#./public/gerber-map/data/folder-1/EVB2_MC33812_Rev 2.2.sl2_pad-10" x="1018.2" y="2218.7"/><use xlink:href="#./public/gerber-map/data/folder-1/EVB2_MC33812_Rev 2.2.sl2_pad-10" x="1017.4" y="2316.5"/><use xlink:href="#./public/gerber-map/data/folder-1/EVB2_MC33812_Rev 2.2.sl2_pad-10" x="1108.5" y="2316.5"/><use xlink:href="#./public/gerber-map/data/folder-1/EVB2_MC33812_Rev 2.2.sl2_pad-10" x="1200.5" y="2317.3"/><use xlink:href="#./public/gerber-map/data/folder-1/EVB2_MC33812_Rev 2.2.sl2_pad-10" x="1297.4" y="2316.9"/><use xlink:href="#./public/gerber-map/data/folder-1/EVB2_MC33812_Rev 2.2.sl2_pad-10" x="1388.9" y="2316"/><use xlink:href="#./public/gerber-map/data/folder-1/EVB2_MC33812_Rev 2.2.sl2_pad-10" x="1388.6" y="2413.3"/><use xlink:href="#./public/gerber-map/data/folder-1/EVB2_MC33812_Rev 2.2.sl2_pad-10" x="1292.5" y="2412.9"/><use xlink:href="#./public/gerber-map/data/folder-1/EVB2_MC33812_Rev 2.2.sl2_pad-10" x="1200.5" y="2412.9"/><use xlink:href="#./public/gerber-map/data/folder-1/EVB2_MC33812_Rev 2.2.sl2_pad-10" x="1108.5" y="2412.9"/><use xlink:href="#./public/gerber-map/data/folder-1/EVB2_MC33812_Rev 2.2.sl2_pad-10" x="1015.6" y="2412.9"/><use xlink:href="#./public/gerber-map/data/folder-1/EVB2_MC33812_Rev 2.2.sl2_pad-10" x="1016.5" y="2514.1"/><use xlink:href="#./public/gerber-map/data/folder-1/EVB2_MC33812_Rev 2.2.sl2_pad-10" x="1109.4" y="2515.5"/><use xlink:href="#./public/gerber-map/data/folder-1/EVB2_MC33812_Rev 2.2.sl2_pad-10" x="1201.4" y="2519"/><use xlink:href="#./public/gerber-map/data/folder-1/EVB2_MC33812_Rev 2.2.sl2_pad-10" x="1297.4" y="2519.1"/><use xlink:href="#./public/gerber-map/data/folder-1/EVB2_MC33812_Rev 2.2.sl2_pad-10" x="1392" y="2517.2"/><use xlink:href="#./public/gerber-map/data/folder-1/EVB2_MC33812_Rev 2.2.sl2_pad-11" x="2198.5" y="1643.4"/><use xlink:href="#./public/gerber-map/data/folder-1/EVB2_MC33812_Rev 2.2.sl2_pad-11" x="2198.5" y="1543.4"/><use xlink:href="#./public/gerber-map/data/folder-1/EVB2_MC33812_Rev 2.2.sl2_pad-11" x="2198.5" y="1443.4"/><use xlink:href="#./public/gerber-map/data/folder-1/EVB2_MC33812_Rev 2.2.sl2_pad-11" x="1909" y="1012.2"/><use xlink:href="#./public/gerber-map/data/folder-1/EVB2_MC33812_Rev 2.2.sl2_pad-11" x="1809" y="1012.2"/><use xlink:href="#./public/gerber-map/data/folder-1/EVB2_MC33812_Rev 2.2.sl2_pad-11" x="1162.2" y="855.4"/><use xlink:href="#./public/gerber-map/data/folder-1/EVB2_MC33812_Rev 2.2.sl2_pad-11" x="1162.2" y="755.4"/><use xlink:href="#./public/gerber-map/data/folder-1/EVB2_MC33812_Rev 2.2.sl2_pad-11" x="1316.1" y="1608.9"/><use xlink:href="#./public/gerber-map/data/folder-1/EVB2_MC33812_Rev 2.2.sl2_pad-11" x="1416.1" y="1608.9"/><use xlink:href="#./public/gerber-map/data/folder-1/EVB2_MC33812_Rev 2.2.sl2_pad-11" x="1516.1" y="1608.9"/><use xlink:href="#./public/gerber-map/data/folder-1/EVB2_MC33812_Rev 2.2.sl2_pad-11" x="3551.6" y="688"/><use xlink:href="#./public/gerber-map/data/folder-1/EVB2_MC33812_Rev 2.2.sl2_pad-11" x="3551.6" y="588"/><use xlink:href="#./public/gerber-map/data/folder-1/EVB2_MC33812_Rev 2.2.sl2_pad-11" x="3551.6" y="488"/><use xlink:href="#./public/gerber-map/data/folder-1/EVB2_MC33812_Rev 2.2.sl2_pad-11" x="3551.6" y="388"/><use xlink:href="#./public/gerber-map/data/folder-1/EVB2_MC33812_Rev 2.2.sl2_pad-11" x="3551.6" y="288"/><use xlink:href="#./public/gerber-map/data/folder-1/EVB2_MC33812_Rev 2.2.sl2_pad-11" x="3551.6" y="188"/><use xlink:href="#./public/gerber-map/data/folder-1/EVB2_MC33812_Rev 2.2.sl2_pad-11" x="3767.2" y="863.5"/><use xlink:href="#./public/gerber-map/data/folder-1/EVB2_MC33812_Rev 2.2.sl2_pad-11" x="3867.2" y="863.5"/><use xlink:href="#./public/gerber-map/data/folder-1/EVB2_MC33812_Rev 2.2.sl2_pad-11" x="3867.2" y="963.5"/><use xlink:href="#./public/gerber-map/data/folder-1/EVB2_MC33812_Rev 2.2.sl2_pad-11" x="3767.2" y="963.5"/><use xlink:href="#./public/gerber-map/data/folder-1/EVB2_MC33812_Rev 2.2.sl2_pad-11" x="3767.2" y="1063.5"/><use xlink:href="#./public/gerber-map/data/folder-1/EVB2_MC33812_Rev 2.2.sl2_pad-11" x="3867.2" y="1063.5"/><use xlink:href="#./public/gerber-map/data/folder-1/EVB2_MC33812_Rev 2.2.sl2_pad-11" x="3867.2" y="1163.5"/><use xlink:href="#./public/gerber-map/data/folder-1/EVB2_MC33812_Rev 2.2.sl2_pad-11" x="3767.2" y="1163.5"/><use xlink:href="#./public/gerber-map/data/folder-1/EVB2_MC33812_Rev 2.2.sl2_pad-11" x="3767.2" y="1263.5"/><use xlink:href="#./public/gerber-map/data/folder-1/EVB2_MC33812_Rev 2.2.sl2_pad-11" x="3867.2" y="1263.5"/><use xlink:href="#./public/gerber-map/data/folder-1/EVB2_MC33812_Rev 2.2.sl2_pad-11" x="3867.2" y="1363.5"/><use xlink:href="#./public/gerber-map/data/folder-1/EVB2_MC33812_Rev 2.2.sl2_pad-11" x="3767.2" y="1363.5"/><use xlink:href="#./public/gerber-map/data/folder-1/EVB2_MC33812_Rev 2.2.sl2_pad-11" x="3767.2" y="1463.5"/><use xlink:href="#./public/gerber-map/data/folder-1/EVB2_MC33812_Rev 2.2.sl2_pad-11" x="3867.2" y="1463.5"/><use xlink:href="#./public/gerber-map/data/folder-1/EVB2_MC33812_Rev 2.2.sl2_pad-11" x="3867.2" y="1563.5"/><use xlink:href="#./public/gerber-map/data/folder-1/EVB2_MC33812_Rev 2.2.sl2_pad-11" x="3767.2" y="1563.5"/><use xlink:href="#./public/gerber-map/data/folder-1/EVB2_MC33812_Rev 2.2.sl2_pad-12" x="3876.7" y="2102.5"/><use xlink:href="#./public/gerber-map/data/folder-1/EVB2_MC33812_Rev 2.2.sl2_pad-12" x="3876.7" y="2300.5"/><use xlink:href="#./public/gerber-map/data/folder-1/EVB2_MC33812_Rev 2.2.sl2_pad-12" x="266.2" y="2097"/><use xlink:href="#./public/gerber-map/data/folder-1/EVB2_MC33812_Rev 2.2.sl2_pad-12" x="266.2" y="1899"/><use xlink:href="#./public/gerber-map/data/folder-1/EVB2_MC33812_Rev 2.2.sl2_pad-12" x="264" y="1696.5"/><use xlink:href="#./public/gerber-map/data/folder-1/EVB2_MC33812_Rev 2.2.sl2_pad-12" x="264" y="1498.5"/><use xlink:href="#./public/gerber-map/data/folder-1/EVB2_MC33812_Rev 2.2.sl2_pad-12" x="261.4" y="1296.6"/><use xlink:href="#./public/gerber-map/data/folder-1/EVB2_MC33812_Rev 2.2.sl2_pad-12" x="261.4" y="1098.6"/><use xlink:href="#./public/gerber-map/data/folder-1/EVB2_MC33812_Rev 2.2.sl2_pad-12" x="259.6" y="894.3"/><use xlink:href="#./public/gerber-map/data/folder-1/EVB2_MC33812_Rev 2.2.sl2_pad-12" x="259.6" y="696.3"/><use xlink:href="#./public/gerber-map/data/folder-1/EVB2_MC33812_Rev 2.2.sl2_pad-13" x="1792.1" y="1236.2"/><use xlink:href="#./public/gerber-map/data/folder-1/EVB2_MC33812_Rev 2.2.sl2_pad-13" x="1831.5" y="1236.2"/><use xlink:href="#./public/gerber-map/data/folder-1/EVB2_MC33812_Rev 2.2.sl2_pad-13" x="1870.9" y="1236.2"/><use xlink:href="#./public/gerber-map/data/folder-1/EVB2_MC33812_Rev 2.2.sl2_pad-13" x="1910.2" y="1236.2"/><use xlink:href="#./public/gerber-map/data/folder-1/EVB2_MC33812_Rev 2.2.sl2_pad-13" x="1910.2" y="1275.6"/><use xlink:href="#./public/gerber-map/data/folder-1/EVB2_MC33812_Rev 2.2.sl2_pad-13" x="1870.9" y="1275.6"/><use xlink:href="#./public/gerber-map/data/folder-1/EVB2_MC33812_Rev 2.2.sl2_pad-13" x="1831.5" y="1275.6"/><use xlink:href="#./public/gerber-map/data/folder-1/EVB2_MC33812_Rev 2.2.sl2_pad-13" x="1792.1" y="1275.6"/><use xlink:href="#./public/gerber-map/data/folder-1/EVB2_MC33812_Rev 2.2.sl2_pad-13" x="1792.1" y="1315"/><use xlink:href="#./public/gerber-map/data/folder-1/EVB2_MC33812_Rev 2.2.sl2_pad-13" x="1792.1" y="1354.3"/><use xlink:href="#./public/gerber-map/data/folder-1/EVB2_MC33812_Rev 2.2.sl2_pad-13" x="1831.5" y="1354.3"/><use xlink:href="#./public/gerber-map/data/folder-1/EVB2_MC33812_Rev 2.2.sl2_pad-13" x="1831.5" y="1315"/><use xlink:href="#./public/gerber-map/data/folder-1/EVB2_MC33812_Rev 2.2.sl2_pad-13" x="1870.9" y="1315"/><use xlink:href="#./public/gerber-map/data/folder-1/EVB2_MC33812_Rev 2.2.sl2_pad-13" x="1910.2" y="1315"/><use xlink:href="#./public/gerber-map/data/folder-1/EVB2_MC33812_Rev 2.2.sl2_pad-13" x="1910.2" y="1354.3"/><use xlink:href="#./public/gerber-map/data/folder-1/EVB2_MC33812_Rev 2.2.sl2_pad-13" x="1870.9" y="1354.3"/><use xlink:href="#./public/gerber-map/data/folder-1/EVB2_MC33812_Rev 2.2.sl2_pad-13" x="1870.9" y="1393.7"/><use xlink:href="#./public/gerber-map/data/folder-1/EVB2_MC33812_Rev 2.2.sl2_pad-13" x="1910.2" y="1393.7"/><use xlink:href="#./public/gerber-map/data/folder-1/EVB2_MC33812_Rev 2.2.sl2_pad-13" x="1949.6" y="1393.7"/><use xlink:href="#./public/gerber-map/data/folder-1/EVB2_MC33812_Rev 2.2.sl2_pad-13" x="1949.6" y="1354.3"/><use xlink:href="#./public/gerber-map/data/folder-1/EVB2_MC33812_Rev 2.2.sl2_pad-13" x="1949.6" y="1315"/><use xlink:href="#./public/gerber-map/data/folder-1/EVB2_MC33812_Rev 2.2.sl2_pad-13" x="1949.6" y="1275.6"/><use xlink:href="#./public/gerber-map/data/folder-1/EVB2_MC33812_Rev 2.2.sl2_pad-13" x="1949.6" y="1236.2"/><use xlink:href="#./public/gerber-map/data/folder-1/EVB2_MC33812_Rev 2.2.sl2_pad-13" x="1831.5" y="1393.7"/><use xlink:href="#./public/gerber-map/data/folder-1/EVB2_MC33812_Rev 2.2.sl2_pad-13" x="1792.1" y="1393.7"/><use xlink:href="#./public/gerber-map/data/folder-1/EVB2_MC33812_Rev 2.2.sl2_pad-13" x="1792.1" y="1433.1"/><use xlink:href="#./public/gerber-map/data/folder-1/EVB2_MC33812_Rev 2.2.sl2_pad-13" x="1831.5" y="1433.1"/><use xlink:href="#./public/gerber-map/data/folder-1/EVB2_MC33812_Rev 2.2.sl2_pad-13" x="1870.9" y="1433.1"/><use xlink:href="#./public/gerber-map/data/folder-1/EVB2_MC33812_Rev 2.2.sl2_pad-13" x="1910.2" y="1433.1"/><use xlink:href="#./public/gerber-map/data/folder-1/EVB2_MC33812_Rev 2.2.sl2_pad-13" x="1949.6" y="1433.1"/><use xlink:href="#./public/gerber-map/data/folder-1/EVB2_MC33812_Rev 2.2.sl2_pad-14" x="1954.1" y="1971.7"/><use xlink:href="#./public/gerber-map/data/folder-1/EVB2_MC33812_Rev 2.2.sl2_pad-14" x="1680" y="1977.4"/><use xlink:href="#./public/gerber-map/data/folder-1/EVB2_MC33812_Rev 2.2.sl2_pad-14" x="1430.4" y="1977.5"/><use xlink:href="#./public/gerber-map/data/folder-1/EVB2_MC33812_Rev 2.2.sl2_pad-14" x="2861.2" y="1633.6"/><use xlink:href="#./public/gerber-map/data/folder-1/EVB2_MC33812_Rev 2.2.sl2_pad-14" x="3561.4" y="2058.9"/><use xlink:href="#./public/gerber-map/data/folder-1/EVB2_MC33812_Rev 2.2.sl2_pad-14" x="3094.8" y="2140.1"/><use xlink:href="#./public/gerber-map/data/folder-1/EVB2_MC33812_Rev 2.2.sl2_pad-15" x="945" y="798.2"/><use xlink:href="#./public/gerber-map/data/folder-1/EVB2_MC33812_Rev 2.2.sl2_pad-15" x="777.4" y="800.8"/><use xlink:href="#./public/gerber-map/data/folder-1/EVB2_MC33812_Rev 2.2.sl2_pad-15" x="775.6" y="620.8"/><use xlink:href="#./public/gerber-map/data/folder-1/EVB2_MC33812_Rev 2.2.sl2_pad-15" x="942.5" y="622"/><use xlink:href="#./public/gerber-map/data/folder-1/EVB2_MC33812_Rev 2.2.sl2_pad-16" x="387" y="530.4"/><use xlink:href="#./public/gerber-map/data/folder-1/EVB2_MC33812_Rev 2.2.sl2_pad-16" x="1156.5" y="622.3"/><use xlink:href="#./public/gerber-map/data/folder-1/EVB2_MC33812_Rev 2.2.sl2_pad-16" x="1397.3" y="878.5"/><use xlink:href="#./public/gerber-map/data/folder-1/EVB2_MC33812_Rev 2.2.sl2_pad-16" x="1617.6" y="924.3"/><use xlink:href="#./public/gerber-map/data/folder-1/EVB2_MC33812_Rev 2.2.sl2_pad-16" x="1557.6" y="1174.3"/><use xlink:href="#./public/gerber-map/data/folder-1/EVB2_MC33812_Rev 2.2.sl2_pad-16" x="1492.8" y="1226.7"/><use xlink:href="#./public/gerber-map/data/folder-1/EVB2_MC33812_Rev 2.2.sl2_pad-16" x="1129.3" y="978.3"/><use xlink:href="#./public/gerber-map/data/folder-1/EVB2_MC33812_Rev 2.2.sl2_pad-16" x="563.5" y="1144.4"/><use xlink:href="#./public/gerber-map/data/folder-1/EVB2_MC33812_Rev 2.2.sl2_pad-16" x="647.6" y="1504.3"/><use xlink:href="#./public/gerber-map/data/folder-1/EVB2_MC33812_Rev 2.2.sl2_pad-16" x="1075.2" y="1723.6"/><use xlink:href="#./public/gerber-map/data/folder-1/EVB2_MC33812_Rev 2.2.sl2_pad-16" x="1871.9" y="1620.9"/><use xlink:href="#./public/gerber-map/data/folder-1/EVB2_MC33812_Rev 2.2.sl2_pad-16" x="2097.6" y="1784.3"/><use xlink:href="#./public/gerber-map/data/folder-1/EVB2_MC33812_Rev 2.2.sl2_pad-16" x="2251.8" y="1854.3"/><use xlink:href="#./public/gerber-map/data/folder-1/EVB2_MC33812_Rev 2.2.sl2_pad-16" x="2417.1" y="1783.1"/><use xlink:href="#./public/gerber-map/data/folder-1/EVB2_MC33812_Rev 2.2.sl2_pad-16" x="2410.7" y="2097.3"/><use xlink:href="#./public/gerber-map/data/folder-1/EVB2_MC33812_Rev 2.2.sl2_pad-16" x="2729.2" y="2280.4"/><use xlink:href="#./public/gerber-map/data/folder-1/EVB2_MC33812_Rev 2.2.sl2_pad-16" x="3515" y="2148.9"/><use xlink:href="#./public/gerber-map/data/folder-1/EVB2_MC33812_Rev 2.2.sl2_pad-16" x="3777.6" y="1644.3"/><use xlink:href="#./public/gerber-map/data/folder-1/EVB2_MC33812_Rev 2.2.sl2_pad-16" x="3707.6" y="1014.3"/><use xlink:href="#./public/gerber-map/data/folder-1/EVB2_MC33812_Rev 2.2.sl2_pad-16" x="3284.1" y="747.6"/><use xlink:href="#./public/gerber-map/data/folder-1/EVB2_MC33812_Rev 2.2.sl2_pad-16" x="3117.6" y="744.3"/><use xlink:href="#./public/gerber-map/data/folder-1/EVB2_MC33812_Rev 2.2.sl2_pad-16" x="3094.2" y="542.3"/><use xlink:href="#./public/gerber-map/data/folder-1/EVB2_MC33812_Rev 2.2.sl2_pad-16" x="3052.7" y="526.2"/><use xlink:href="#./public/gerber-map/data/folder-1/EVB2_MC33812_Rev 2.2.sl2_pad-16" x="3289.3" y="544.3"/><use xlink:href="#./public/gerber-map/data/folder-1/EVB2_MC33812_Rev 2.2.sl2_pad-16" x="3326.8" y="495.3"/><use xlink:href="#./public/gerber-map/data/folder-1/EVB2_MC33812_Rev 2.2.sl2_pad-16" x="3327.8" y="391.7"/><use xlink:href="#./public/gerber-map/data/folder-1/EVB2_MC33812_Rev 2.2.sl2_pad-16" x="3287.6" y="234.3"/><use xlink:href="#./public/gerber-map/data/folder-1/EVB2_MC33812_Rev 2.2.sl2_pad-16" x="3373.2" y="224.6"/><use xlink:href="#./public/gerber-map/data/folder-1/EVB2_MC33812_Rev 2.2.sl2_pad-16" x="3093.5" y="151.9"/><use xlink:href="#./public/gerber-map/data/folder-1/EVB2_MC33812_Rev 2.2.sl2_pad-16" x="3054.1" y="184.6"/><use xlink:href="#./public/gerber-map/data/folder-1/EVB2_MC33812_Rev 2.2.sl2_pad-16" x="2730.6" y="284.5"/><use xlink:href="#./public/gerber-map/data/folder-1/EVB2_MC33812_Rev 2.2.sl2_pad-16" x="2712.9" y="340.6"/><use xlink:href="#./public/gerber-map/data/folder-1/EVB2_MC33812_Rev 2.2.sl2_pad-16" x="2572" y="394.3"/><use xlink:href="#./public/gerber-map/data/folder-1/EVB2_MC33812_Rev 2.2.sl2_pad-16" x="2481.9" y="393.3"/><use xlink:href="#./public/gerber-map/data/folder-1/EVB2_MC33812_Rev 2.2.sl2_pad-16" x="2477.6" y="474.3"/><use xlink:href="#./public/gerber-map/data/folder-1/EVB2_MC33812_Rev 2.2.sl2_pad-16" x="2567.6" y="504.3"/><use xlink:href="#./public/gerber-map/data/folder-1/EVB2_MC33812_Rev 2.2.sl2_pad-16" x="2487.6" y="574.3"/><use xlink:href="#./public/gerber-map/data/folder-1/EVB2_MC33812_Rev 2.2.sl2_pad-16" x="2331.8" y="539.2"/><use xlink:href="#./public/gerber-map/data/folder-1/EVB2_MC33812_Rev 2.2.sl2_pad-16" x="2284.8" y="392.3"/><use xlink:href="#./public/gerber-map/data/folder-1/EVB2_MC33812_Rev 2.2.sl2_pad-16" x="2092" y="333.4"/><use xlink:href="#./public/gerber-map/data/folder-1/EVB2_MC33812_Rev 2.2.sl2_pad-16" x="2327.6" y="214.3"/><use xlink:href="#./public/gerber-map/data/folder-1/EVB2_MC33812_Rev 2.2.sl2_pad-16" x="2387.6" y="234.5"/><use xlink:href="#./public/gerber-map/data/folder-1/EVB2_MC33812_Rev 2.2.sl2_pad-16" x="2658.6" y="198.7"/><use xlink:href="#./public/gerber-map/data/folder-1/EVB2_MC33812_Rev 2.2.sl2_pad-16" x="2722.2" y="495.1"/><use xlink:href="#./public/gerber-map/data/folder-1/EVB2_MC33812_Rev 2.2.sl2_pad-16" x="2718.9" y="542.4"/><use xlink:href="#./public/gerber-map/data/folder-1/EVB2_MC33812_Rev 2.2.sl2_pad-16" x="2726.3" y="614.8"/><use xlink:href="#./public/gerber-map/data/folder-1/EVB2_MC33812_Rev 2.2.sl2_pad-16" x="2286.6" y="783.2"/><use xlink:href="#./public/gerber-map/data/folder-1/EVB2_MC33812_Rev 2.2.sl2_pad-16" x="2177.6" y="804.3"/><use xlink:href="#./public/gerber-map/data/folder-1/EVB2_MC33812_Rev 2.2.sl2_pad-16" x="2127.6" y="1024.3"/><use xlink:href="#./public/gerber-map/data/folder-1/EVB2_MC33812_Rev 2.2.sl2_pad-16" x="2045" y="1095.4"/><use xlink:href="#./public/gerber-map/data/folder-1/EVB2_MC33812_Rev 2.2.sl2_pad-16" x="2157.6" y="1174.3"/><use xlink:href="#./public/gerber-map/data/folder-1/EVB2_MC33812_Rev 2.2.sl2_pad-16" x="2157.6" y="1224.3"/><use xlink:href="#./public/gerber-map/data/folder-1/EVB2_MC33812_Rev 2.2.sl2_pad-16" x="2231" y="1270.2"/><use xlink:href="#./public/gerber-map/data/folder-1/EVB2_MC33812_Rev 2.2.sl2_pad-16" x="2140.9" y="1302.8"/><use xlink:href="#./public/gerber-map/data/folder-1/EVB2_MC33812_Rev 2.2.sl2_pad-16" x="2164.3" y="1378.1"/><use xlink:href="#./public/gerber-map/data/folder-1/EVB2_MC33812_Rev 2.2.sl2_pad-16" x="2385.9" y="1177.1"/><use xlink:href="#./public/gerber-map/data/folder-1/EVB2_MC33812_Rev 2.2.sl2_pad-16" x="2572.1" y="1294.6"/><use xlink:href="#./public/gerber-map/data/folder-1/EVB2_MC33812_Rev 2.2.sl2_pad-17" x="2485.8" y="1323.9"/><use xlink:href="#./public/gerber-map/data/folder-1/EVB2_MC33812_Rev 2.2.sl2_pad-17" x="2976.9" y="1275.8"/><use xlink:href="#./public/gerber-map/data/folder-1/EVB2_MC33812_Rev 2.2.sl2_pad-17" x="2977.9" y="1368.4"/><use xlink:href="#./public/gerber-map/data/folder-1/EVB2_MC33812_Rev 2.2.sl2_pad-17" x="2977.2" y="1458.3"/><use xlink:href="#./public/gerber-map/data/folder-1/EVB2_MC33812_Rev 2.2.sl2_pad-17" x="2977.6" y="1554.3"/><use xlink:href="#./public/gerber-map/data/folder-1/EVB2_MC33812_Rev 2.2.sl2_pad-17" x="2492.7" y="1914.3"/><use xlink:href="#./public/gerber-map/data/folder-1/EVB2_MC33812_Rev 2.2.sl2_pad-17" x="2672.3" y="1953.9"/><use xlink:href="#./public/gerber-map/data/folder-1/EVB2_MC33812_Rev 2.2.sl2_pad-17" x="2952.3" y="2136.2"/><use xlink:href="#./public/gerber-map/data/folder-1/EVB2_MC33812_Rev 2.2.sl2_pad-17" x="3560.1" y="2277.7"/><use xlink:href="#./public/gerber-map/data/folder-1/EVB2_MC33812_Rev 2.2.sl2_pad-17" x="3525.9" y="1638"/><use xlink:href="#./public/gerber-map/data/folder-1/EVB2_MC33812_Rev 2.2.sl2_pad-17" x="2979.1" y="1164.3"/><use xlink:href="#./public/gerber-map/data/folder-1/EVB2_MC33812_Rev 2.2.sl2_pad-17" x="1947.6" y="1684.3"/><use xlink:href="#./public/gerber-map/data/folder-1/EVB2_MC33812_Rev 2.2.sl2_pad-17" x="1675.6" y="1680.5"/><use xlink:href="#./public/gerber-map/data/folder-1/EVB2_MC33812_Rev 2.2.sl2_pad-17" x="1325.9" y="1871.5"/><use xlink:href="#./public/gerber-map/data/folder-1/EVB2_MC33812_Rev 2.2.sl2_pad-17" x="1810" y="2224.7"/><use xlink:href="#./public/gerber-map/data/folder-1/EVB2_MC33812_Rev 2.2.sl2_pad-17" x="1587.6" y="1404.3"/><use xlink:href="#./public/gerber-map/data/folder-1/EVB2_MC33812_Rev 2.2.sl2_pad-17" x="1597.6" y="1324.3"/><use xlink:href="#./public/gerber-map/data/folder-1/EVB2_MC33812_Rev 2.2.sl2_pad-17" x="1597.2" y="1276.7"/><path d="M 3218.8 2501.4 3218.8 2503.1" fill="none" stroke-width="5"/><path d="M 1587.6 1404.3 377.6 1404.3 377.6 1104.3 257.6 1104.3" fill="none" stroke-width="32"/><path d="M 257.6 1104.3 257.6 1098.6 261.4 1098.6 M 257.6 1098.6 257.6 1094.3" fill="none" stroke-width="16"/><path d="M 945 798.2 1000.3 798.2 1000.3 807.2 1399.5 804.6 1400.5 816.8 1399.1 816.8 1399.2 812 M 1399.1 816.8 1397.3 878.5 M 1400.5 816.8 1400.1 816.8 M 1557.6 1174.3 1556.5 284.4 2256.5 284.4 2257.6 284 2328.5 284 2328.5 539.2 2331.8 539.2 M 2284.8 392.3 2226.2 392.3 2231 1270.2 M 2140.9 1302.8 2093.8 1301.6 2092 333.4 M 2255.9 284 2255.9 109.1 3435.5 109.1 3435.5 226.3 3488.7 226.3 3488.7 283.3 3560.9 283.3 3560.9 288 3551.6 288 M 3094.2 152.3 3094.2 542.3 M 3051.7 543.3 3052.7 526.2 M 3051.7 543.3 3051.7 650.2 3117.6 650.1 3117.6 650.1 3538.7 649.2 3538.7 688 3551.6 688 M 3117.6 650.1 3117.6 744.3 M 2740.9 490.8 2722.2 490.8 2722.2 495.1 M 2740.9 490.8 2740.9 284.3 2730.6 284.5 M 3093.5 151.9 3094.2 152.3 M 2257.6 284 2255.9 284 M 3707.6 1014.3 3817.6 1014.3 3816.9 1238.2 3767.6 1263.4 3767.6 1263.5 3767.2 1263.5 M 3767.6 1263.5 3767.6 1264.3 M 3767.2 1363.5 3767.6 1363.5 M 2097.6 1784.3 1517.6 1784.3 1517.6 1608.9 1516.1 1608.9 M 1517.6 1608.9 1517.6 1604.3" fill="none" stroke-width="10"/></g></svg>