G75*
G70*
%OFA0B0*%
%FSLAX24Y24*%
%IPPOS*%
%LPD*%
%AMOC8*
5,1,8,0,0,1.08239X$1,22.5*
%
%ADD10C,0.0660*%
%ADD11R,0.4600X0.4600*%
%ADD12OC8,0.0600*%
%ADD13O,0.1560X0.0780*%
%ADD14O,0.0600X0.1200*%
%ADD15O,0.1200X0.0600*%
%ADD16R,0.0400X0.0400*%
%ADD17O,0.0594X0.1187*%
%ADD18R,0.0827X0.0827*%
%ADD19C,0.0827*%
%ADD20C,0.0260*%
%ADD21C,0.0310*%
%ADD22C,0.0500*%
%ADD23C,0.0160*%
%ADD24C,0.0100*%
%ADD25C,0.0240*%
%ADD26C,0.0400*%
%ADD27C,0.0320*%
D10*
X010204Y021223D03*
X011102Y021228D03*
X012014Y021228D03*
X012965Y021236D03*
X013889Y021241D03*
X013898Y022209D03*
X012957Y022198D03*
X012005Y022192D03*
X011102Y022201D03*
X010182Y022187D03*
X010174Y023165D03*
X011085Y023165D03*
X012005Y023173D03*
X012974Y023169D03*
X013889Y023160D03*
X013886Y024133D03*
X012925Y024129D03*
X012005Y024129D03*
X011085Y024129D03*
X010156Y024129D03*
X010165Y025141D03*
X011094Y025155D03*
X012014Y025190D03*
X012974Y025191D03*
X013920Y025172D03*
D11*
X012167Y023228D03*
D12*
X037672Y015635D03*
X038672Y015635D03*
X038672Y014635D03*
X037672Y014635D03*
X037672Y013635D03*
X038672Y013635D03*
X038672Y012635D03*
X037672Y012635D03*
X037672Y011635D03*
X038672Y011635D03*
X038672Y010635D03*
X037672Y010635D03*
X037672Y009635D03*
X038672Y009635D03*
X038672Y008635D03*
X037672Y008635D03*
D13*
X038767Y021025D03*
X038767Y023005D03*
X002662Y020970D03*
X002662Y018990D03*
X002640Y016965D03*
X002640Y014985D03*
X002614Y012966D03*
X002614Y010986D03*
X002596Y008943D03*
X002596Y006963D03*
D14*
X013161Y016089D03*
X014161Y016089D03*
X015161Y016089D03*
X018090Y010122D03*
X019090Y010122D03*
D15*
X021985Y014434D03*
X021985Y015434D03*
X021985Y016434D03*
X011622Y008554D03*
X011622Y007554D03*
X035516Y006880D03*
X035516Y005880D03*
X035516Y004880D03*
X035516Y003880D03*
X035516Y002880D03*
X035516Y001880D03*
D16*
X019496Y012362D03*
X019102Y012362D03*
X018709Y012362D03*
X018709Y012756D03*
X019102Y012756D03*
X019496Y012756D03*
X019496Y013150D03*
X019496Y013543D03*
X019102Y013543D03*
X019102Y013150D03*
X018709Y013150D03*
X018709Y013543D03*
X018315Y013543D03*
X018315Y013150D03*
X017921Y013150D03*
X017921Y013543D03*
X017921Y013937D03*
X018315Y013937D03*
X018709Y013937D03*
X019102Y013937D03*
X019496Y013937D03*
X019496Y014331D03*
X019102Y014331D03*
X018709Y014331D03*
X018315Y014331D03*
X017921Y014331D03*
X017921Y012756D03*
X017921Y012362D03*
X018315Y012362D03*
X018315Y012756D03*
D17*
X019541Y019717D03*
X016800Y019774D03*
X014304Y019775D03*
X028612Y016336D03*
X035614Y020589D03*
X030948Y021401D03*
D18*
X007756Y006208D03*
D19*
X009425Y006220D03*
X009450Y007982D03*
X007774Y008008D03*
D20*
X011293Y009783D03*
X013973Y008785D03*
X016176Y009243D03*
X015576Y011743D03*
X014928Y012267D03*
X020450Y010954D03*
X021276Y010243D03*
X021576Y011743D03*
X021576Y012243D03*
X022310Y012702D03*
X021409Y013028D03*
X021643Y013781D03*
X023859Y011771D03*
X025721Y012946D03*
X024171Y017831D03*
X022518Y018543D03*
X020976Y017843D03*
X018719Y016209D03*
X024107Y020973D03*
X027292Y022804D03*
X035150Y021489D03*
X037776Y016443D03*
X037076Y010143D03*
X032841Y007476D03*
X031176Y007443D03*
X030942Y005423D03*
X030527Y005262D03*
X032893Y005443D03*
X033268Y004953D03*
X033278Y003917D03*
X032876Y002343D03*
X033732Y002246D03*
X030935Y001519D03*
X030541Y001846D03*
X027306Y002845D03*
X027129Y003406D03*
X025720Y003943D03*
X024819Y003933D03*
X024776Y004743D03*
X025676Y005043D03*
X024876Y005743D03*
X023318Y005392D03*
X022848Y003923D03*
X020920Y003334D03*
X023276Y002143D03*
X023876Y002345D03*
X026586Y001987D03*
X027222Y004951D03*
X027189Y005424D03*
X027263Y006148D03*
X022866Y007832D03*
X021776Y008043D03*
X011565Y006223D03*
X003870Y005304D03*
X005635Y011444D03*
X006476Y015043D03*
X010752Y017236D03*
D21*
X013259Y018715D03*
X016756Y016805D03*
X019476Y016843D03*
X015876Y014043D03*
X015976Y013243D03*
X015972Y012767D03*
X024858Y013239D03*
X029769Y012758D03*
X029779Y013684D03*
X029772Y014583D03*
X029776Y015543D03*
X024927Y019143D03*
X026723Y019539D03*
X029523Y021362D03*
X035601Y022777D03*
X035259Y016380D03*
X029791Y011643D03*
X018100Y022247D03*
D22*
X018095Y022029D01*
X018071Y020825D01*
X021399Y020787D01*
X021399Y019143D01*
X023776Y019143D01*
X024935Y019143D01*
X026276Y019143D01*
X026276Y019539D02*
X026723Y019539D01*
X029580Y019539D01*
X029580Y019783D02*
X035710Y019783D01*
X035643Y020012D02*
X035618Y020555D01*
X035608Y020497D01*
X035649Y020515D02*
X035608Y021500D01*
X035608Y022825D01*
X035601Y022777D02*
X035476Y022777D01*
X035476Y022843D01*
X036576Y022843D01*
X036576Y021025D01*
X038767Y021025D01*
X035476Y022743D02*
X035476Y022777D01*
X029551Y021362D02*
X029551Y019783D01*
X012025Y023197D02*
X006794Y023197D01*
X006794Y018990D01*
X002662Y018990D01*
D23*
X003334Y000903D02*
X037586Y000903D01*
X037541Y000970D01*
X037467Y001104D01*
X037406Y001244D01*
X037406Y001244D01*
X037359Y001389D01*
X037324Y001538D01*
X037303Y001690D01*
X037296Y001843D01*
X037303Y001995D01*
X037324Y002147D01*
X037359Y002296D01*
X037406Y002441D01*
X037467Y002581D01*
X037467Y002581D01*
X037541Y002716D01*
X037626Y002842D01*
X037626Y002842D01*
X037723Y002961D01*
X037830Y003070D01*
X037946Y003170D01*
X038071Y003258D01*
X038203Y003334D01*
X038203Y003334D01*
X038342Y003398D01*
X038486Y003450D01*
X038486Y003450D01*
X038634Y003487D01*
X038785Y003512D01*
X038785Y003512D01*
X038938Y003522D01*
X039091Y003519D01*
X039243Y003501D01*
X039392Y003470D01*
X039393Y003470D01*
X039539Y003426D01*
X039680Y003368D01*
X039680Y003368D01*
X039816Y003298D01*
X039920Y003231D01*
X039952Y024775D01*
X039945Y024770D01*
X039816Y024688D01*
X039680Y024617D01*
X039539Y024560D01*
X039539Y024560D01*
X039393Y024515D01*
X039392Y024515D01*
X039243Y024484D01*
X039243Y024484D01*
X039091Y024467D01*
X038938Y024463D01*
X038785Y024474D01*
X038634Y024498D01*
X038486Y024536D01*
X038342Y024587D01*
X038203Y024651D01*
X038071Y024727D01*
X037946Y024816D01*
X037830Y024915D01*
X037830Y024915D01*
X037723Y025024D01*
X037626Y025143D01*
X037541Y025270D01*
X037467Y025404D01*
X037406Y025544D01*
X037406Y025544D01*
X037359Y025689D01*
X037359Y025689D01*
X037324Y025838D01*
X037303Y025990D01*
X037296Y026143D01*
X037303Y026295D01*
X037324Y026447D01*
X037359Y026596D01*
X037406Y026741D01*
X037467Y026881D01*
X037541Y027016D01*
X037602Y027106D01*
X003351Y027106D01*
X003370Y027080D01*
X003450Y026949D01*
X003517Y026812D01*
X003572Y026669D01*
X003613Y026522D01*
X003641Y026371D01*
X003654Y026219D01*
X003654Y026066D01*
X003641Y025914D01*
X003613Y025764D01*
X003613Y025764D01*
X003572Y025616D01*
X003517Y025473D01*
X003450Y025336D01*
X003370Y025205D01*
X003279Y025082D01*
X003178Y024968D01*
X003178Y024968D01*
X003178Y024968D01*
X003066Y024864D01*
X003066Y024864D01*
X002945Y024770D01*
X002816Y024688D01*
X002680Y024617D01*
X002539Y024560D01*
X002539Y024560D01*
X002393Y024515D01*
X002392Y024515D01*
X002243Y024484D01*
X002243Y024484D01*
X002091Y024467D01*
X001938Y024463D01*
X001785Y024474D01*
X001634Y024498D01*
X001486Y024536D01*
X001342Y024587D01*
X001203Y024651D01*
X001071Y024727D01*
X001008Y024772D01*
X001033Y003234D01*
X001148Y003301D01*
X001148Y003301D01*
X001287Y003365D01*
X001287Y003365D01*
X001431Y003416D01*
X001431Y003416D01*
X001579Y003454D01*
X001579Y003454D01*
X001730Y003478D01*
X001730Y003478D01*
X001883Y003489D01*
X002036Y003485D01*
X002188Y003468D01*
X002337Y003437D01*
X002337Y003437D01*
X002484Y003392D01*
X002625Y003335D01*
X002761Y003264D01*
X002761Y003264D01*
X002890Y003182D01*
X003011Y003088D01*
X003123Y002984D01*
X003123Y002984D01*
X003224Y002869D01*
X003315Y002747D01*
X003395Y002616D01*
X003462Y002479D01*
X003517Y002336D01*
X003558Y002188D01*
X003586Y002038D01*
X003599Y001886D01*
X003599Y001733D01*
X003586Y001581D01*
X003558Y001430D01*
X003517Y001283D01*
X003462Y001140D01*
X003395Y001003D01*
X003395Y001003D01*
X003334Y000903D01*
X003379Y000977D02*
X037537Y000977D01*
X037541Y000970D02*
X037541Y000970D01*
X037467Y001104D02*
X037467Y001104D01*
X037454Y001135D02*
X003460Y001135D01*
X003462Y001140D02*
X003462Y001140D01*
X003520Y001294D02*
X030750Y001294D01*
X030771Y001273D02*
X030689Y001355D01*
X030645Y001461D01*
X030645Y001577D01*
X030689Y001683D01*
X030771Y001765D01*
X030877Y001809D01*
X030993Y001809D01*
X031099Y001765D01*
X031181Y001683D01*
X031225Y001577D01*
X031225Y001461D01*
X031181Y001355D01*
X031099Y001273D01*
X030993Y001229D01*
X030877Y001229D01*
X030771Y001273D01*
X030649Y001452D02*
X003562Y001452D01*
X003588Y001611D02*
X030659Y001611D01*
X030782Y001770D02*
X003599Y001770D01*
X003596Y001928D02*
X023081Y001928D01*
X023112Y001897D02*
X023030Y001978D01*
X022986Y002085D01*
X022986Y002200D01*
X023030Y002307D01*
X023112Y002389D01*
X023219Y002433D01*
X023334Y002433D01*
X023440Y002389D01*
X023522Y002307D01*
X023566Y002200D01*
X023566Y002085D01*
X023522Y001978D01*
X023440Y001897D01*
X023334Y001853D01*
X023219Y001853D01*
X023112Y001897D01*
X022986Y002087D02*
X003577Y002087D01*
X003542Y002245D02*
X023005Y002245D01*
X023149Y002404D02*
X003491Y002404D01*
X003421Y002562D02*
X023683Y002562D01*
X023712Y002591D02*
X023819Y002635D01*
X023934Y002635D01*
X024040Y002591D01*
X024122Y002510D01*
X024166Y002403D01*
X024166Y002288D01*
X024122Y002181D01*
X024040Y002099D01*
X023934Y002055D01*
X023819Y002055D01*
X023712Y002099D01*
X023630Y002181D01*
X023586Y002288D01*
X023586Y002403D01*
X023630Y002510D01*
X023712Y002591D01*
X023586Y002404D02*
X023404Y002404D01*
X023548Y002245D02*
X023604Y002245D01*
X023566Y002087D02*
X023743Y002087D01*
X024009Y002087D02*
X032736Y002087D01*
X032712Y002097D02*
X032630Y002178D01*
X032586Y002285D01*
X032586Y002400D01*
X032630Y002507D01*
X032712Y002589D01*
X032819Y002633D01*
X032934Y002633D01*
X033040Y002589D01*
X033122Y002507D01*
X033166Y002400D01*
X033166Y002285D01*
X033122Y002178D01*
X033040Y002097D01*
X032934Y002053D01*
X032819Y002053D01*
X032712Y002097D01*
X032603Y002245D02*
X024149Y002245D01*
X024166Y002404D02*
X032588Y002404D01*
X032686Y002562D02*
X027382Y002562D01*
X027364Y002555D02*
X027248Y002555D01*
X027142Y002599D01*
X027060Y002681D01*
X027016Y002787D01*
X027016Y002902D01*
X027060Y003009D01*
X027142Y003091D01*
X027248Y003135D01*
X027364Y003135D01*
X027470Y003091D01*
X027552Y003009D01*
X027596Y002902D01*
X027596Y002787D01*
X027552Y002681D01*
X027470Y002599D01*
X027364Y002555D01*
X027230Y002562D02*
X024069Y002562D01*
X023472Y001928D02*
X034736Y001928D01*
X034736Y001900D02*
X034736Y002079D01*
X035017Y002360D01*
X035496Y002360D01*
X035496Y001900D01*
X035536Y001900D01*
X035536Y001860D01*
X036296Y001860D01*
X036296Y001681D01*
X036015Y001400D01*
X035536Y001400D01*
X035536Y001860D01*
X035496Y001860D01*
X035496Y001400D01*
X035017Y001400D01*
X034736Y001681D01*
X034736Y001860D01*
X035496Y001860D01*
X035496Y001900D01*
X034736Y001900D01*
X034736Y001770D02*
X031088Y001770D01*
X031211Y001611D02*
X034806Y001611D01*
X034964Y001452D02*
X031221Y001452D01*
X031120Y001294D02*
X037390Y001294D01*
X037344Y001452D02*
X036067Y001452D01*
X036226Y001611D02*
X037314Y001611D01*
X037300Y001770D02*
X036296Y001770D01*
X036296Y001900D02*
X035536Y001900D01*
X035536Y002360D01*
X036015Y002360D01*
X036296Y002079D01*
X036296Y001900D01*
X036296Y001928D02*
X037300Y001928D01*
X037316Y002087D02*
X036288Y002087D01*
X036129Y002245D02*
X037347Y002245D01*
X037394Y002404D02*
X033165Y002404D01*
X033150Y002245D02*
X034902Y002245D01*
X035025Y002420D02*
X034756Y002689D01*
X034756Y003070D01*
X035025Y003340D01*
X036006Y003340D01*
X036276Y003070D01*
X036276Y002689D01*
X036006Y002420D01*
X035025Y002420D01*
X034883Y002562D02*
X033067Y002562D01*
X033016Y002087D02*
X034744Y002087D01*
X034756Y002721D02*
X027568Y002721D01*
X027596Y002879D02*
X034756Y002879D01*
X034756Y003038D02*
X027523Y003038D01*
X027330Y003196D02*
X034882Y003196D01*
X035025Y003420D02*
X034756Y003689D01*
X034756Y004070D01*
X035025Y004340D01*
X036006Y004340D01*
X036276Y004070D01*
X036276Y003689D01*
X036006Y003420D01*
X035025Y003420D01*
X034932Y003514D02*
X027398Y003514D01*
X027419Y003463D02*
X027375Y003570D01*
X027293Y003652D01*
X027187Y003696D01*
X027071Y003696D01*
X026965Y003652D01*
X026883Y003570D01*
X026839Y003463D01*
X026839Y003348D01*
X026883Y003241D01*
X026965Y003160D01*
X027071Y003116D01*
X027187Y003116D01*
X027293Y003160D01*
X027375Y003241D01*
X027419Y003348D01*
X027419Y003463D01*
X027419Y003355D02*
X038248Y003355D01*
X038342Y003398D02*
X038342Y003398D01*
X038071Y003258D02*
X038071Y003258D01*
X037984Y003196D02*
X036150Y003196D01*
X036276Y003038D02*
X037798Y003038D01*
X037830Y003070D02*
X037830Y003070D01*
X037946Y003170D02*
X037946Y003170D01*
X037723Y002961D02*
X037723Y002961D01*
X037656Y002879D02*
X036276Y002879D01*
X036276Y002721D02*
X037544Y002721D01*
X037541Y002716D02*
X037541Y002716D01*
X037459Y002562D02*
X036149Y002562D01*
X035536Y002245D02*
X035496Y002245D01*
X035496Y002087D02*
X035536Y002087D01*
X035536Y001928D02*
X035496Y001928D01*
X035496Y001770D02*
X035536Y001770D01*
X035536Y001611D02*
X035496Y001611D01*
X035496Y001452D02*
X035536Y001452D01*
X036100Y003514D02*
X038811Y003514D01*
X038938Y003522D02*
X038938Y003522D01*
X039091Y003519D02*
X039091Y003519D01*
X039136Y003514D02*
X039921Y003514D01*
X039921Y003672D02*
X036259Y003672D01*
X036276Y003831D02*
X039921Y003831D01*
X039921Y003989D02*
X036276Y003989D01*
X036198Y004148D02*
X039922Y004148D01*
X039922Y004306D02*
X036040Y004306D01*
X036006Y004420D02*
X035025Y004420D01*
X034756Y004689D01*
X034756Y005070D01*
X035025Y005340D01*
X036006Y005340D01*
X036276Y005070D01*
X036276Y004689D01*
X036006Y004420D01*
X036051Y004465D02*
X039922Y004465D01*
X039922Y004623D02*
X036210Y004623D01*
X036276Y004782D02*
X039923Y004782D01*
X039923Y004940D02*
X036276Y004940D01*
X036247Y005099D02*
X039923Y005099D01*
X039923Y005258D02*
X036089Y005258D01*
X036006Y005420D02*
X035025Y005420D01*
X034756Y005689D01*
X034756Y006070D01*
X035025Y006340D01*
X036006Y006340D01*
X036276Y006070D01*
X036276Y005689D01*
X036006Y005420D01*
X036161Y005575D02*
X039924Y005575D01*
X039924Y005733D02*
X036276Y005733D01*
X036276Y005892D02*
X039924Y005892D01*
X039924Y006050D02*
X036276Y006050D01*
X036137Y006209D02*
X039925Y006209D01*
X039925Y006367D02*
X027454Y006367D01*
X027427Y006394D02*
X027509Y006313D01*
X027553Y006206D01*
X027553Y006091D01*
X027509Y005984D01*
X027427Y005902D01*
X027321Y005858D01*
X027205Y005858D01*
X027099Y005902D01*
X027017Y005984D01*
X026973Y006091D01*
X026973Y006206D01*
X027017Y006313D01*
X027099Y006394D01*
X027205Y006438D01*
X027321Y006438D01*
X027427Y006394D01*
X027552Y006209D02*
X034894Y006209D01*
X034756Y006050D02*
X027536Y006050D01*
X027401Y005892D02*
X034756Y005892D01*
X034756Y005733D02*
X025166Y005733D01*
X025166Y005685D02*
X025122Y005578D01*
X025040Y005497D01*
X024934Y005453D01*
X024819Y005453D01*
X024712Y005497D01*
X024630Y005578D01*
X024586Y005685D01*
X024586Y005800D01*
X024630Y005907D01*
X024712Y005989D01*
X024819Y006033D01*
X024934Y006033D01*
X025040Y005989D01*
X025122Y005907D01*
X025166Y005800D01*
X025166Y005685D01*
X025118Y005575D02*
X026938Y005575D01*
X026943Y005588D02*
X027025Y005670D01*
X027132Y005714D01*
X027247Y005714D01*
X027354Y005670D01*
X027435Y005588D01*
X027479Y005481D01*
X027479Y005366D01*
X027435Y005260D01*
X027377Y005201D01*
X027387Y005197D01*
X027468Y005115D01*
X027512Y005009D01*
X027512Y004893D01*
X027468Y004787D01*
X027387Y004705D01*
X027280Y004661D01*
X027165Y004661D01*
X027058Y004705D01*
X026977Y004787D01*
X026932Y004893D01*
X026932Y005009D01*
X026977Y005115D01*
X027035Y005174D01*
X027025Y005178D01*
X026943Y005260D01*
X026899Y005366D01*
X026899Y005481D01*
X026943Y005588D01*
X026899Y005416D02*
X023608Y005416D01*
X023608Y005450D02*
X023564Y005556D01*
X023482Y005638D01*
X023376Y005682D01*
X023260Y005682D01*
X023154Y005638D01*
X023072Y005556D01*
X023028Y005450D01*
X023028Y005334D01*
X023072Y005228D01*
X023154Y005146D01*
X023260Y005102D01*
X023376Y005102D01*
X023482Y005146D01*
X023564Y005228D01*
X023608Y005334D01*
X023608Y005450D01*
X023545Y005575D02*
X024634Y005575D01*
X024586Y005733D02*
X009748Y005733D01*
X009750Y005734D02*
X009539Y005647D01*
X009311Y005647D01*
X009100Y005734D01*
X008939Y005895D01*
X008852Y006106D01*
X008852Y006334D01*
X008939Y006545D01*
X009100Y006706D01*
X009311Y006794D01*
X009539Y006794D01*
X009750Y006706D01*
X009911Y006545D01*
X009998Y006334D01*
X009998Y006106D01*
X009911Y005895D01*
X009750Y005734D01*
X009907Y005892D02*
X024624Y005892D01*
X025128Y005892D02*
X027125Y005892D01*
X026990Y006050D02*
X009975Y006050D01*
X009998Y006209D02*
X026974Y006209D01*
X027072Y006367D02*
X009985Y006367D01*
X009919Y006526D02*
X034919Y006526D01*
X035025Y006420D02*
X034756Y006689D01*
X034756Y007070D01*
X035025Y007340D01*
X036006Y007340D01*
X036276Y007070D01*
X036276Y006689D01*
X036006Y006420D01*
X035025Y006420D01*
X034761Y006684D02*
X009772Y006684D01*
X009078Y006684D02*
X008349Y006684D01*
X008349Y006696D02*
X008349Y006266D01*
X007814Y006266D01*
X007814Y006150D01*
X008349Y006150D01*
X008349Y005720D01*
X008244Y005615D01*
X007814Y005615D01*
X007814Y006150D01*
X007698Y006150D01*
X007698Y005615D01*
X007268Y005615D01*
X007162Y005720D01*
X007162Y006150D01*
X007698Y006150D01*
X007698Y006266D01*
X007814Y006266D01*
X007814Y006801D01*
X008244Y006801D01*
X008349Y006696D01*
X008349Y006526D02*
X008931Y006526D01*
X008865Y006367D02*
X008349Y006367D01*
X008349Y006050D02*
X008875Y006050D01*
X008852Y006209D02*
X007814Y006209D01*
X007698Y006209D02*
X001029Y006209D01*
X001029Y006367D02*
X007162Y006367D01*
X007162Y006266D02*
X007162Y006696D01*
X007268Y006801D01*
X007698Y006801D01*
X007698Y006266D01*
X007162Y006266D01*
X007162Y006050D02*
X001030Y006050D01*
X001030Y005892D02*
X007162Y005892D01*
X007162Y005733D02*
X001030Y005733D01*
X001030Y005575D02*
X005502Y005575D01*
X005357Y005514D02*
X005765Y005683D01*
X006206Y005683D01*
X006614Y005514D01*
X006926Y005202D01*
X007095Y004794D01*
X007095Y004353D01*
X006926Y003945D01*
X006614Y003633D01*
X006206Y003464D01*
X005765Y003464D01*
X005357Y003633D01*
X005044Y003945D01*
X004876Y004353D01*
X004876Y004794D01*
X005044Y005202D01*
X005357Y005514D01*
X005258Y005416D02*
X001030Y005416D01*
X001030Y005258D02*
X005100Y005258D01*
X005002Y005099D02*
X001031Y005099D01*
X001031Y004940D02*
X004936Y004940D01*
X004876Y004782D02*
X001031Y004782D01*
X001031Y004623D02*
X004876Y004623D01*
X004876Y004465D02*
X001031Y004465D01*
X001031Y004306D02*
X004895Y004306D01*
X004960Y004148D02*
X001032Y004148D01*
X001032Y003989D02*
X005026Y003989D01*
X005159Y003831D02*
X001032Y003831D01*
X001032Y003672D02*
X005317Y003672D01*
X005644Y003514D02*
X001032Y003514D01*
X001033Y003355D02*
X001265Y003355D01*
X001883Y003489D02*
X001883Y003489D01*
X002036Y003485D02*
X002036Y003485D01*
X002188Y003468D02*
X002188Y003468D01*
X002484Y003392D02*
X002484Y003392D01*
X002575Y003355D02*
X020630Y003355D01*
X020630Y003391D02*
X020674Y003498D01*
X020756Y003580D01*
X020862Y003624D01*
X020978Y003624D01*
X021084Y003580D01*
X021166Y003498D01*
X021210Y003391D01*
X021210Y003276D01*
X021166Y003169D01*
X021084Y003088D01*
X020978Y003044D01*
X020862Y003044D01*
X020756Y003088D01*
X020674Y003169D01*
X020630Y003276D01*
X020630Y003391D01*
X020689Y003514D02*
X011510Y003514D01*
X011407Y003471D02*
X010965Y003471D01*
X010557Y003640D01*
X010245Y003952D01*
X010076Y004360D01*
X010076Y004801D01*
X010245Y005209D01*
X010557Y005521D01*
X010965Y005690D01*
X011407Y005690D01*
X011815Y005521D01*
X012127Y005209D01*
X012296Y004801D01*
X012296Y004360D01*
X012127Y003952D01*
X011815Y003640D01*
X011407Y003471D01*
X011847Y003672D02*
X022696Y003672D01*
X022683Y003677D02*
X022602Y003759D01*
X022558Y003865D01*
X022558Y003981D01*
X022602Y004087D01*
X022683Y004169D01*
X022790Y004213D01*
X022905Y004213D01*
X023012Y004169D01*
X023094Y004087D01*
X023138Y003981D01*
X023138Y003865D01*
X023094Y003759D01*
X023012Y003677D01*
X022905Y003633D01*
X022790Y003633D01*
X022683Y003677D01*
X022572Y003831D02*
X012006Y003831D01*
X012142Y003989D02*
X022561Y003989D01*
X022662Y004148D02*
X012208Y004148D01*
X012274Y004306D02*
X034992Y004306D01*
X034980Y004465D02*
X024863Y004465D01*
X024834Y004453D02*
X024719Y004453D01*
X024612Y004497D01*
X024530Y004578D01*
X024486Y004685D01*
X024486Y004800D01*
X024530Y004907D01*
X024612Y004989D01*
X024719Y005033D01*
X024834Y005033D01*
X024940Y004989D01*
X025022Y004907D01*
X025066Y004800D01*
X025066Y004685D01*
X025022Y004578D01*
X024940Y004497D01*
X024834Y004453D01*
X024689Y004465D02*
X012296Y004465D01*
X012296Y004623D02*
X024512Y004623D01*
X024486Y004782D02*
X012296Y004782D01*
X012238Y004940D02*
X024564Y004940D01*
X024989Y004940D02*
X025405Y004940D01*
X025386Y004985D02*
X025386Y005100D01*
X025430Y005207D01*
X025512Y005289D01*
X025619Y005333D01*
X025734Y005333D01*
X025840Y005289D01*
X025922Y005207D01*
X025966Y005100D01*
X025966Y004985D01*
X025922Y004878D01*
X025840Y004797D01*
X025734Y004753D01*
X025619Y004753D01*
X025512Y004797D01*
X025430Y004878D01*
X025386Y004985D01*
X025386Y005099D02*
X012172Y005099D01*
X012079Y005258D02*
X023060Y005258D01*
X023028Y005416D02*
X011920Y005416D01*
X011686Y005575D02*
X023090Y005575D01*
X023576Y005258D02*
X025481Y005258D01*
X025871Y005258D02*
X026945Y005258D01*
X026970Y005099D02*
X025966Y005099D01*
X025948Y004940D02*
X026932Y004940D01*
X026982Y004782D02*
X025804Y004782D01*
X025548Y004782D02*
X025066Y004782D01*
X025041Y004623D02*
X034822Y004623D01*
X034756Y004782D02*
X033507Y004782D01*
X033514Y004789D02*
X033432Y004707D01*
X033326Y004663D01*
X033211Y004663D01*
X033104Y004707D01*
X033022Y004789D01*
X032978Y004895D01*
X032978Y005011D01*
X033022Y005117D01*
X033104Y005199D01*
X033211Y005243D01*
X033326Y005243D01*
X033432Y005199D01*
X033514Y005117D01*
X033558Y005011D01*
X033558Y004895D01*
X033514Y004789D01*
X033558Y004940D02*
X034756Y004940D01*
X034784Y005099D02*
X033522Y005099D01*
X033139Y005278D02*
X033183Y005385D01*
X033183Y005500D01*
X033139Y005607D01*
X033058Y005689D01*
X032951Y005733D01*
X032836Y005733D01*
X032729Y005689D01*
X032647Y005607D01*
X032603Y005500D01*
X032603Y005385D01*
X032647Y005278D01*
X032729Y005197D01*
X032836Y005153D01*
X032951Y005153D01*
X033058Y005197D01*
X033139Y005278D01*
X033118Y005258D02*
X034943Y005258D01*
X034871Y005575D02*
X033153Y005575D01*
X033183Y005416D02*
X039924Y005416D01*
X039925Y006526D02*
X036112Y006526D01*
X036271Y006684D02*
X039925Y006684D01*
X039926Y006843D02*
X036276Y006843D01*
X036276Y007001D02*
X039926Y007001D01*
X039926Y007160D02*
X036186Y007160D01*
X036028Y007319D02*
X039926Y007319D01*
X039926Y007477D02*
X033131Y007477D01*
X033131Y007534D02*
X033087Y007640D01*
X033005Y007722D01*
X032898Y007766D01*
X032783Y007766D01*
X032676Y007722D01*
X032595Y007640D01*
X032551Y007534D01*
X032551Y007418D01*
X032595Y007312D01*
X032676Y007230D01*
X032783Y007186D01*
X032898Y007186D01*
X033005Y007230D01*
X033087Y007312D01*
X033131Y007418D01*
X033131Y007534D01*
X033088Y007636D02*
X039927Y007636D01*
X039927Y007794D02*
X023156Y007794D01*
X023156Y007774D02*
X023112Y007668D01*
X023031Y007586D01*
X022924Y007542D01*
X022809Y007542D01*
X022702Y007586D01*
X022621Y007668D01*
X022576Y007774D01*
X022576Y007890D01*
X022621Y007996D01*
X022702Y008078D01*
X022809Y008122D01*
X022924Y008122D01*
X023031Y008078D01*
X023112Y007996D01*
X023156Y007890D01*
X023156Y007774D01*
X023080Y007636D02*
X030959Y007636D01*
X030930Y007607D02*
X031012Y007689D01*
X031119Y007733D01*
X031234Y007733D01*
X031340Y007689D01*
X031422Y007607D01*
X031466Y007500D01*
X031466Y007385D01*
X031422Y007278D01*
X031340Y007197D01*
X031234Y007153D01*
X031119Y007153D01*
X031012Y007197D01*
X030930Y007278D01*
X030886Y007385D01*
X030886Y007500D01*
X030930Y007607D01*
X030886Y007477D02*
X012382Y007477D01*
X012382Y007363D02*
X012112Y007094D01*
X011131Y007094D01*
X010862Y007363D01*
X010862Y007745D01*
X011131Y008014D01*
X012112Y008014D01*
X012382Y007745D01*
X012382Y007363D01*
X012337Y007319D02*
X030914Y007319D01*
X031101Y007160D02*
X012178Y007160D01*
X012382Y007636D02*
X022653Y007636D01*
X022576Y007794D02*
X021934Y007794D01*
X021940Y007797D02*
X021834Y007753D01*
X021719Y007753D01*
X021612Y007797D01*
X021530Y007878D01*
X021486Y007985D01*
X021486Y008100D01*
X021530Y008207D01*
X021612Y008289D01*
X021719Y008333D01*
X021834Y008333D01*
X021940Y008289D01*
X022022Y008207D01*
X022066Y008100D01*
X022066Y007985D01*
X022022Y007878D01*
X021940Y007797D01*
X022053Y007953D02*
X022602Y007953D01*
X022783Y008111D02*
X022062Y008111D01*
X021959Y008270D02*
X037387Y008270D01*
X037482Y008175D02*
X037212Y008445D01*
X037212Y008826D01*
X037482Y009095D01*
X037863Y009095D01*
X038132Y008826D01*
X038132Y008445D01*
X037863Y008175D01*
X037482Y008175D01*
X037229Y008428D02*
X012382Y008428D01*
X012382Y008363D02*
X012112Y008094D01*
X011131Y008094D01*
X010862Y008363D01*
X010862Y008745D01*
X011131Y009014D01*
X012112Y009014D01*
X012382Y008745D01*
X012382Y008363D01*
X012288Y008270D02*
X021593Y008270D01*
X021491Y008111D02*
X012130Y008111D01*
X012174Y007953D02*
X021500Y007953D01*
X021618Y007794D02*
X012332Y007794D01*
X012382Y008587D02*
X013760Y008587D01*
X013727Y008620D02*
X013683Y008727D01*
X013683Y008842D01*
X013727Y008949D01*
X013809Y009031D01*
X013915Y009075D01*
X014030Y009075D01*
X014137Y009031D01*
X014219Y008949D01*
X014263Y008842D01*
X014263Y008727D01*
X014219Y008620D01*
X014137Y008539D01*
X014030Y008495D01*
X013915Y008495D01*
X013809Y008539D01*
X013727Y008620D01*
X013683Y008745D02*
X012381Y008745D01*
X012222Y008904D02*
X013708Y008904D01*
X013886Y009063D02*
X003536Y009063D01*
X003536Y009171D02*
X003214Y009493D01*
X001978Y009493D01*
X001656Y009171D01*
X001656Y008715D01*
X001978Y008393D01*
X003214Y008393D01*
X003536Y008715D01*
X003536Y009171D01*
X003486Y009221D02*
X015886Y009221D01*
X015886Y009185D02*
X015886Y009300D01*
X015930Y009407D01*
X016012Y009489D01*
X016119Y009533D01*
X016234Y009533D01*
X016340Y009489D01*
X016422Y009407D01*
X016466Y009300D01*
X016466Y009185D01*
X016422Y009078D01*
X016340Y008997D01*
X016234Y008953D01*
X016119Y008953D01*
X016012Y008997D01*
X015930Y009078D01*
X015886Y009185D01*
X015946Y009063D02*
X014060Y009063D01*
X014237Y008904D02*
X037290Y008904D01*
X037212Y008745D02*
X014263Y008745D01*
X014185Y008587D02*
X037212Y008587D01*
X037449Y009063D02*
X016406Y009063D01*
X016466Y009221D02*
X037436Y009221D01*
X037482Y009175D02*
X037212Y009445D01*
X037212Y009826D01*
X037482Y010095D01*
X037863Y010095D01*
X038132Y009826D01*
X038132Y009445D01*
X037863Y009175D01*
X037482Y009175D01*
X037278Y009380D02*
X019298Y009380D01*
X019281Y009362D02*
X019550Y009632D01*
X019550Y010613D01*
X019281Y010882D01*
X018899Y010882D01*
X018630Y010613D01*
X018630Y009632D01*
X018899Y009362D01*
X019281Y009362D01*
X019456Y009538D02*
X037212Y009538D01*
X037212Y009697D02*
X019550Y009697D01*
X019550Y009855D02*
X037012Y009855D01*
X037019Y009853D02*
X036912Y009897D01*
X036830Y009978D01*
X036786Y010085D01*
X036786Y010200D01*
X036830Y010307D01*
X036912Y010389D01*
X037019Y010433D01*
X037134Y010433D01*
X037240Y010389D01*
X037322Y010307D01*
X037366Y010200D01*
X037366Y010085D01*
X037322Y009978D01*
X037240Y009897D01*
X037134Y009853D01*
X037019Y009853D01*
X037140Y009855D02*
X037242Y009855D01*
X037337Y010014D02*
X037400Y010014D01*
X037366Y010172D02*
X039930Y010172D01*
X039930Y010014D02*
X038944Y010014D01*
X038863Y010095D02*
X039132Y009826D01*
X039132Y009445D01*
X038863Y009175D01*
X038482Y009175D01*
X038212Y009445D01*
X038212Y009826D01*
X038482Y010095D01*
X038863Y010095D01*
X038863Y010175D02*
X038482Y010175D01*
X038212Y010445D01*
X038212Y010826D01*
X038482Y011095D01*
X038863Y011095D01*
X039132Y010826D01*
X039132Y010445D01*
X038863Y010175D01*
X039018Y010331D02*
X039931Y010331D01*
X039931Y010489D02*
X039132Y010489D01*
X039132Y010648D02*
X039931Y010648D01*
X039931Y010807D02*
X039132Y010807D01*
X038993Y010965D02*
X039932Y010965D01*
X039932Y011124D02*
X020691Y011124D01*
X020696Y011118D02*
X020740Y011012D01*
X020740Y010896D01*
X020696Y010790D01*
X020615Y010708D01*
X020508Y010664D01*
X020393Y010664D01*
X020286Y010708D01*
X020205Y010790D01*
X020160Y010896D01*
X020160Y011012D01*
X020205Y011118D01*
X020286Y011200D01*
X020393Y011244D01*
X020508Y011244D01*
X020615Y011200D01*
X020696Y011118D01*
X020740Y010965D02*
X037351Y010965D01*
X037482Y011095D02*
X037863Y011095D01*
X038132Y010826D01*
X038132Y010445D01*
X037863Y010175D01*
X037482Y010175D01*
X037212Y010445D01*
X037212Y010826D01*
X037482Y011095D01*
X037482Y011175D02*
X037212Y011445D01*
X037212Y011826D01*
X037482Y012095D01*
X037863Y012095D01*
X038132Y011826D01*
X038132Y011445D01*
X037863Y011175D01*
X037482Y011175D01*
X037375Y011282D02*
X003486Y011282D01*
X003554Y011214D02*
X003232Y011536D01*
X001997Y011536D01*
X001674Y011214D01*
X001674Y010758D01*
X001997Y010436D01*
X003232Y010436D01*
X003554Y010758D01*
X003554Y011214D01*
X003554Y011124D02*
X020210Y011124D01*
X020160Y010965D02*
X003554Y010965D01*
X003554Y010807D02*
X017824Y010807D01*
X017899Y010882D02*
X018281Y010882D01*
X018550Y010613D01*
X018550Y009632D01*
X018281Y009362D01*
X017899Y009362D01*
X017630Y009632D01*
X017630Y010613D01*
X017899Y010882D01*
X017665Y010648D02*
X003444Y010648D01*
X003286Y010489D02*
X017630Y010489D01*
X017630Y010331D02*
X001025Y010331D01*
X001024Y010489D02*
X001943Y010489D01*
X001784Y010648D02*
X001024Y010648D01*
X001024Y010807D02*
X001674Y010807D01*
X001674Y010965D02*
X001024Y010965D01*
X001024Y011124D02*
X001674Y011124D01*
X001743Y011282D02*
X001024Y011282D01*
X001023Y011441D02*
X001902Y011441D01*
X001023Y011599D02*
X015322Y011599D01*
X015330Y011578D02*
X015286Y011685D01*
X015286Y011800D01*
X015330Y011907D01*
X015412Y011989D01*
X015519Y012033D01*
X015634Y012033D01*
X015740Y011989D01*
X015822Y011907D01*
X015866Y011800D01*
X015866Y011685D01*
X015822Y011578D01*
X015740Y011497D01*
X015634Y011453D01*
X015519Y011453D01*
X015412Y011497D01*
X015330Y011578D01*
X015286Y011758D02*
X001023Y011758D01*
X001023Y011916D02*
X015340Y011916D01*
X015813Y011916D02*
X021340Y011916D01*
X021330Y011907D02*
X021412Y011989D01*
X021422Y011993D01*
X021412Y011997D01*
X021330Y012078D01*
X021286Y012185D01*
X021286Y012300D01*
X021330Y012407D01*
X021412Y012489D01*
X021519Y012533D01*
X021634Y012533D01*
X021740Y012489D01*
X021822Y012407D01*
X021866Y012300D01*
X021866Y012185D01*
X021822Y012078D01*
X021740Y011997D01*
X021730Y011993D01*
X021740Y011989D01*
X021822Y011907D01*
X021866Y011800D01*
X021866Y011685D01*
X021822Y011578D01*
X021740Y011497D01*
X021634Y011453D01*
X021519Y011453D01*
X021412Y011497D01*
X021330Y011578D01*
X021286Y011685D01*
X021286Y011800D01*
X021330Y011907D01*
X021286Y011758D02*
X015866Y011758D01*
X015831Y011599D02*
X021322Y011599D01*
X021831Y011599D02*
X037212Y011599D01*
X037216Y011441D02*
X003327Y011441D01*
X003232Y012416D02*
X001997Y012416D01*
X001674Y012738D01*
X001674Y013194D01*
X001997Y013516D01*
X003232Y013516D01*
X003554Y013194D01*
X003554Y012738D01*
X003232Y012416D01*
X003367Y012551D02*
X015743Y012551D01*
X015705Y012588D02*
X015793Y012500D01*
X015909Y012452D01*
X016034Y012452D01*
X016150Y012500D01*
X016239Y012588D01*
X016287Y012704D01*
X016287Y012829D01*
X016239Y012945D01*
X016181Y013003D01*
X016243Y013064D01*
X016291Y013180D01*
X016291Y013305D01*
X016243Y013421D01*
X016155Y013510D01*
X016039Y013558D01*
X015914Y013558D01*
X015798Y013510D01*
X015709Y013421D01*
X015661Y013305D01*
X015661Y013180D01*
X015709Y013064D01*
X015767Y013007D01*
X015705Y012945D01*
X015657Y012829D01*
X015657Y012704D01*
X015705Y012588D01*
X015657Y012709D02*
X003526Y012709D01*
X003554Y012868D02*
X015673Y012868D01*
X015747Y013026D02*
X003554Y013026D01*
X003554Y013185D02*
X015661Y013185D01*
X015677Y013343D02*
X003405Y013343D01*
X003246Y013502D02*
X015790Y013502D01*
X015814Y013728D02*
X015698Y013776D01*
X015609Y013864D01*
X015561Y013980D01*
X015561Y014105D01*
X015609Y014221D01*
X015698Y014310D01*
X015814Y014358D01*
X015939Y014358D01*
X016055Y014310D01*
X016143Y014221D01*
X016191Y014105D01*
X016191Y013980D01*
X016143Y013864D01*
X016055Y013776D01*
X015939Y013728D01*
X015814Y013728D01*
X015655Y013819D02*
X001021Y013819D01*
X001020Y013977D02*
X015562Y013977D01*
X015574Y014136D02*
X001020Y014136D01*
X001020Y014294D02*
X015683Y014294D01*
X016070Y014294D02*
X017561Y014294D01*
X017561Y014203D02*
X017561Y014597D01*
X017655Y014691D01*
X018188Y014691D01*
X018581Y014691D01*
X018975Y014691D01*
X019201Y014691D01*
X019221Y014711D01*
X019496Y014711D01*
X019496Y014331D01*
X019500Y014331D01*
X019500Y016843D01*
X019476Y016843D01*
X019464Y016843D01*
X019472Y016805D01*
X016756Y016805D01*
X016773Y016888D01*
X016773Y016820D01*
X016076Y016820D01*
X016076Y017136D01*
X013376Y017136D01*
X013376Y018715D01*
X013259Y018715D01*
X013847Y019289D02*
X014114Y019021D01*
X014493Y019021D01*
X014761Y019289D01*
X014761Y020261D01*
X014680Y020341D01*
X014747Y020341D01*
X015534Y021129D01*
X016676Y021129D01*
X017094Y021129D01*
X017389Y021424D01*
X017390Y021425D01*
X017390Y021621D01*
X017391Y021622D01*
X017391Y024574D01*
X017391Y024993D01*
X017095Y025288D01*
X015556Y025288D01*
X014855Y025937D01*
X014714Y026078D01*
X014505Y026078D01*
X014504Y026078D01*
X014296Y026078D01*
X014296Y026078D01*
X010012Y026076D01*
X009801Y026076D01*
X009308Y025583D01*
X009308Y025165D01*
X009308Y023607D01*
X006624Y023607D01*
X006384Y023367D01*
X006384Y023027D01*
X006384Y019400D01*
X003420Y019400D01*
X003280Y019540D01*
X002044Y019540D01*
X001722Y019218D01*
X001722Y018762D01*
X002044Y018440D01*
X003280Y018440D01*
X003420Y018580D01*
X006624Y018580D01*
X006964Y018580D01*
X007204Y018820D01*
X007204Y022787D01*
X009308Y022787D01*
X009308Y021252D01*
X009308Y020834D01*
X009505Y020637D01*
X009801Y020341D01*
X013927Y020341D01*
X013847Y020261D01*
X013847Y019289D01*
X013847Y019368D02*
X007204Y019368D01*
X007204Y019526D02*
X013847Y019526D01*
X013847Y019685D02*
X007204Y019685D01*
X007204Y019844D02*
X013847Y019844D01*
X013847Y020002D02*
X007204Y020002D01*
X007204Y020161D02*
X013847Y020161D01*
X013905Y020319D02*
X007204Y020319D01*
X007204Y020478D02*
X009665Y020478D01*
X009506Y020636D02*
X007204Y020636D01*
X007204Y020795D02*
X009348Y020795D01*
X009308Y020953D02*
X007204Y020953D01*
X007204Y021112D02*
X009308Y021112D01*
X009308Y021270D02*
X007204Y021270D01*
X007204Y021429D02*
X009308Y021429D01*
X009308Y021587D02*
X007204Y021587D01*
X007204Y021746D02*
X009308Y021746D01*
X009308Y021905D02*
X007204Y021905D01*
X007204Y022063D02*
X009308Y022063D01*
X009308Y022222D02*
X007204Y022222D01*
X007204Y022380D02*
X009308Y022380D01*
X009308Y022539D02*
X007204Y022539D01*
X007204Y022697D02*
X009308Y022697D01*
X009308Y023649D02*
X001009Y023649D01*
X001009Y023807D02*
X009308Y023807D01*
X009308Y023966D02*
X001009Y023966D01*
X001009Y024124D02*
X009308Y024124D01*
X009308Y024283D02*
X001009Y024283D01*
X001008Y024441D02*
X009308Y024441D01*
X009308Y024600D02*
X002637Y024600D01*
X002680Y024617D02*
X002680Y024617D01*
X002816Y024688D02*
X002816Y024688D01*
X002927Y024758D02*
X009308Y024758D01*
X009308Y024917D02*
X003123Y024917D01*
X003273Y025075D02*
X009308Y025075D01*
X009308Y025234D02*
X003388Y025234D01*
X003370Y025205D02*
X003370Y025205D01*
X003279Y025082D02*
X003279Y025082D01*
X003450Y025336D02*
X003450Y025336D01*
X003478Y025393D02*
X009308Y025393D01*
X009308Y025551D02*
X003547Y025551D01*
X003572Y025616D02*
X003572Y025616D01*
X003598Y025710D02*
X009435Y025710D01*
X009593Y025868D02*
X003632Y025868D01*
X003651Y026027D02*
X009752Y026027D01*
X006507Y023490D02*
X001010Y023490D01*
X001010Y023331D02*
X006384Y023331D01*
X006384Y023173D02*
X001010Y023173D01*
X001010Y023014D02*
X006384Y023014D01*
X006384Y022856D02*
X001010Y022856D01*
X001010Y022697D02*
X006384Y022697D01*
X006384Y022539D02*
X001011Y022539D01*
X001011Y022380D02*
X006384Y022380D01*
X006384Y022222D02*
X001011Y022222D01*
X001011Y022063D02*
X006384Y022063D01*
X006384Y021905D02*
X001011Y021905D01*
X001012Y021746D02*
X006384Y021746D01*
X006384Y021587D02*
X001012Y021587D01*
X001012Y021429D02*
X001953Y021429D01*
X002044Y021520D02*
X001722Y021198D01*
X001722Y020742D01*
X002044Y020420D01*
X003280Y020420D01*
X003602Y020742D01*
X003602Y021198D01*
X003280Y021520D01*
X002044Y021520D01*
X001795Y021270D02*
X001012Y021270D01*
X001012Y021112D02*
X001722Y021112D01*
X001722Y020953D02*
X001012Y020953D01*
X001013Y020795D02*
X001722Y020795D01*
X001828Y020636D02*
X001013Y020636D01*
X001013Y020478D02*
X001986Y020478D01*
X001013Y020319D02*
X006384Y020319D01*
X006384Y020161D02*
X001013Y020161D01*
X001014Y020002D02*
X006384Y020002D01*
X006384Y019844D02*
X001014Y019844D01*
X001014Y019685D02*
X006384Y019685D01*
X006384Y019526D02*
X003293Y019526D01*
X003415Y018575D02*
X022228Y018575D01*
X022228Y018600D02*
X022272Y018707D01*
X022353Y018789D01*
X022460Y018833D01*
X022575Y018833D01*
X022682Y018789D01*
X022763Y018707D01*
X022808Y018600D01*
X022808Y018485D01*
X022763Y018378D01*
X022682Y018297D01*
X022575Y018253D01*
X022460Y018253D01*
X022353Y018297D01*
X022272Y018378D01*
X022228Y018485D01*
X022228Y018600D01*
X022299Y018734D02*
X007117Y018734D01*
X007204Y018892D02*
X039943Y018892D01*
X039943Y018734D02*
X022737Y018734D01*
X022808Y018575D02*
X039943Y018575D01*
X039942Y018417D02*
X022779Y018417D01*
X022588Y018258D02*
X039942Y018258D01*
X039942Y018100D02*
X024281Y018100D01*
X024228Y018121D02*
X024335Y018077D01*
X024416Y017996D01*
X024461Y017889D01*
X024461Y017774D01*
X024416Y017667D01*
X024335Y017586D01*
X024228Y017541D01*
X024113Y017541D01*
X024006Y017586D01*
X023925Y017667D01*
X023881Y017774D01*
X023881Y017889D01*
X023925Y017996D01*
X024006Y018077D01*
X024113Y018121D01*
X024228Y018121D01*
X024060Y018100D02*
X021114Y018100D01*
X021140Y018089D02*
X021222Y018007D01*
X021266Y017900D01*
X021266Y017785D01*
X021222Y017678D01*
X021140Y017597D01*
X021034Y017553D01*
X020919Y017553D01*
X020812Y017597D01*
X020730Y017678D01*
X020686Y017785D01*
X020686Y017900D01*
X020730Y018007D01*
X020812Y018089D01*
X020919Y018133D01*
X021034Y018133D01*
X021140Y018089D01*
X021249Y017941D02*
X023902Y017941D01*
X023881Y017782D02*
X021265Y017782D01*
X021168Y017624D02*
X023968Y017624D01*
X024373Y017624D02*
X039941Y017624D01*
X039941Y017782D02*
X024461Y017782D01*
X024439Y017941D02*
X039942Y017941D01*
X039941Y017465D02*
X010933Y017465D01*
X010917Y017481D02*
X010998Y017400D01*
X011042Y017293D01*
X011042Y017178D01*
X010998Y017071D01*
X010917Y016990D01*
X028323Y016990D01*
X028423Y017090D02*
X028155Y016822D01*
X028155Y015850D01*
X028423Y015582D01*
X028801Y015582D01*
X029069Y015850D01*
X029069Y016822D01*
X028801Y017090D01*
X028423Y017090D01*
X028164Y016831D02*
X022538Y016831D01*
X022475Y016894D02*
X022745Y016625D01*
X022745Y016243D01*
X022475Y015974D01*
X021494Y015974D01*
X021225Y016243D01*
X021225Y016625D01*
X021494Y016894D01*
X022475Y016894D01*
X022697Y016673D02*
X028155Y016673D01*
X028155Y016514D02*
X022745Y016514D01*
X022745Y016356D02*
X028155Y016356D01*
X028155Y016197D02*
X022698Y016197D01*
X022540Y016038D02*
X028155Y016038D01*
X028155Y015880D02*
X022489Y015880D01*
X022475Y015894D02*
X022745Y015625D01*
X022745Y015243D01*
X022475Y014974D01*
X021494Y014974D01*
X021225Y015243D01*
X021225Y015625D01*
X021494Y015894D01*
X022475Y015894D01*
X022648Y015721D02*
X028284Y015721D01*
X028940Y015721D02*
X037212Y015721D01*
X037212Y015826D02*
X037482Y016095D01*
X037863Y016095D01*
X038132Y015826D01*
X038132Y015445D01*
X037863Y015175D01*
X037482Y015175D01*
X037212Y015445D01*
X037212Y015826D01*
X037266Y015880D02*
X029069Y015880D01*
X029069Y016038D02*
X037425Y016038D01*
X037920Y016038D02*
X038396Y016038D01*
X038473Y016115D02*
X038192Y015834D01*
X038192Y015655D01*
X038652Y015655D01*
X038652Y015615D01*
X038652Y015155D01*
X038473Y015155D01*
X038192Y015437D01*
X038192Y015615D01*
X038652Y015615D01*
X038692Y015615D01*
X038692Y015155D01*
X038871Y015155D01*
X039152Y015437D01*
X039152Y015615D01*
X038693Y015615D01*
X038693Y015655D01*
X039152Y015655D01*
X039152Y015834D01*
X038871Y016115D01*
X038692Y016115D01*
X038692Y015656D01*
X038652Y015656D01*
X038652Y016115D01*
X038473Y016115D01*
X038652Y016038D02*
X038692Y016038D01*
X038692Y015880D02*
X038652Y015880D01*
X038652Y015721D02*
X038692Y015721D01*
X038692Y015563D02*
X038652Y015563D01*
X038652Y015404D02*
X038692Y015404D01*
X038692Y015246D02*
X038652Y015246D01*
X038482Y015095D02*
X038863Y015095D01*
X039132Y014826D01*
X039132Y014445D01*
X038863Y014175D01*
X038482Y014175D01*
X038212Y014445D01*
X038212Y014826D01*
X038482Y015095D01*
X038474Y015087D02*
X037871Y015087D01*
X037863Y015095D02*
X038132Y014826D01*
X038132Y014445D01*
X037863Y014175D01*
X037482Y014175D01*
X037212Y014445D01*
X037212Y014826D01*
X037482Y015095D01*
X037863Y015095D01*
X037933Y015246D02*
X038383Y015246D01*
X038225Y015404D02*
X038092Y015404D01*
X038132Y015563D02*
X038192Y015563D01*
X038192Y015721D02*
X038132Y015721D01*
X038078Y015880D02*
X038238Y015880D01*
X038948Y016038D02*
X039939Y016038D01*
X039939Y015880D02*
X039107Y015880D01*
X039152Y015721D02*
X039938Y015721D01*
X039938Y015563D02*
X039152Y015563D01*
X039120Y015404D02*
X039938Y015404D01*
X039938Y015246D02*
X038961Y015246D01*
X038871Y015087D02*
X039938Y015087D01*
X039937Y014929D02*
X039030Y014929D01*
X039132Y014770D02*
X039937Y014770D01*
X039937Y014612D02*
X039132Y014612D01*
X039132Y014453D02*
X039937Y014453D01*
X039936Y014294D02*
X038982Y014294D01*
X038863Y014095D02*
X039132Y013826D01*
X039132Y013445D01*
X038863Y013175D01*
X038482Y013175D01*
X038212Y013445D01*
X038212Y013826D01*
X038482Y014095D01*
X038863Y014095D01*
X038981Y013977D02*
X039936Y013977D01*
X039936Y013819D02*
X039132Y013819D01*
X039132Y013660D02*
X039935Y013660D01*
X039935Y013502D02*
X039132Y013502D01*
X039031Y013343D02*
X039935Y013343D01*
X039935Y013185D02*
X038872Y013185D01*
X038863Y013095D02*
X039132Y012826D01*
X039132Y012445D01*
X038863Y012175D01*
X038482Y012175D01*
X038212Y012445D01*
X038212Y012826D01*
X038482Y013095D01*
X038863Y013095D01*
X038932Y013026D02*
X039935Y013026D01*
X039934Y012868D02*
X039091Y012868D01*
X039132Y012709D02*
X039934Y012709D01*
X039934Y012551D02*
X039132Y012551D01*
X039079Y012392D02*
X039934Y012392D01*
X039933Y012233D02*
X038921Y012233D01*
X038863Y012095D02*
X039132Y011826D01*
X039132Y011445D01*
X038863Y011175D01*
X038482Y011175D01*
X038212Y011445D01*
X038212Y011826D01*
X038482Y012095D01*
X038863Y012095D01*
X038883Y012075D02*
X039933Y012075D01*
X039933Y011916D02*
X039042Y011916D01*
X039132Y011758D02*
X039933Y011758D01*
X039932Y011599D02*
X039132Y011599D01*
X039128Y011441D02*
X039932Y011441D01*
X039932Y011282D02*
X038969Y011282D01*
X038375Y011282D02*
X037969Y011282D01*
X038128Y011441D02*
X038216Y011441D01*
X038212Y011599D02*
X038132Y011599D01*
X038132Y011758D02*
X038212Y011758D01*
X038303Y011916D02*
X038042Y011916D01*
X037883Y012075D02*
X038461Y012075D01*
X038424Y012233D02*
X037921Y012233D01*
X037863Y012175D02*
X037482Y012175D01*
X037212Y012445D01*
X037212Y012826D01*
X037482Y013095D01*
X037863Y013095D01*
X038132Y012826D01*
X038132Y012445D01*
X037863Y012175D01*
X038079Y012392D02*
X038265Y012392D01*
X038212Y012551D02*
X038132Y012551D01*
X038132Y012709D02*
X038212Y012709D01*
X038254Y012868D02*
X038091Y012868D01*
X037932Y013026D02*
X038412Y013026D01*
X038473Y013185D02*
X037872Y013185D01*
X037863Y013175D02*
X037482Y013175D01*
X037212Y013445D01*
X037212Y013826D01*
X037482Y014095D01*
X037863Y014095D01*
X038132Y013826D01*
X038132Y013445D01*
X037863Y013175D01*
X038031Y013343D02*
X038314Y013343D01*
X038212Y013502D02*
X038132Y013502D01*
X038132Y013660D02*
X038212Y013660D01*
X038212Y013819D02*
X038132Y013819D01*
X037981Y013977D02*
X038364Y013977D01*
X038363Y014294D02*
X037982Y014294D01*
X038132Y014453D02*
X038212Y014453D01*
X038212Y014612D02*
X038132Y014612D01*
X038132Y014770D02*
X038212Y014770D01*
X038315Y014929D02*
X038030Y014929D01*
X037474Y015087D02*
X022589Y015087D01*
X022745Y015246D02*
X037411Y015246D01*
X037253Y015404D02*
X022745Y015404D01*
X022745Y015563D02*
X037212Y015563D01*
X037315Y014929D02*
X003580Y014929D01*
X003580Y015087D02*
X021381Y015087D01*
X021225Y015246D02*
X003548Y015246D01*
X003580Y015213D02*
X003258Y015535D01*
X002023Y015535D01*
X001700Y015213D01*
X001700Y014757D01*
X002023Y014435D01*
X003258Y014435D01*
X003580Y014757D01*
X003580Y015213D01*
X003389Y015404D02*
X012868Y015404D01*
X012963Y015309D02*
X012682Y015591D01*
X012682Y016069D01*
X013141Y016069D01*
X013141Y016109D01*
X012682Y016109D01*
X012682Y016588D01*
X012963Y016869D01*
X013141Y016869D01*
X013141Y016110D01*
X013182Y016110D01*
X013182Y016869D01*
X013360Y016869D01*
X013641Y016588D01*
X013641Y016109D01*
X013182Y016109D01*
X013182Y016069D01*
X013641Y016069D01*
X013641Y015591D01*
X013360Y015309D01*
X013182Y015309D01*
X013182Y016069D01*
X013141Y016069D01*
X013141Y015309D01*
X012963Y015309D01*
X013141Y015404D02*
X013182Y015404D01*
X013182Y015563D02*
X013141Y015563D01*
X013141Y015721D02*
X013182Y015721D01*
X013182Y015880D02*
X013141Y015880D01*
X013141Y016038D02*
X013182Y016038D01*
X013161Y016089D02*
X013143Y016089D01*
X013143Y017136D01*
X013376Y017136D01*
X013398Y016831D02*
X013953Y016831D01*
X013971Y016849D02*
X013702Y016580D01*
X013702Y015599D01*
X013971Y015329D01*
X014352Y015329D01*
X014621Y015599D01*
X014621Y016580D01*
X014352Y016849D01*
X013971Y016849D01*
X013794Y016673D02*
X013557Y016673D01*
X013641Y016514D02*
X013702Y016514D01*
X013702Y016356D02*
X013641Y016356D01*
X013641Y016197D02*
X013702Y016197D01*
X013702Y016038D02*
X013641Y016038D01*
X013641Y015880D02*
X013702Y015880D01*
X013702Y015721D02*
X013641Y015721D01*
X013614Y015563D02*
X013737Y015563D01*
X013896Y015404D02*
X013455Y015404D01*
X012709Y015563D02*
X001019Y015563D01*
X001018Y015721D02*
X012682Y015721D01*
X012682Y015880D02*
X001018Y015880D01*
X001018Y016038D02*
X012682Y016038D01*
X012682Y016197D02*
X001018Y016197D01*
X001018Y016356D02*
X012682Y016356D01*
X012682Y016514D02*
X003357Y016514D01*
X003258Y016415D02*
X003580Y016737D01*
X003580Y017193D01*
X003258Y017515D01*
X002023Y017515D01*
X001700Y017193D01*
X001700Y016737D01*
X002023Y016415D01*
X003258Y016415D01*
X003516Y016673D02*
X012766Y016673D01*
X012925Y016831D02*
X003580Y016831D01*
X003580Y016990D02*
X010588Y016990D01*
X010506Y017071D01*
X010462Y017178D01*
X010462Y017293D01*
X010506Y017400D01*
X010588Y017481D01*
X010695Y017526D01*
X010810Y017526D01*
X010917Y017481D01*
X011037Y017307D02*
X039941Y017307D01*
X039940Y017148D02*
X011030Y017148D01*
X010917Y016990D02*
X010810Y016946D01*
X010695Y016946D01*
X010588Y016990D01*
X010475Y017148D02*
X003580Y017148D01*
X003466Y017307D02*
X010468Y017307D01*
X010572Y017465D02*
X003308Y017465D01*
X001973Y017465D02*
X001016Y017465D01*
X001017Y017307D02*
X001814Y017307D01*
X001700Y017148D02*
X001017Y017148D01*
X001017Y016990D02*
X001700Y016990D01*
X001700Y016831D02*
X001017Y016831D01*
X001017Y016673D02*
X001765Y016673D01*
X001924Y016514D02*
X001018Y016514D01*
X001019Y015404D02*
X001892Y015404D01*
X001733Y015246D02*
X001019Y015246D01*
X001019Y015087D02*
X001700Y015087D01*
X001700Y014929D02*
X001019Y014929D01*
X001020Y014770D02*
X001700Y014770D01*
X001846Y014612D02*
X001020Y014612D01*
X001020Y014453D02*
X002005Y014453D01*
X001983Y013502D02*
X001021Y013502D01*
X001021Y013660D02*
X017561Y013660D01*
X017561Y013810D02*
X017561Y013416D01*
X017561Y013022D01*
X017561Y012490D01*
X017561Y012096D01*
X017655Y012002D01*
X018188Y012002D01*
X018581Y012002D01*
X018975Y012002D01*
X019230Y012002D01*
X019762Y012002D01*
X019856Y012096D01*
X019856Y012629D01*
X019856Y013022D01*
X019856Y013416D01*
X019856Y013810D01*
X019856Y014036D01*
X019876Y014056D01*
X019876Y014331D01*
X019496Y014331D01*
X019972Y014331D01*
X019972Y009369D01*
X023864Y009369D01*
X023864Y011771D01*
X023859Y011771D01*
X022556Y012538D02*
X022600Y012644D01*
X022600Y012760D01*
X022556Y012866D01*
X022475Y012948D01*
X022368Y012992D01*
X022253Y012992D01*
X022146Y012948D01*
X022065Y012866D01*
X022020Y012760D01*
X022020Y012644D01*
X022065Y012538D01*
X022146Y012456D01*
X022253Y012412D01*
X022368Y012412D01*
X022475Y012456D01*
X022556Y012538D01*
X022562Y012551D02*
X037212Y012551D01*
X037212Y012709D02*
X025894Y012709D01*
X025885Y012701D02*
X025779Y012656D01*
X025663Y012656D01*
X025557Y012701D01*
X025475Y012782D01*
X025431Y012889D01*
X025431Y013004D01*
X025475Y013111D01*
X025557Y013192D01*
X025663Y013236D01*
X025779Y013236D01*
X025885Y013192D01*
X025967Y013111D01*
X026011Y013004D01*
X026011Y012889D01*
X025967Y012782D01*
X025885Y012701D01*
X026002Y012868D02*
X037254Y012868D01*
X037412Y013026D02*
X026002Y013026D01*
X025893Y013185D02*
X037473Y013185D01*
X037314Y013343D02*
X025156Y013343D01*
X025173Y013302D02*
X025125Y013417D01*
X025037Y013506D01*
X024921Y013554D01*
X024795Y013554D01*
X024680Y013506D01*
X024591Y013417D01*
X024543Y013302D01*
X024543Y013176D01*
X024591Y013060D01*
X024680Y012972D01*
X024795Y012924D01*
X024921Y012924D01*
X025037Y012972D01*
X025125Y013060D01*
X025173Y013176D01*
X025173Y013302D01*
X025173Y013185D02*
X025549Y013185D01*
X025440Y013026D02*
X025091Y013026D01*
X025440Y012868D02*
X022555Y012868D01*
X022600Y012709D02*
X025548Y012709D01*
X024625Y013026D02*
X021699Y013026D01*
X021699Y012970D02*
X021655Y012863D01*
X021573Y012782D01*
X021467Y012738D01*
X021351Y012738D01*
X021245Y012782D01*
X021163Y012863D01*
X021119Y012970D01*
X021119Y013085D01*
X021163Y013192D01*
X021245Y013273D01*
X021351Y013318D01*
X021467Y013318D01*
X021573Y013273D01*
X021655Y013192D01*
X021699Y013085D01*
X021699Y012970D01*
X021657Y012868D02*
X022066Y012868D01*
X022020Y012709D02*
X019856Y012709D01*
X019856Y012551D02*
X022059Y012551D01*
X021828Y012392D02*
X037265Y012392D01*
X037424Y012233D02*
X021866Y012233D01*
X021819Y012075D02*
X037461Y012075D01*
X037303Y011916D02*
X021813Y011916D01*
X021866Y011758D02*
X037212Y011758D01*
X037993Y010965D02*
X038351Y010965D01*
X038212Y010807D02*
X038132Y010807D01*
X038132Y010648D02*
X038212Y010648D01*
X038212Y010489D02*
X038132Y010489D01*
X038018Y010331D02*
X038326Y010331D01*
X038400Y010014D02*
X037944Y010014D01*
X038103Y009855D02*
X038242Y009855D01*
X038212Y009697D02*
X038132Y009697D01*
X038132Y009538D02*
X038212Y009538D01*
X038278Y009380D02*
X038067Y009380D01*
X037908Y009221D02*
X038436Y009221D01*
X038482Y009095D02*
X038212Y008826D01*
X038212Y008445D01*
X038482Y008175D01*
X038863Y008175D01*
X039132Y008445D01*
X039132Y008826D01*
X038863Y009095D01*
X038482Y009095D01*
X038449Y009063D02*
X037896Y009063D01*
X038054Y008904D02*
X038290Y008904D01*
X038212Y008745D02*
X038132Y008745D01*
X038132Y008587D02*
X038212Y008587D01*
X038229Y008428D02*
X038116Y008428D01*
X037957Y008270D02*
X038387Y008270D01*
X038957Y008270D02*
X039928Y008270D01*
X039928Y008428D02*
X039116Y008428D01*
X039132Y008587D02*
X039928Y008587D01*
X039928Y008745D02*
X039132Y008745D01*
X039054Y008904D02*
X039929Y008904D01*
X039929Y009063D02*
X038896Y009063D01*
X038908Y009221D02*
X039929Y009221D01*
X039929Y009380D02*
X039067Y009380D01*
X039132Y009538D02*
X039929Y009538D01*
X039930Y009697D02*
X039132Y009697D01*
X039103Y009855D02*
X039930Y009855D01*
X039927Y008111D02*
X022950Y008111D01*
X023130Y007953D02*
X039927Y007953D01*
X036816Y010014D02*
X021457Y010014D01*
X021440Y009997D02*
X021334Y009953D01*
X021219Y009953D01*
X021112Y009997D01*
X021030Y010078D01*
X020986Y010185D01*
X020986Y010300D01*
X021030Y010407D01*
X021112Y010489D01*
X021219Y010533D01*
X021334Y010533D01*
X021440Y010489D01*
X021522Y010407D01*
X021566Y010300D01*
X021566Y010185D01*
X021522Y010078D01*
X021440Y009997D01*
X021561Y010172D02*
X036786Y010172D01*
X036854Y010331D02*
X021554Y010331D01*
X021438Y010489D02*
X037212Y010489D01*
X037212Y010648D02*
X019515Y010648D01*
X019550Y010489D02*
X021114Y010489D01*
X020999Y010331D02*
X019550Y010331D01*
X019550Y010172D02*
X020991Y010172D01*
X021095Y010014D02*
X019550Y010014D01*
X018630Y010014D02*
X018550Y010014D01*
X018550Y010172D02*
X018630Y010172D01*
X018630Y010331D02*
X018550Y010331D01*
X018550Y010489D02*
X018630Y010489D01*
X018665Y010648D02*
X018515Y010648D01*
X018356Y010807D02*
X018824Y010807D01*
X019356Y010807D02*
X020198Y010807D01*
X020703Y010807D02*
X037212Y010807D01*
X037298Y010331D02*
X037326Y010331D01*
X035004Y007319D02*
X033089Y007319D01*
X032592Y007319D02*
X031439Y007319D01*
X031466Y007477D02*
X032551Y007477D01*
X032593Y007636D02*
X031393Y007636D01*
X031252Y007160D02*
X034845Y007160D01*
X034756Y007001D02*
X003536Y007001D01*
X003536Y006843D02*
X034756Y006843D01*
X033015Y005099D02*
X030773Y005099D01*
X030773Y005098D02*
X030802Y005168D01*
X030885Y005133D01*
X031000Y005133D01*
X031107Y005177D01*
X031188Y005259D01*
X031232Y005365D01*
X031232Y005481D01*
X031188Y005587D01*
X031107Y005669D01*
X031000Y005713D01*
X030885Y005713D01*
X030778Y005669D01*
X030696Y005587D01*
X030667Y005517D01*
X030585Y005552D01*
X030469Y005552D01*
X030363Y005508D01*
X030281Y005426D01*
X030237Y005319D01*
X030237Y005204D01*
X030281Y005098D01*
X030363Y005016D01*
X030469Y004972D01*
X030585Y004972D01*
X030691Y005016D01*
X030773Y005098D01*
X031187Y005258D02*
X032668Y005258D01*
X032603Y005416D02*
X031232Y005416D01*
X031193Y005575D02*
X032634Y005575D01*
X032978Y004940D02*
X027512Y004940D01*
X027475Y005099D02*
X030280Y005099D01*
X030237Y005258D02*
X027433Y005258D01*
X027479Y005416D02*
X030277Y005416D01*
X030691Y005575D02*
X027441Y005575D01*
X027463Y004782D02*
X033029Y004782D01*
X033220Y004207D02*
X033335Y004207D01*
X033442Y004163D01*
X033523Y004081D01*
X033568Y003975D01*
X033568Y003859D01*
X033523Y003753D01*
X033442Y003671D01*
X033335Y003627D01*
X033220Y003627D01*
X033113Y003671D01*
X033032Y003753D01*
X032988Y003859D01*
X032988Y003975D01*
X033032Y004081D01*
X033113Y004163D01*
X033220Y004207D01*
X033098Y004148D02*
X025925Y004148D01*
X025885Y004189D02*
X025966Y004107D01*
X026010Y004000D01*
X026010Y003885D01*
X025966Y003778D01*
X025885Y003697D01*
X025778Y003653D01*
X025663Y003653D01*
X025556Y003697D01*
X025475Y003778D01*
X025430Y003885D01*
X025430Y004000D01*
X025475Y004107D01*
X025556Y004189D01*
X025663Y004233D01*
X025778Y004233D01*
X025885Y004189D01*
X026010Y003989D02*
X032994Y003989D01*
X033000Y003831D02*
X025988Y003831D01*
X025825Y003672D02*
X027014Y003672D01*
X026860Y003514D02*
X021150Y003514D01*
X021210Y003355D02*
X026839Y003355D01*
X026928Y003196D02*
X021177Y003196D01*
X020663Y003196D02*
X002867Y003196D01*
X002890Y003182D02*
X002890Y003182D01*
X003011Y003088D02*
X003011Y003088D01*
X003064Y003038D02*
X027089Y003038D01*
X027016Y002879D02*
X003215Y002879D01*
X003331Y002721D02*
X027043Y002721D01*
X027244Y003672D02*
X033112Y003672D01*
X033443Y003672D02*
X034773Y003672D01*
X034756Y003831D02*
X033556Y003831D01*
X033562Y003989D02*
X034756Y003989D01*
X034833Y004148D02*
X033457Y004148D01*
X038634Y003487D02*
X038634Y003487D01*
X039243Y003501D02*
X039243Y003501D01*
X039539Y003426D02*
X039539Y003426D01*
X039705Y003355D02*
X039921Y003355D01*
X039816Y003298D02*
X039816Y003298D01*
X025616Y003672D02*
X024946Y003672D01*
X024983Y003687D02*
X024876Y003643D01*
X024761Y003643D01*
X024654Y003687D01*
X024573Y003769D01*
X024529Y003875D01*
X024529Y003991D01*
X024573Y004097D01*
X024654Y004179D01*
X024761Y004223D01*
X024876Y004223D01*
X024983Y004179D01*
X025064Y004097D01*
X025109Y003991D01*
X025109Y003875D01*
X025064Y003769D01*
X024983Y003687D01*
X025090Y003831D02*
X025453Y003831D01*
X025430Y003989D02*
X025109Y003989D01*
X025014Y004148D02*
X025515Y004148D01*
X024623Y004148D02*
X023033Y004148D01*
X023134Y003989D02*
X024529Y003989D01*
X024547Y003831D02*
X023123Y003831D01*
X023000Y003672D02*
X024691Y003672D01*
X018882Y009380D02*
X018298Y009380D01*
X018456Y009538D02*
X018724Y009538D01*
X018630Y009697D02*
X018550Y009697D01*
X018550Y009855D02*
X018630Y009855D01*
X017882Y009380D02*
X016433Y009380D01*
X015919Y009380D02*
X003327Y009380D01*
X003536Y008904D02*
X011021Y008904D01*
X010863Y008745D02*
X003536Y008745D01*
X003407Y008587D02*
X010862Y008587D01*
X010862Y008428D02*
X009814Y008428D01*
X009774Y008468D02*
X009936Y008306D01*
X010023Y008096D01*
X010023Y007868D01*
X009936Y007657D01*
X009774Y007496D01*
X009564Y007408D01*
X009336Y007408D01*
X009125Y007496D01*
X008964Y007657D01*
X008876Y007868D01*
X008876Y008096D01*
X008964Y008306D01*
X009125Y008468D01*
X009336Y008555D01*
X009564Y008555D01*
X009774Y008468D01*
X009951Y008270D02*
X010955Y008270D01*
X011114Y008111D02*
X010017Y008111D01*
X010023Y007953D02*
X011070Y007953D01*
X010911Y007794D02*
X009993Y007794D01*
X009915Y007636D02*
X010862Y007636D01*
X010862Y007477D02*
X009730Y007477D01*
X009170Y007477D02*
X007990Y007477D01*
X007888Y007435D02*
X007660Y007435D01*
X007449Y007522D01*
X007288Y007684D01*
X007201Y007894D01*
X007201Y008122D01*
X007288Y008333D01*
X007449Y008494D01*
X007660Y008582D01*
X007888Y008582D01*
X008099Y008494D01*
X008260Y008333D01*
X008347Y008122D01*
X008347Y007894D01*
X008260Y007684D01*
X008099Y007522D01*
X007888Y007435D01*
X007558Y007477D02*
X003250Y007477D01*
X003214Y007513D02*
X003536Y007191D01*
X003536Y006735D01*
X003214Y006413D01*
X001978Y006413D01*
X001656Y006735D01*
X001656Y007191D01*
X001978Y007513D01*
X003214Y007513D01*
X003409Y007319D02*
X010907Y007319D01*
X011065Y007160D02*
X003536Y007160D01*
X003485Y006684D02*
X007162Y006684D01*
X007162Y006526D02*
X003326Y006526D01*
X001866Y006526D02*
X001029Y006526D01*
X001029Y006684D02*
X001707Y006684D01*
X001656Y006843D02*
X001029Y006843D01*
X001028Y007001D02*
X001656Y007001D01*
X001656Y007160D02*
X001028Y007160D01*
X001028Y007319D02*
X001784Y007319D01*
X001942Y007477D02*
X001028Y007477D01*
X001028Y007636D02*
X007336Y007636D01*
X007242Y007794D02*
X001028Y007794D01*
X001027Y007953D02*
X007201Y007953D01*
X007201Y008111D02*
X001027Y008111D01*
X001027Y008270D02*
X007262Y008270D01*
X007383Y008428D02*
X003249Y008428D01*
X001943Y008428D02*
X001027Y008428D01*
X001027Y008587D02*
X001785Y008587D01*
X001656Y008745D02*
X001026Y008745D01*
X001026Y008904D02*
X001656Y008904D01*
X001656Y009063D02*
X001026Y009063D01*
X001026Y009221D02*
X001706Y009221D01*
X001865Y009380D02*
X001026Y009380D01*
X001026Y009538D02*
X017724Y009538D01*
X017630Y009697D02*
X001025Y009697D01*
X001025Y009855D02*
X017630Y009855D01*
X017630Y010014D02*
X001025Y010014D01*
X001025Y010172D02*
X017630Y010172D01*
X017582Y012075D02*
X001023Y012075D01*
X001022Y012233D02*
X017561Y012233D01*
X017561Y012392D02*
X001022Y012392D01*
X001022Y012551D02*
X001862Y012551D01*
X001703Y012709D02*
X001022Y012709D01*
X001022Y012868D02*
X001674Y012868D01*
X001674Y013026D02*
X001022Y013026D01*
X001021Y013185D02*
X001674Y013185D01*
X001824Y013343D02*
X001021Y013343D01*
X003276Y014453D02*
X017561Y014453D01*
X017576Y014612D02*
X003435Y014612D01*
X003580Y014770D02*
X021371Y014770D01*
X021494Y014894D02*
X021225Y014625D01*
X021225Y014243D01*
X021460Y014008D01*
X021398Y013945D01*
X021353Y013838D01*
X021353Y013723D01*
X021398Y013616D01*
X021479Y013535D01*
X021586Y013491D01*
X021701Y013491D01*
X021808Y013535D01*
X021889Y013616D01*
X021933Y013723D01*
X021933Y013838D01*
X021889Y013945D01*
X021860Y013974D01*
X022475Y013974D01*
X022745Y014243D01*
X022745Y014625D01*
X022475Y014894D01*
X021494Y014894D01*
X021225Y014612D02*
X019870Y014612D01*
X019876Y014605D02*
X019876Y014331D01*
X019496Y014331D01*
X019496Y014331D01*
X019496Y014711D01*
X019771Y014711D01*
X019876Y014605D01*
X019876Y014453D02*
X021225Y014453D01*
X021225Y014294D02*
X019876Y014294D01*
X019972Y014331D02*
X019972Y014337D01*
X019876Y014136D02*
X021332Y014136D01*
X021430Y013977D02*
X019856Y013977D01*
X019856Y013819D02*
X021353Y013819D01*
X021379Y013660D02*
X019856Y013660D01*
X019856Y013502D02*
X021559Y013502D01*
X021728Y013502D02*
X024676Y013502D01*
X024560Y013343D02*
X019856Y013343D01*
X019856Y013185D02*
X021160Y013185D01*
X021119Y013026D02*
X019856Y013026D01*
X019856Y012868D02*
X021161Y012868D01*
X021658Y013185D02*
X024543Y013185D01*
X025041Y013502D02*
X037212Y013502D01*
X037212Y013660D02*
X021907Y013660D01*
X021933Y013819D02*
X037212Y013819D01*
X037364Y013977D02*
X022479Y013977D01*
X022637Y014136D02*
X039936Y014136D01*
X037363Y014294D02*
X022745Y014294D01*
X022745Y014453D02*
X037212Y014453D01*
X037212Y014612D02*
X022745Y014612D01*
X022599Y014770D02*
X037212Y014770D01*
X037776Y016443D02*
X035302Y016443D01*
X035302Y016380D01*
X035259Y016380D01*
X035259Y016380D01*
X035302Y016380D02*
X035302Y016375D01*
X039939Y016356D02*
X029069Y016356D01*
X029069Y016514D02*
X039940Y016514D01*
X039940Y016673D02*
X029069Y016673D01*
X029060Y016831D02*
X039940Y016831D01*
X039940Y016990D02*
X028901Y016990D01*
X029069Y016197D02*
X039939Y016197D01*
X039943Y019051D02*
X019818Y019051D01*
X019730Y018963D02*
X019352Y018963D01*
X019084Y019231D01*
X019084Y020203D01*
X019352Y020471D01*
X019730Y020471D01*
X019998Y020203D01*
X019998Y019231D01*
X019730Y018963D01*
X019976Y019209D02*
X039943Y019209D01*
X039944Y019368D02*
X019998Y019368D01*
X019998Y019526D02*
X039944Y019526D01*
X039944Y019685D02*
X019998Y019685D01*
X019998Y019844D02*
X035389Y019844D01*
X035417Y019816D02*
X035596Y019816D01*
X035596Y020571D01*
X035596Y020608D01*
X035633Y020608D01*
X035633Y021363D01*
X035812Y021363D01*
X036091Y021084D01*
X036091Y020608D01*
X035633Y020608D01*
X035633Y020571D01*
X036091Y020571D01*
X036091Y020095D01*
X035812Y019816D01*
X035633Y019816D01*
X035633Y020571D01*
X035596Y020571D01*
X035138Y020571D01*
X035138Y020095D01*
X035417Y019816D01*
X035596Y019844D02*
X035633Y019844D01*
X035710Y019783D02*
X035710Y019596D01*
X035643Y020012D01*
X035633Y020002D02*
X035596Y020002D01*
X035596Y020161D02*
X035633Y020161D01*
X035633Y020319D02*
X035596Y020319D01*
X035596Y020478D02*
X035633Y020478D01*
X035596Y020608D02*
X035138Y020608D01*
X035138Y021084D01*
X035417Y021363D01*
X035596Y021363D01*
X035596Y020608D01*
X035596Y020636D02*
X035633Y020636D01*
X035633Y020795D02*
X035596Y020795D01*
X035596Y020953D02*
X035633Y020953D01*
X035633Y021112D02*
X035596Y021112D01*
X035596Y021270D02*
X035633Y021270D01*
X035905Y021270D02*
X037816Y021270D01*
X037807Y021261D02*
X038141Y021595D01*
X038717Y021595D01*
X038717Y021075D01*
X038817Y021075D01*
X038817Y020975D01*
X039727Y020975D01*
X039727Y020789D01*
X039393Y020455D01*
X038817Y020455D01*
X038817Y020975D01*
X038717Y020975D01*
X038717Y020455D01*
X038141Y020455D01*
X037807Y020789D01*
X037807Y020975D01*
X038716Y020975D01*
X038716Y021075D01*
X037807Y021075D01*
X037807Y021261D01*
X037807Y021112D02*
X036063Y021112D01*
X036091Y020953D02*
X037807Y020953D01*
X037807Y020795D02*
X036091Y020795D01*
X036091Y020636D02*
X037960Y020636D01*
X038118Y020478D02*
X036091Y020478D01*
X036091Y020319D02*
X039945Y020319D01*
X039945Y020161D02*
X036091Y020161D01*
X035998Y020002D02*
X039945Y020002D01*
X039944Y019844D02*
X035840Y019844D01*
X035231Y020002D02*
X019998Y020002D01*
X019998Y020161D02*
X035138Y020161D01*
X035138Y020319D02*
X019882Y020319D01*
X019200Y020319D02*
X017198Y020319D01*
X017257Y020260D02*
X017257Y019288D01*
X016989Y019020D01*
X016611Y019020D01*
X016343Y019288D01*
X016343Y020260D01*
X016611Y020528D01*
X016989Y020528D01*
X017257Y020260D01*
X017257Y020161D02*
X019084Y020161D01*
X019084Y020002D02*
X017257Y020002D01*
X017257Y019844D02*
X019084Y019844D01*
X019084Y019685D02*
X017257Y019685D01*
X017257Y019526D02*
X019084Y019526D01*
X019084Y019368D02*
X017257Y019368D01*
X017178Y019209D02*
X019106Y019209D01*
X019264Y019051D02*
X017020Y019051D01*
X016580Y019051D02*
X014522Y019051D01*
X014681Y019209D02*
X016422Y019209D01*
X016343Y019368D02*
X014761Y019368D01*
X014761Y019526D02*
X016343Y019526D01*
X016343Y019685D02*
X014761Y019685D01*
X014761Y019844D02*
X016343Y019844D01*
X016343Y020002D02*
X014761Y020002D01*
X014761Y020161D02*
X016343Y020161D01*
X016402Y020319D02*
X014702Y020319D01*
X014883Y020478D02*
X016561Y020478D01*
X017039Y020478D02*
X035138Y020478D01*
X035138Y020636D02*
X015041Y020636D01*
X015200Y020795D02*
X030612Y020795D01*
X030492Y020915D02*
X030759Y020647D01*
X031138Y020647D01*
X031405Y020915D01*
X031405Y021887D01*
X031138Y022155D01*
X030759Y022155D01*
X030492Y021887D01*
X030492Y020915D01*
X030492Y020953D02*
X015359Y020953D01*
X015517Y021112D02*
X030492Y021112D01*
X030492Y021270D02*
X017236Y021270D01*
X017390Y021429D02*
X030492Y021429D01*
X030492Y021587D02*
X017390Y021587D01*
X017391Y021746D02*
X030492Y021746D01*
X030509Y021905D02*
X017391Y021905D01*
X017391Y022063D02*
X030668Y022063D01*
X031229Y022063D02*
X039948Y022063D01*
X039947Y021905D02*
X031388Y021905D01*
X031405Y021746D02*
X039947Y021746D01*
X039947Y021587D02*
X039400Y021587D01*
X039393Y021595D02*
X039727Y021261D01*
X039727Y021075D01*
X038817Y021075D01*
X038817Y021595D01*
X039393Y021595D01*
X039559Y021429D02*
X039947Y021429D01*
X039946Y021270D02*
X039718Y021270D01*
X039727Y021112D02*
X039946Y021112D01*
X039946Y020953D02*
X039727Y020953D01*
X039727Y020795D02*
X039946Y020795D01*
X039946Y020636D02*
X039574Y020636D01*
X039415Y020478D02*
X039945Y020478D01*
X038817Y020478D02*
X038717Y020478D01*
X038717Y020636D02*
X038817Y020636D01*
X038817Y020795D02*
X038717Y020795D01*
X038717Y020953D02*
X038817Y020953D01*
X038817Y021112D02*
X038717Y021112D01*
X038717Y021270D02*
X038817Y021270D01*
X038817Y021429D02*
X038717Y021429D01*
X038717Y021587D02*
X038817Y021587D01*
X038133Y021587D02*
X031405Y021587D01*
X031405Y021429D02*
X037975Y021429D01*
X038149Y022455D02*
X039385Y022455D01*
X039707Y022777D01*
X039707Y023233D01*
X039385Y023555D01*
X038149Y023555D01*
X037827Y023233D01*
X037827Y022777D01*
X038149Y022455D01*
X038065Y022539D02*
X017391Y022539D01*
X017391Y022697D02*
X037907Y022697D01*
X037827Y022856D02*
X017391Y022856D01*
X017391Y023014D02*
X037827Y023014D01*
X037827Y023173D02*
X017391Y023173D01*
X017391Y023331D02*
X037925Y023331D01*
X038084Y023490D02*
X017391Y023490D01*
X017391Y023649D02*
X039950Y023649D01*
X039950Y023807D02*
X017391Y023807D01*
X017391Y023966D02*
X039950Y023966D01*
X039951Y024124D02*
X017391Y024124D01*
X017391Y024283D02*
X039951Y024283D01*
X039951Y024441D02*
X017391Y024441D01*
X017391Y024600D02*
X038314Y024600D01*
X038342Y024587D02*
X038342Y024587D01*
X038203Y024651D02*
X038203Y024651D01*
X038071Y024727D02*
X038071Y024727D01*
X038027Y024758D02*
X017391Y024758D01*
X017391Y024917D02*
X037828Y024917D01*
X037830Y024915D02*
X037830Y024915D01*
X037946Y024816D02*
X037946Y024816D01*
X037723Y025024D02*
X037723Y025024D01*
X037681Y025075D02*
X017308Y025075D01*
X017150Y025234D02*
X037565Y025234D01*
X037541Y025270D02*
X037541Y025270D01*
X037474Y025393D02*
X015444Y025393D01*
X015272Y025551D02*
X037404Y025551D01*
X037467Y025404D02*
X037467Y025404D01*
X037626Y025143D02*
X037626Y025143D01*
X037354Y025710D02*
X015101Y025710D01*
X014930Y025868D02*
X037320Y025868D01*
X037302Y026027D02*
X014766Y026027D01*
X012167Y023228D02*
X012025Y023228D01*
X012025Y023197D01*
X012025Y023228D02*
X012025Y023321D01*
X017391Y022380D02*
X039948Y022380D01*
X039948Y022222D02*
X017391Y022222D01*
X020076Y019143D02*
X021399Y019143D01*
X022256Y018417D02*
X001015Y018417D01*
X001015Y018575D02*
X001909Y018575D01*
X001750Y018734D02*
X001015Y018734D01*
X001015Y018892D02*
X001722Y018892D01*
X001722Y019051D02*
X001015Y019051D01*
X001014Y019209D02*
X001722Y019209D01*
X001872Y019368D02*
X001014Y019368D01*
X001014Y019526D02*
X002031Y019526D01*
X003338Y020478D02*
X006384Y020478D01*
X006384Y020636D02*
X003496Y020636D01*
X003602Y020795D02*
X006384Y020795D01*
X006384Y020953D02*
X003602Y020953D01*
X003602Y021112D02*
X006384Y021112D01*
X006384Y021270D02*
X003529Y021270D01*
X003371Y021429D02*
X006384Y021429D01*
X007204Y019209D02*
X013926Y019209D01*
X014085Y019051D02*
X007204Y019051D01*
X013141Y016831D02*
X013182Y016831D01*
X013182Y016673D02*
X013141Y016673D01*
X013141Y016514D02*
X013182Y016514D01*
X013182Y016356D02*
X013141Y016356D01*
X013141Y016197D02*
X013182Y016197D01*
X014370Y016831D02*
X014953Y016831D01*
X014971Y016849D02*
X014702Y016580D01*
X014702Y015599D01*
X014971Y015329D01*
X015352Y015329D01*
X015621Y015599D01*
X015621Y016580D01*
X015352Y016849D01*
X014971Y016849D01*
X014794Y016673D02*
X014529Y016673D01*
X014621Y016514D02*
X014702Y016514D01*
X014702Y016356D02*
X014621Y016356D01*
X014621Y016197D02*
X014702Y016197D01*
X014702Y016038D02*
X014621Y016038D01*
X014621Y015880D02*
X014702Y015880D01*
X014702Y015721D02*
X014621Y015721D01*
X014586Y015563D02*
X014737Y015563D01*
X014896Y015404D02*
X014427Y015404D01*
X015427Y015404D02*
X021225Y015404D01*
X021225Y015563D02*
X015586Y015563D01*
X015621Y015721D02*
X021322Y015721D01*
X021480Y015880D02*
X015621Y015880D01*
X015621Y016038D02*
X018479Y016038D01*
X018473Y016045D02*
X018429Y016151D01*
X018429Y016267D01*
X018473Y016373D01*
X018555Y016455D01*
X018661Y016499D01*
X018777Y016499D01*
X018883Y016455D01*
X018965Y016373D01*
X019009Y016267D01*
X019009Y016151D01*
X018965Y016045D01*
X018883Y015963D01*
X018777Y015919D01*
X018661Y015919D01*
X018555Y015963D01*
X018473Y016045D01*
X018429Y016197D02*
X015621Y016197D01*
X015621Y016356D02*
X018466Y016356D01*
X018972Y016356D02*
X021225Y016356D01*
X021225Y016514D02*
X015621Y016514D01*
X015529Y016673D02*
X021273Y016673D01*
X021432Y016831D02*
X015370Y016831D01*
X018959Y016038D02*
X021430Y016038D01*
X021271Y016197D02*
X019009Y016197D01*
X019464Y016821D02*
X019464Y016843D01*
X019476Y016843D02*
X020076Y016843D01*
X020076Y019143D01*
X020839Y018100D02*
X001016Y018100D01*
X001016Y018258D02*
X022447Y018258D01*
X023776Y019143D02*
X023776Y020973D01*
X024107Y020973D01*
X026276Y019543D02*
X026276Y019539D01*
X026276Y019143D01*
X024935Y019143D02*
X024935Y018894D01*
X024927Y019143D01*
X024935Y019143D02*
X024935Y019147D01*
X020703Y017941D02*
X001016Y017941D01*
X001016Y017782D02*
X020687Y017782D01*
X020785Y017624D02*
X001016Y017624D01*
X001785Y024474D02*
X001785Y024474D01*
X001634Y024498D02*
X001634Y024498D01*
X001486Y024536D02*
X001486Y024536D01*
X001342Y024587D02*
X001342Y024587D01*
X001314Y024600D02*
X001008Y024600D01*
X001071Y024727D02*
X001071Y024727D01*
X001027Y024758D02*
X001008Y024758D01*
X001203Y024651D02*
X001203Y024651D01*
X001938Y024463D02*
X001938Y024463D01*
X002091Y024467D02*
X002091Y024467D01*
X002945Y024770D02*
X002945Y024770D01*
X003517Y025473D02*
X003517Y025473D01*
X003654Y026185D02*
X037298Y026185D01*
X037310Y026344D02*
X003643Y026344D01*
X003616Y026502D02*
X037337Y026502D01*
X037380Y026661D02*
X003574Y026661D01*
X003513Y026819D02*
X037440Y026819D01*
X037467Y026881D02*
X037467Y026881D01*
X037520Y026978D02*
X003432Y026978D01*
X019496Y014612D02*
X019496Y014612D01*
X019496Y014453D02*
X019496Y014453D01*
X019496Y014331D02*
X019496Y014331D01*
X017561Y014203D02*
X017561Y013810D01*
X017561Y013819D02*
X016098Y013819D01*
X016190Y013977D02*
X017561Y013977D01*
X017561Y014136D02*
X016178Y014136D01*
X016163Y013502D02*
X017561Y013502D01*
X017561Y013343D02*
X016275Y013343D01*
X016291Y013185D02*
X017561Y013185D01*
X017561Y013026D02*
X016205Y013026D01*
X016271Y012868D02*
X017561Y012868D01*
X017561Y012709D02*
X016287Y012709D01*
X016201Y012551D02*
X017561Y012551D01*
X019835Y012075D02*
X021334Y012075D01*
X021286Y012233D02*
X019856Y012233D01*
X019856Y012392D02*
X021324Y012392D01*
X029580Y019539D02*
X029580Y019783D01*
X029551Y019783D01*
X031285Y020795D02*
X035138Y020795D01*
X035138Y020953D02*
X031405Y020953D01*
X031405Y021112D02*
X035166Y021112D01*
X035324Y021270D02*
X031405Y021270D01*
X029552Y021362D02*
X029523Y021362D01*
X029551Y021362D01*
X029552Y021362D02*
X029552Y021413D01*
X027322Y022804D02*
X027292Y022804D01*
X038486Y024536D02*
X038486Y024536D01*
X038634Y024498D02*
X038634Y024498D01*
X038785Y024474D02*
X038785Y024474D01*
X038938Y024463D02*
X038938Y024463D01*
X039091Y024467D02*
X039091Y024467D01*
X039637Y024600D02*
X039951Y024600D01*
X039951Y024758D02*
X039927Y024758D01*
X039945Y024770D02*
X039945Y024770D01*
X039816Y024688D02*
X039816Y024688D01*
X039680Y024617D02*
X039680Y024617D01*
X039450Y023490D02*
X039950Y023490D01*
X039949Y023331D02*
X039608Y023331D01*
X039707Y023173D02*
X039949Y023173D01*
X039949Y023014D02*
X039707Y023014D01*
X039707Y022856D02*
X039949Y022856D01*
X039949Y022697D02*
X039627Y022697D01*
X039468Y022539D02*
X039948Y022539D01*
X010862Y003514D02*
X006327Y003514D01*
X006654Y003672D02*
X010525Y003672D01*
X010366Y003831D02*
X006812Y003831D01*
X006945Y003989D02*
X010229Y003989D01*
X010164Y004148D02*
X007010Y004148D01*
X007076Y004306D02*
X010098Y004306D01*
X010076Y004465D02*
X007095Y004465D01*
X007095Y004623D02*
X010076Y004623D01*
X010076Y004782D02*
X007095Y004782D01*
X007035Y004940D02*
X010134Y004940D01*
X010199Y005099D02*
X006969Y005099D01*
X006871Y005258D02*
X010293Y005258D01*
X010452Y005416D02*
X006712Y005416D01*
X006469Y005575D02*
X010685Y005575D01*
X009102Y005733D02*
X008349Y005733D01*
X008349Y005892D02*
X008943Y005892D01*
X007814Y005892D02*
X007698Y005892D01*
X007698Y006050D02*
X007814Y006050D01*
X007814Y005733D02*
X007698Y005733D01*
X007698Y006367D02*
X007814Y006367D01*
X007814Y006526D02*
X007698Y006526D01*
X007698Y006684D02*
X007814Y006684D01*
X008212Y007636D02*
X008985Y007636D01*
X008907Y007794D02*
X008306Y007794D01*
X008347Y007953D02*
X008876Y007953D01*
X008883Y008111D02*
X008347Y008111D01*
X008286Y008270D02*
X008948Y008270D01*
X009086Y008428D02*
X008165Y008428D01*
X002625Y003335D02*
X002625Y003335D01*
D24*
X003870Y005304D02*
X004322Y005304D01*
X004322Y005921D01*
X007837Y005921D01*
X007837Y006208D01*
X007756Y006208D01*
X007776Y006208D01*
X007776Y007043D01*
X006479Y007043D01*
X006479Y011475D01*
X005620Y011475D01*
X005620Y011444D01*
X005635Y011444D01*
X005676Y015043D01*
X006476Y015043D01*
X005620Y011444D02*
X005620Y011406D01*
X011293Y009783D02*
X013135Y009783D01*
X013135Y009800D01*
X013168Y009800D01*
X013168Y007102D01*
X012272Y007102D01*
X012272Y006839D01*
X011557Y006839D01*
X011557Y006223D01*
X011565Y006223D01*
X010176Y006223D01*
X010176Y007043D01*
X007776Y007043D01*
X007776Y006208D02*
X007776Y006143D01*
X011557Y006223D02*
X011557Y006214D01*
X013168Y009800D02*
X013168Y012267D01*
X014928Y012267D01*
X026586Y001987D02*
X030576Y001987D01*
X033676Y001987D01*
X033676Y002246D01*
X033732Y002246D01*
X033976Y002246D01*
X033976Y001643D01*
X035576Y001643D01*
X035576Y001880D01*
X035516Y001880D01*
X030576Y001846D02*
X030576Y001987D01*
X030576Y001846D02*
X030541Y001846D01*
X030576Y001846D02*
X030576Y001843D01*
X039660Y007637D02*
X039766Y007637D01*
X039723Y007637D01*
X038876Y015543D02*
X038876Y015635D01*
X038876Y015643D01*
X035606Y021489D02*
X035606Y021500D01*
X035608Y021500D01*
X035606Y021489D02*
X035150Y021489D01*
D25*
X037776Y016443D02*
X039645Y016467D01*
X039645Y015667D01*
X039660Y015643D01*
X039660Y007637D01*
X039619Y007637D01*
X039619Y007555D01*
X036654Y007555D01*
X036654Y001880D01*
X035516Y001880D01*
X039660Y007603D02*
X039660Y007637D01*
X039660Y007637D01*
X039645Y015667D02*
X038876Y015643D01*
X038876Y015635D02*
X038672Y015635D01*
D26*
X035649Y020515D02*
X035614Y020589D01*
X035649Y020515D02*
X035608Y020497D01*
X035606Y022777D02*
X035606Y022825D01*
X035608Y022825D01*
X035606Y022777D02*
X035601Y022777D01*
X029552Y021413D02*
X027322Y021413D01*
X027322Y022804D01*
D27*
X035259Y018443D02*
X035259Y016380D01*
X029776Y016380D01*
X029776Y015543D01*
X029776Y014543D01*
X029776Y014583D01*
X029772Y014583D01*
X029776Y014543D02*
X029776Y013677D01*
X029779Y013677D01*
X029779Y013684D01*
X029776Y013677D02*
X029776Y012748D01*
X029769Y012748D01*
X029769Y012758D01*
X029776Y012748D02*
X029776Y011643D01*
X029791Y011643D01*
X035259Y018443D02*
X035652Y018426D01*
X035643Y020012D01*
M02*
